<svg width="56" height="56" viewBox="0 0 56 56" fill="none" xmlns="http://www.w3.org/2000/svg">
<g clip-path="url(#clip0_1_11536)">
<rect y="3.05176e-05" width="56" height="56" rx="28" fill="white"/>
<path d="M27.9 56.5999C43.83 56.5999 56.7439 43.686 56.7439 27.756C56.7439 11.8259 43.83 -1.08798 27.9 -1.08798C11.9699 -1.08798 -0.94397 11.8259 -0.94397 27.756C-0.94397 43.686 11.9699 56.5999 27.9 56.5999Z" fill="#DAEAF8"/>
<path d="M41.3885 -3.79757L33.4399 15.9536L33.3797 16.1343H22.7815L22.8417 15.9536L28.1408 3.5489L31.9947 -5.42343C35.3668 -5.12235 38.3777 -5.12235 41.3885 -3.79757Z" fill="#1B68FF"/>
<path d="M35.3668 -9.99997C34.584 -8.19346 32.2355 -2.6535 31.4527 -0.846985C31.3925 -0.726551 31.3323 -0.606118 31.2721 -0.485684C30.6097 1.01974 29.9473 2.58538 29.2849 4.09081L29.8871 5.77689C30.6699 3.91016 31.5129 2.04343 32.2958 0.116486C32.7775 -0.96742 33.2592 -2.11154 33.741 -3.19545C33.9216 -3.61697 34.1023 -4.0987 34.3431 -4.52022C34.5238 -4.88153 36.2701 -9.09672 36.4507 -9.45802L35.3668 -9.99997Z" fill="#5F9CFF"/>
<path d="M29.1645 7.58345C28.8635 8.30605 27.7193 7.82431 28.0204 7.10171C28.2011 6.68019 28.3817 6.25867 28.5624 5.83715C28.6226 5.6565 28.6828 5.53607 28.743 5.35541C28.9237 4.9339 29.1043 4.51238 29.285 4.15107L28.6828 2.40479L22.902 16.0138L22.9622 16.1945H33.3797L33.5002 15.9536L29.9474 5.83715C29.8872 6.0178 29.8269 6.13824 29.7667 6.31889C29.5258 6.74041 29.3452 7.16193 29.1645 7.58345Z" fill="#0058E5"/>
<path d="M28.743 5.41564C28.6827 5.59629 28.6225 5.71673 28.5623 5.89738C28.3817 6.3189 28.201 6.74041 28.0204 7.16193C27.7193 7.88454 28.8634 8.36627 29.1645 7.64367C29.3451 7.22215 29.5258 6.80063 29.7064 6.37911C29.7666 6.19846 29.8269 6.07803 29.8871 5.89738L29.2849 4.2113C29.1043 4.57261 28.9236 4.99412 28.743 5.41564Z" fill="#2C7DFF"/>
<path d="M33.5001 16.1945H22.9621L22.9019 16.0138L14.8931 -5.0621C18.2652 -6.32666 21.2158 -6.74818 24.6482 -6.92883L28.201 3.66936L33.5001 16.0741V16.1945Z" fill="#1B68FF"/>
<path d="M32.2356 19.2053H24.2267C22.8418 19.2053 21.6976 18.0612 21.6976 16.6762C21.6976 15.2912 22.8418 14.1471 24.2267 14.1471H32.2356C33.6206 14.1471 34.7647 15.2912 34.7647 16.6762C34.7647 18.0612 33.6808 19.2053 32.2356 19.2053Z" fill="#FFD31D"/>
<path d="M32.356 15.5323H24.2267C23.9859 15.5323 23.745 15.2915 23.745 15.0506C23.745 14.8097 23.9859 14.5688 24.2267 14.5688H32.356C32.5969 14.5688 32.8378 14.8097 32.8378 15.0506C32.8378 15.3517 32.6571 15.5323 32.356 15.5323Z" fill="white"/>
<path d="M28.2613 44.9179C36.1099 44.9179 42.4725 38.5554 42.4725 30.7067C42.4725 22.8581 36.1099 16.4955 28.2613 16.4955C20.4126 16.4955 14.05 22.8581 14.05 30.7067C14.05 38.5554 20.4126 44.9179 28.2613 44.9179Z" fill="#FFBF1F"/>
<path d="M15.1942 31.4294C14.9533 31.4294 14.7125 31.2488 14.7125 30.9477C14.6522 29.2616 14.8931 27.6357 15.4953 26.1303C16.2179 24.1432 17.362 22.3969 18.8674 21.0119L18.9277 20.9517L18.9879 20.8914C19.289 20.5904 19.6503 20.3495 19.9513 20.1086C20.0718 20.0484 20.1922 19.928 20.3126 19.8678C20.6739 19.6269 21.0353 19.386 21.4568 19.1452C21.517 19.0849 21.6374 19.0849 21.6976 19.0247C21.8783 18.9645 21.9987 18.8441 22.2396 18.7838C22.4805 18.6634 22.7815 18.7839 22.8418 19.0247C22.9622 19.2656 22.8418 19.5667 22.6009 19.6269C22.4805 19.6871 22.2998 19.7473 22.1794 19.8678C22.1192 19.928 21.9987 19.9882 21.9385 19.9882C21.517 20.2291 21.2159 20.4097 20.8546 20.6506C20.7342 20.771 20.6137 20.8312 20.4933 20.8914C20.1922 21.1323 19.8911 21.313 19.6503 21.614C19.59 21.6743 19.5298 21.7345 19.4696 21.7947C18.0846 23.1195 17.0007 24.6851 16.3383 26.5518C15.8566 27.9971 15.6157 29.5025 15.6157 31.0681C15.6759 31.1886 15.4953 31.4294 15.1942 31.4294C15.2544 31.4294 15.1942 31.4294 15.1942 31.4294Z" fill="white"/>
<path d="M28.2612 42.0274C34.5135 42.0274 39.582 36.9589 39.582 30.7066C39.582 24.4543 34.5135 19.3858 28.2612 19.3858C22.0089 19.3858 16.9404 24.4543 16.9404 30.7066C16.9404 36.9589 22.0089 42.0274 28.2612 42.0274Z" fill="#FFD31D"/>
<path opacity="0.5" d="M35.9691 22.457C37.7756 24.4441 38.9197 27.1539 38.9197 30.1045C38.9197 36.3671 33.8615 41.4253 27.5989 41.4253C24.588 41.4253 21.8783 40.2812 19.8911 38.4145C21.9385 40.7027 24.9493 42.0877 28.2613 42.0877C34.5238 42.0877 39.5821 37.0295 39.5821 30.7669C39.5821 27.455 38.1971 24.5043 35.9691 22.457Z" fill="#FFEFAB"/>
<path d="M17.6631 31.8508C17.6631 25.5882 22.7213 20.53 28.9839 20.53C32.6571 20.53 35.9088 22.2763 37.9562 24.9861C35.969 21.6741 32.356 19.4461 28.201 19.4461C21.9385 19.4461 16.8802 24.5043 16.8802 30.7669C16.8802 33.3562 17.7835 35.7649 19.2287 37.6919C18.2652 35.9456 17.6631 33.9584 17.6631 31.8508Z" fill="#FFAB2E"/>
<path d="M15.8566 33.2962C15.8566 33.0553 15.6759 32.8747 15.4351 32.8747C15.1942 32.8747 15.0135 33.0553 15.0135 33.2962C15.0135 33.537 15.1942 33.7177 15.4351 33.7177C15.6157 33.7177 15.8566 33.537 15.8566 33.2962Z" fill="white"/>
<path d="M24.1062 11.6781C23.9256 11.2566 23.8052 10.835 23.6245 10.4135C22.8417 8.36615 22.0589 6.25856 21.276 4.21118C20.8545 3.06706 20.433 1.98315 20.0115 0.839027C19.8308 0.357291 19.6502 -0.0642271 19.4695 -0.545963C19.3491 -0.907265 17.663 -5.18267 17.5426 -5.54398L16.3383 -5.24289C17.0006 -3.43638 19.2287 2.22402 19.9513 4.03053C20.0115 4.15096 20.0717 4.27139 20.0717 4.45205C20.8545 6.43921 21.5771 8.42637 22.36 10.4135C22.4202 10.5942 22.4804 10.7146 22.5406 10.8953C22.7213 11.3168 22.8417 11.7383 23.0223 12.1598C23.203 12.8824 24.4073 12.4007 24.1062 11.6781Z" fill="#5F9CFF"/>
<path d="M25.1903 29.3217L26.0333 31.1282C26.0935 31.3088 26.2742 31.4293 26.4548 31.4293L28.442 31.7303C28.9237 31.7906 29.1044 32.3927 28.7431 32.754L27.2979 34.139C27.1774 34.2595 27.1172 34.4401 27.1172 34.681L27.4183 36.6681C27.4785 37.1499 26.9968 37.5112 26.5753 37.2703L24.829 36.3068C24.6483 36.1864 24.4677 36.1864 24.287 36.3068L22.4805 37.2101C22.059 37.451 21.5772 37.0294 21.6375 36.6079L21.9988 34.6208C22.059 34.4401 21.9988 34.2595 21.8181 34.0788L20.4331 32.6336C20.0718 32.2723 20.3127 31.7303 20.7944 31.6701L22.7816 31.4293C22.9622 31.4293 23.1429 31.3088 23.2031 31.1282L24.1064 29.3217C24.4074 28.8399 25.0096 28.8399 25.1903 29.3217Z" fill="#FFAB2E"/>
<path d="M24.7085 28.9603L25.5515 30.7668C25.6117 30.9475 25.7924 31.0679 25.973 31.0679L27.9602 31.369C28.4419 31.4292 28.6226 32.0314 28.2613 32.3927L26.8161 33.7777C26.6956 33.8981 26.6354 34.0787 26.6354 34.3196L26.9365 36.3068C26.9967 36.7885 26.515 37.1498 26.0935 36.9089L24.287 35.9455C24.1063 35.825 23.9257 35.825 23.745 35.9455L21.9385 36.8487C21.517 37.0896 21.0352 36.6681 21.0955 36.2466L21.4568 34.2594C21.517 34.0787 21.4568 33.8981 21.2761 33.7174L19.8911 32.2722C19.5298 31.9109 19.7707 31.369 20.2524 31.3088L22.2396 31.0679C22.4202 31.0679 22.6009 30.9475 22.6611 30.7668L23.5644 28.9603C23.8654 28.5388 24.5278 28.5388 24.7085 28.9603Z" fill="#FFF64A"/>
<path d="M23.5041 30.0444C23.3837 30.3455 23.2632 30.6466 23.0826 30.9477C22.9019 31.2488 22.6611 31.3692 22.36 31.4294C22.4202 31.4294 22.4202 31.4294 22.36 31.4294C22.2998 31.4294 22.2998 31.4294 22.2395 31.4294C22.1191 31.4294 22.0589 31.4294 21.9385 31.4896C21.7578 31.4896 21.5772 31.5498 21.3965 31.5498C21.2761 31.5498 21.1556 31.6703 21.1556 31.7907C21.1556 31.9111 21.2761 32.0918 21.3965 32.0316C21.6976 31.9714 22.0589 31.9714 22.36 31.9111C22.7213 31.8509 23.0826 31.6703 23.3235 31.3692C23.4439 31.1885 23.5643 31.0079 23.6245 30.8272C23.6848 30.6466 23.8052 30.4659 23.8654 30.2853C23.9256 30.1649 23.9256 29.9842 23.745 29.924C23.745 29.8638 23.5643 29.924 23.5041 30.0444Z" fill="white"/>
<path d="M20.4933 31.6098C20.4331 31.6098 20.4331 31.6098 20.3729 31.6098C20.3127 31.6098 20.3127 31.6098 20.3127 31.67L20.2524 31.7303C20.2524 31.7905 20.2524 31.7905 20.2524 31.8507V31.9109C20.2524 31.9711 20.3127 31.9711 20.3127 32.0313C20.3127 32.0313 20.3729 32.0313 20.3729 32.0916C20.4331 32.0916 20.4331 32.1518 20.4933 32.1518C20.5535 32.1518 20.5535 32.1518 20.6137 32.1518C20.674 32.1518 20.674 32.1518 20.674 32.0916L20.7342 32.0313C20.7342 31.9711 20.7342 31.9711 20.7342 31.9109V31.8507C20.7342 31.7905 20.674 31.7905 20.674 31.7303C20.674 31.7303 20.6137 31.7303 20.6137 31.67C20.6137 31.6098 20.5535 31.6098 20.4933 31.6098Z" fill="white"/>
<path d="M33.9819 25.8294L34.8249 27.6359C34.8851 27.8165 35.0658 27.9369 35.2464 27.9369L37.2336 28.238C37.7153 28.2983 37.896 28.9004 37.5347 29.2617L36.0895 30.6467C35.969 30.7671 35.9088 30.9478 35.9088 31.1887L36.2099 33.1758C36.2701 33.6576 35.7884 34.0189 35.3669 33.778L33.6206 32.8145C33.4399 32.6941 33.2593 32.6941 33.0786 32.8145L31.2721 33.7178C30.8506 33.9587 30.3689 33.5371 30.4291 33.1156L30.7904 31.1285C30.8506 30.9478 30.7904 30.7671 30.6097 30.5865L29.2247 29.1413C28.8634 28.78 29.1043 28.238 29.586 28.1778L31.5732 27.9369C31.7539 27.9369 31.9345 27.8165 31.9947 27.6359L32.898 25.8294C33.1388 25.4078 33.741 25.4078 33.9819 25.8294Z" fill="#FFAB2E"/>
<path d="M33.4399 25.528L34.2829 27.3345C34.3431 27.5151 34.5238 27.6356 34.7044 27.6356L36.6916 27.9367C37.1733 27.9969 37.354 28.5991 36.9927 28.9604L35.5475 30.3453C35.427 30.4658 35.3668 30.6464 35.3668 30.8873L35.6679 32.8745C35.7281 33.3562 35.2464 33.7175 34.8249 33.4766L33.0786 32.5132C32.8979 32.3927 32.7173 32.3927 32.5366 32.5132L30.7301 33.4164C30.3086 33.6573 29.8269 33.2358 29.8871 32.8142L30.2484 30.8271C30.3086 30.6464 30.2484 30.4658 30.0677 30.2851L28.6827 28.8399C28.3214 28.4786 28.5623 27.9367 29.0441 27.8765L31.0312 27.6356C31.2119 27.6356 31.3925 27.5151 31.4527 27.3345L32.356 25.528C32.6571 25.0463 33.2592 25.0463 33.4399 25.528Z" fill="#FFF64A"/>
<path d="M32.2959 26.5519C32.1754 26.853 32.055 27.1541 31.8743 27.4551C31.6937 27.7562 31.4528 27.8767 31.1517 27.9369C31.2119 27.9369 31.2119 27.9369 31.1517 27.9369C31.0915 27.9369 31.0915 27.9369 31.0313 27.9369C30.9109 27.9369 30.8506 27.9369 30.7302 27.9971C30.5496 27.9971 30.3689 28.0573 30.1883 28.0573C30.0678 28.0573 29.9474 28.1778 29.9474 28.2982C29.9474 28.4186 30.0678 28.5993 30.1883 28.5391C30.4893 28.4788 30.8506 28.4788 31.1517 28.4186C31.513 28.3584 31.8743 28.1778 32.1152 27.8767C32.2356 27.696 32.3561 27.5154 32.4163 27.3347C32.4765 27.1541 32.5969 26.9734 32.6572 26.7928C32.7174 26.6723 32.7174 26.4917 32.5367 26.4315C32.5367 26.4315 32.3561 26.4315 32.2959 26.5519Z" fill="white"/>
<path d="M29.2849 28.1174C29.2247 28.1174 29.2247 28.1174 29.1645 28.1174C29.1043 28.1174 29.1043 28.1174 29.1043 28.1776L29.0441 28.2379C29.0441 28.2981 29.0441 28.2981 29.0441 28.3583V28.4185C29.0441 28.4787 29.1043 28.4787 29.1043 28.5389C29.1043 28.5389 29.1645 28.539 29.1645 28.5992C29.2247 28.5992 29.2247 28.6594 29.2849 28.6594C29.3452 28.6594 29.3452 28.6594 29.4054 28.6594C29.4656 28.6594 29.4656 28.6594 29.4656 28.5992L29.5258 28.5389C29.5258 28.4787 29.5258 28.4787 29.5258 28.4185V28.3583C29.5258 28.2981 29.4656 28.2981 29.4656 28.2379C29.4656 28.2379 29.4054 28.2379 29.4054 28.1776C29.3452 28.1174 29.3452 28.1174 29.2849 28.1174Z" fill="white"/>
</g>
<defs>
<clipPath id="clip0_1_11536">
<rect y="3.05176e-05" width="56" height="56" rx="28" fill="white"/>
</clipPath>
</defs>
</svg>
