<svg width="56" height="56" viewBox="0 0 56 56" fill="none" xmlns="http://www.w3.org/2000/svg">
<g clip-path="url(#clip0_1_11593)">
<rect y="3.05176e-05" width="56" height="56" rx="28" fill="white"/>
<path d="M27.9001 56C43.4193 56 56.0001 43.4192 56.0001 27.9C56.0001 12.3808 43.4193 -0.199982 27.9001 -0.199982C12.3809 -0.199982 -0.199951 12.3808 -0.199951 27.9C-0.199951 43.4192 12.3809 56 27.9001 56Z" fill="#DAEAF8"/>
<path d="M31.5372 48.7844C31.5372 49.4884 30.4813 49.4884 30.4813 48.7844C30.4813 48.3738 30.4813 48.0218 30.4813 47.6111H24.6735C24.6735 48.0218 24.6735 48.3738 24.6735 48.7844C24.6735 49.4884 23.6176 49.4884 23.6176 48.7844C23.6176 48.3738 23.6176 48.0218 23.6176 47.6111H22.679V50.5443C22.679 50.8963 23.0309 51.131 23.3829 51.0136L27.0201 49.3711C27.3721 49.1951 27.7827 49.1951 28.1934 49.3711L31.8305 51.0136C32.1238 51.131 32.5345 50.8963 32.5345 50.5443V47.6111H31.5959C31.5372 48.0218 31.5372 48.4324 31.5372 48.7844Z" fill="#1B68FF"/>
<path d="M16.3433 38.8113C15.698 40.3366 14.994 41.9205 14.3487 43.4458C14.2314 43.7391 13.8207 43.7978 13.5861 43.6218C13.2928 43.4458 13.2928 43.1525 13.4101 42.8592C13.5274 42.5072 13.7034 42.2139 13.8207 41.8619C14.3487 40.6299 14.8767 39.398 15.4047 38.1074C15.1113 37.8727 14.818 37.6381 14.466 37.4034L11.4742 44.6191C11.2982 45.0297 11.6502 45.4404 12.0608 45.3817L15.7567 44.8537C16.3433 44.7951 16.9299 44.9711 17.3406 45.3817L19.9805 47.9043C20.2738 48.1389 20.6844 48.0802 20.8604 47.7283L21.9164 45.323V41.3926C19.8631 40.8059 18.0445 39.926 16.3433 38.8113Z" fill="#1B68FF"/>
<path d="M43.6806 44.6191L40.6301 37.4034C40.2781 37.6967 39.9848 37.9314 39.6328 38.2247C40.2781 39.75 40.9821 41.3339 41.6274 42.8592C41.7447 43.1525 41.686 43.4458 41.4514 43.6218C41.2167 43.7391 40.8061 43.6804 40.6888 43.4458C40.5714 43.0938 40.3954 42.8005 40.2781 42.4485C39.7501 41.2752 39.2808 40.102 38.7528 38.9287C37.3449 39.926 35.8196 40.6886 34.1184 41.1579C33.8837 41.2166 33.6491 41.3339 33.4144 41.3926V45.9097L34.0011 47.3176C34.1184 47.6696 34.529 47.7283 34.8224 47.5523L37.5796 45.323C37.9902 45.0297 38.5182 44.8537 38.9875 44.9124L43.1526 45.4404C43.5633 45.4404 43.8566 45.0297 43.6806 44.6191Z" fill="#1B68FF"/>
<path d="M34.0597 41.0995C35.7609 40.6302 37.2862 39.8675 38.6941 38.8702V38.8116C37.2862 39.8089 35.7023 40.5715 34.0597 41.0995Z" fill="#0058E5"/>
<path d="M13.8208 41.862C13.7034 42.214 13.5274 42.5073 13.4101 42.8593C13.2928 43.1526 13.3514 43.446 13.5861 43.6219C13.8207 43.7393 14.2314 43.6806 14.3487 43.4459C14.994 41.9207 15.698 40.3368 16.3433 38.8115C16.05 38.5768 15.7567 38.4009 15.4047 38.1662C14.8767 39.3981 14.3487 40.6301 13.8208 41.862Z" fill="#5F9CFF"/>
<path d="M38.6942 38.9289C39.2222 40.1022 39.6915 41.2755 40.2195 42.4487C40.3368 42.8007 40.5128 43.094 40.6301 43.446C40.7474 43.7394 41.1581 43.798 41.3928 43.622C41.6861 43.446 41.6861 43.1527 41.5687 42.8594C40.9234 41.3341 40.2195 39.7502 39.5742 38.2249C39.5155 38.2836 39.4568 38.3423 39.3982 38.3423C39.1635 38.5183 38.9289 38.7529 38.6942 38.9289Z" fill="#5F9CFF"/>
<path d="M38.6942 38.8701C38.9875 38.7527 39.1635 38.5768 39.3982 38.3421C39.1635 38.5181 38.9289 38.6941 38.6942 38.8701Z" fill="#1B68FF"/>
<path d="M16.6366 38.1075C16.5193 38.3421 16.4606 38.5768 16.3433 38.8114C18.0445 39.9261 19.8631 40.806 21.8577 41.3927V40.982C19.9218 40.3954 18.1618 39.3981 16.6366 38.1075Z" fill="#0058E5"/>
<path d="M15.8153 37.2862C15.5219 36.9929 15.2286 36.6995 14.994 36.3476L14.5247 37.4035C14.818 37.6382 15.1113 37.8728 15.4633 38.1075C15.5806 37.8728 15.6979 37.5795 15.8153 37.2862Z" fill="#0058E5"/>
<path d="M33.3558 41.3341C33.5905 41.2754 33.8251 41.2167 34.0598 41.0994C33.8251 41.1581 33.5905 41.2167 33.3558 41.3341Z" fill="#0058E5"/>
<path d="M39.5742 38.2249C39.9262 37.9902 40.2782 37.6969 40.5715 37.4036L40.5128 37.2863C40.2782 37.6382 39.9262 37.9316 39.5742 38.2249Z" fill="#0058E5"/>
<path d="M16.8713 34.8224C16.9886 34.529 17.3993 34.4704 17.6339 34.6464C17.9272 34.8224 17.9272 35.1157 17.8099 35.409C17.6926 35.761 17.5166 36.0543 17.3993 36.4063C17.1646 36.9929 16.9299 37.5796 16.6366 38.1075C18.1619 39.3982 19.9218 40.3954 21.8577 41.0407V36.289L20.4498 36.113C21.2124 35.8197 16.5193 32.5931 16.5193 32.5931L14.8767 36.4063C15.17 36.6996 15.4047 37.0516 15.698 37.3449C16.1673 36.465 16.5193 35.6437 16.8713 34.8224Z" fill="#0058E5"/>
<path d="M34.0598 41.0994C35.7023 40.5127 37.2276 39.7501 38.6942 38.8115C38.1662 37.6382 37.6969 36.4649 37.1689 35.3503C37.0516 35.057 37.1103 34.7637 37.3449 34.5877C37.5796 34.4703 37.9902 34.529 38.1076 34.7636C38.2249 35.1156 38.4009 35.409 38.5182 35.7609C38.8702 36.5822 39.2222 37.3449 39.5742 38.1662C39.9261 37.8728 40.2195 37.5795 40.5714 37.2862L38.5182 32.5344C38.5182 32.5344 35.2917 35.9956 36.113 36.3476L33.2971 36.4649V41.2753C33.5904 41.2167 33.8251 41.158 34.0598 41.0994Z" fill="#0058E5"/>
<path d="M15.8154 37.2863C15.698 37.5796 15.5807 37.8729 15.4634 38.1076C15.7567 38.3422 16.05 38.5769 16.402 38.7529C16.5193 38.5182 16.578 38.2835 16.6953 38.0489C16.3433 37.8142 16.05 37.5796 15.8154 37.2863Z" fill="#1B68FF"/>
<path d="M17.3992 36.3475C17.5166 35.9955 17.6926 35.7022 17.8099 35.3502C17.9272 35.0569 17.8685 34.7636 17.6339 34.5876C17.3992 34.4703 16.9886 34.5289 16.8713 34.7636C16.5193 35.5849 16.1673 36.4062 15.8153 37.2275C16.1086 37.5208 16.4019 37.7554 16.6953 38.0488C16.8713 37.5208 17.1646 36.9342 17.3992 36.3475Z" fill="#1B68FF"/>
<path d="M39.3982 38.3423C39.4569 38.2836 39.5155 38.2249 39.5742 38.2249C39.5155 38.2836 39.4569 38.2836 39.3982 38.3423Z" fill="#0058E5"/>
<path d="M39.5741 38.2248C39.2221 37.4035 38.8701 36.6408 38.5181 35.8195C38.4008 35.4676 38.2248 35.1742 38.1075 34.8223C37.9902 34.5289 37.5795 34.4703 37.3449 34.6463C37.0516 34.8223 37.0516 35.1156 37.1689 35.4089C37.6969 36.5822 38.1662 37.7555 38.6941 38.8701C38.9288 38.6941 39.1635 38.5181 39.3981 38.3421C39.4568 38.2834 39.5154 38.2834 39.5741 38.2248Z" fill="#1B68FF"/>
<path d="M32.4172 33.0036H22.679V35.2329H32.4172V33.0036Z" fill="#0058E5"/>
<path d="M33.3557 36.5237V35.2917H32.4171V36.5237H33.3557Z" fill="#0058E5"/>
<path d="M22.679 35.2917H21.8577V36.2304L22.679 36.3477V35.2917Z" fill="#0058E5"/>
<path d="M30.4812 41.9794C29.5426 42.0967 28.5453 42.214 27.6067 42.214C26.6094 42.214 25.6708 42.1554 24.7322 41.9794C24.7322 43.8566 24.7322 45.7925 24.7322 47.6698H30.5399C30.5399 47.5524 30.5399 47.3764 30.5399 47.2591C30.4812 45.4992 30.4812 43.7393 30.4812 41.9794Z" fill="#1B68FF"/>
<path d="M23.6176 47.2005C23.6176 45.3819 23.6176 43.5634 23.6176 41.7448C23.5589 41.7448 23.5003 41.7448 23.4416 41.7448L22.679 43.446V47.6112H23.6176C23.6176 47.4938 23.6176 47.3765 23.6176 47.2005Z" fill="#1B68FF"/>
<path d="M31.5372 41.8032C31.5372 43.7391 31.5372 45.7337 31.5372 47.6696H32.4759V43.6804L31.7132 41.8032C31.5959 41.8032 31.5372 41.8032 31.5372 41.8032Z" fill="#1B68FF"/>
<path d="M21.8577 41.3927V45.3232L22.679 43.5046V41.6274C22.4443 41.5101 22.151 41.4514 21.8577 41.3927Z" fill="#0058E5"/>
<path d="M22.679 41.5686V43.4458L23.4416 41.7446C23.2069 41.6859 22.9723 41.6859 22.679 41.5686Z" fill="#1B68FF"/>
<path d="M32.4171 41.5687V43.6219L33.3557 45.8511V41.334C33.0624 41.4513 32.7691 41.51 32.4171 41.5687Z" fill="#0058E5"/>
<path d="M31.6545 41.7446L32.4172 43.6218V41.5686C32.1825 41.6859 31.8892 41.6859 31.6545 41.7446Z" fill="#1B68FF"/>
<path d="M21.8577 40.982V41.3926C22.151 41.4513 22.3856 41.5686 22.679 41.6273V41.2753C22.3856 41.158 22.151 41.0993 21.8577 40.982Z" fill="#004DBC"/>
<path d="M32.4171 41.4513V41.5686C32.7104 41.51 33.0624 41.3926 33.3557 41.334V41.2753C33.0624 41.3926 32.7691 41.4513 32.4171 41.4513Z" fill="#004DBC"/>
<path d="M22.679 41.2166V36.3475L21.8577 36.2301V40.9819C22.151 41.0992 22.3856 41.1579 22.679 41.2166Z" fill="#004DBC"/>
<path d="M32.4171 41.4515C32.7104 41.3928 33.0624 41.3341 33.3557 41.2755V36.465L32.4171 36.5237V41.4515Z" fill="#004DBC"/>
<path d="M31.5372 41.4514C31.5372 41.5688 31.5372 41.6861 31.5372 41.8034C31.5959 41.8034 31.6546 41.8034 31.6546 41.8034L31.5959 41.6274L31.5372 41.4514Z" fill="#0058E5"/>
<path d="M23.4417 41.7447C23.5003 41.7447 23.559 41.7447 23.6176 41.7447C23.6176 41.6274 23.6176 41.5101 23.6176 41.3927L23.4417 41.7447Z" fill="#0058E5"/>
<path d="M23.6176 36.465C23.6176 36.3476 23.6176 36.1717 23.6176 36.0543C23.6176 35.3504 24.6735 35.3504 24.6735 36.0543C24.6735 36.2303 24.6735 36.4063 24.6735 36.5823L25.6121 36.6996L24.6735 38.9289C24.6735 39.9848 24.6735 40.9821 24.6735 42.038C25.6122 42.1554 26.6094 42.2727 27.5481 42.2727C28.5453 42.2727 29.484 42.214 30.4226 42.038C30.4226 40.9821 30.4226 39.9848 30.4226 38.9289L29.484 36.6996L30.4226 36.641C30.4226 36.465 30.4226 36.2303 30.4226 36.0543C30.4226 35.3504 31.4785 35.3504 31.4785 36.0543C31.4785 36.2303 31.4785 36.4063 31.4785 36.5823L32.4172 36.5236V35.233H22.679V36.289L23.6176 36.465Z" fill="#0058E5"/>
<path d="M23.6176 41.3925C23.3243 41.3339 22.9723 41.2752 22.679 41.2166V41.5685C22.9136 41.6272 23.2069 41.6859 23.4416 41.7445L23.6176 41.3925C23.6176 41.4512 23.6176 41.4512 23.6176 41.3925Z" fill="#0058E5"/>
<path d="M31.5959 41.5688L31.6546 41.7448C31.8893 41.6861 32.1826 41.6274 32.4172 41.5688V41.4514C32.1826 41.5101 31.8893 41.5688 31.5959 41.5688Z" fill="#0058E5"/>
<path d="M23.6176 36.4649L22.679 36.3476V41.2167C22.9723 41.2753 23.2656 41.334 23.6176 41.3927C23.6176 39.7501 23.6176 38.1075 23.6176 36.4649Z" fill="#0058E5"/>
<path d="M24.6736 38.87L25.6122 36.6408L24.6736 36.5235C24.6736 36.8755 24.6736 37.2274 24.6736 37.5794C24.6736 38.0487 24.6736 38.4594 24.6736 38.87Z" fill="#0058E5"/>
<path d="M29.5426 36.6408L30.4812 38.8701C30.4812 38.1074 30.4812 37.3448 30.4812 36.5822L29.5426 36.6408Z" fill="#0058E5"/>
<path d="M31.5372 41.4513L31.5959 41.6273C31.8892 41.6273 32.1825 41.5686 32.4759 41.5099V36.5822L31.5372 36.6408C31.5372 36.9928 31.5372 37.3448 31.5372 37.6968C31.5372 38.8701 31.5372 40.1607 31.5372 41.4513Z" fill="#0058E5"/>
<path d="M23.6176 48.7844C23.6176 49.4884 24.6735 49.4884 24.6735 48.7844C24.6735 48.3738 24.6735 48.0218 24.6735 47.6111H23.6176C23.6176 48.0218 23.6176 48.4324 23.6176 48.7844Z" fill="#5F9CFF"/>
<path d="M23.6176 41.8032C23.6176 43.6218 23.6176 45.4404 23.6176 47.2589C23.6176 47.3763 23.6176 47.5523 23.6176 47.6696H24.6735C24.6735 45.7923 24.6735 43.8564 24.6735 41.9792C24.3215 41.9205 23.9695 41.8619 23.6176 41.8032Z" fill="#5F9CFF"/>
<path d="M24.6735 38.87L23.6176 41.3925C23.6176 41.5099 23.6176 41.6272 23.6176 41.7445C23.9695 41.8032 24.3215 41.8619 24.6735 41.9205C24.6735 40.9232 24.6735 39.9259 24.6735 38.87Z" fill="#1B68FF"/>
<path d="M24.6735 36.0543C24.6735 35.3503 23.6176 35.3503 23.6176 36.0543C23.6176 36.1716 23.6176 36.3476 23.6176 36.465L24.6735 36.5823C24.6735 36.4063 24.6735 36.2303 24.6735 36.0543Z" fill="#1B68FF"/>
<path d="M23.6176 41.4512L24.6735 38.9287C24.6735 38.518 24.6735 38.1074 24.6735 37.6967C24.6735 37.3448 24.6735 36.9928 24.6735 36.6408L23.6176 36.5235C23.6176 38.1074 23.6176 39.75 23.6176 41.4512C23.6176 41.3926 23.6176 41.3926 23.6176 41.4512Z" fill="#1B68FF"/>
<path d="M30.4813 48.7844C30.4813 49.4884 31.5373 49.4884 31.5373 48.7844C31.5373 48.3738 31.5373 48.0218 31.5373 47.6111H30.4813C30.4813 48.0218 30.4813 48.4324 30.4813 48.7844Z" fill="#5F9CFF"/>
<path d="M30.4813 47.2005C30.4813 47.3178 30.4813 47.4938 30.4813 47.6112H31.5373C31.5373 45.6753 31.5373 43.6807 31.5373 41.7448C31.1853 41.8034 30.8333 41.8621 30.4813 41.9208C30.4813 43.7394 30.4813 45.4993 30.4813 47.2005Z" fill="#5F9CFF"/>
<path d="M31.5373 36.0543C31.5373 35.3503 30.4813 35.3503 30.4813 36.0543C30.4813 36.2303 30.4813 36.465 30.4813 36.641L31.5373 36.5823C31.5373 36.4063 31.5373 36.2303 31.5373 36.0543Z" fill="#1B68FF"/>
<path d="M30.4813 38.87C30.4813 39.9259 30.4813 40.9232 30.4813 41.9792C30.8333 41.9205 31.1853 41.8619 31.5373 41.8032C31.5373 41.6859 31.5373 41.5685 31.5373 41.4512L30.4813 38.87Z" fill="#1B68FF"/>
<path d="M31.5373 37.6381C31.5373 37.2861 31.5373 36.9342 31.5373 36.5822L30.4813 36.6408C30.4813 37.4035 30.4813 38.1661 30.4813 38.9287L31.5373 41.4513C31.5373 40.1607 31.5373 38.8701 31.5373 37.6381Z" fill="#1B68FF"/>
<path d="M26.9027 36.0541L29.3666 30.0703C28.4867 29.6597 27.548 29.3664 26.6681 29.0731C25.9055 29.3077 25.1428 29.5424 24.3215 29.8357L26.9027 36.0541Z" fill="#0058E5"/>
<path d="M27.5481 38.4593C36.2311 38.4593 43.27 31.4204 43.27 22.7374C43.27 14.0544 36.2311 7.01547 27.5481 7.01547C18.8651 7.01547 11.8262 14.0544 11.8262 22.7374C11.8262 31.4204 18.8651 38.4593 27.5481 38.4593Z" fill="#FFBF1F"/>
<path d="M13.1755 23.5C12.8822 23.5 12.6475 23.2653 12.6475 22.972C12.5888 21.1534 12.8822 19.3349 13.4688 17.6336C14.2901 15.4044 15.522 13.5271 17.2233 11.9432L17.282 11.8845C17.3406 11.8845 17.3406 11.8259 17.3993 11.8259C17.7513 11.4739 18.1032 11.1806 18.4552 10.9459C18.5726 10.8286 18.6899 10.7699 18.8072 10.6526C19.1592 10.4179 19.5698 10.1246 20.0978 9.83131C20.1565 9.77264 20.2738 9.71398 20.3911 9.71398C20.5671 9.59665 20.7431 9.53799 20.9778 9.42066C21.2711 9.30333 21.5644 9.42066 21.6817 9.71398C21.7991 10.0073 21.6817 10.3006 21.3884 10.4179C21.2124 10.4766 21.0951 10.5939 20.9191 10.6526C20.8018 10.7113 20.7431 10.7699 20.6258 10.8286C20.1565 11.0633 19.8045 11.2979 19.4525 11.5326C19.3352 11.6499 19.2179 11.7086 19.0419 11.8259C18.6899 12.0605 18.3966 12.2952 18.1032 12.5885C18.0446 12.6472 17.9273 12.7058 17.8686 12.7645C16.3433 14.2311 15.1701 15.991 14.4074 18.0443C13.8208 19.6282 13.5861 21.3294 13.6448 23.0307C13.7035 23.2653 13.4688 23.5 13.1755 23.5Z" fill="white"/>
<path d="M27.548 35.2327C34.449 35.2327 40.0434 29.6383 40.0434 22.7373C40.0434 15.8363 34.449 10.2419 27.548 10.2419C20.647 10.2419 15.0526 15.8363 15.0526 22.7373C15.0526 29.6383 20.647 35.2327 27.548 35.2327Z" fill="#FFD31D"/>
<path opacity="0.5" d="M36.113 13.5857C38.1662 15.815 39.3982 18.7481 39.3982 22.0333C39.3982 28.9557 33.7664 34.5287 26.9027 34.5287C23.6176 34.5287 20.6257 33.2381 18.3965 31.1849C20.6844 33.7074 23.9696 35.2914 27.6654 35.2914C34.5877 35.2914 40.1608 29.6596 40.1608 22.796C40.1021 19.1588 38.5182 15.8736 36.113 13.5857Z" fill="#FFEFAB"/>
<path d="M15.8739 23.9693C15.8739 17.0469 21.5056 11.4739 28.3693 11.4739C32.4171 11.4739 35.9956 13.4098 38.2835 16.343C36.1129 12.6471 32.1238 10.2419 27.548 10.2419C20.6257 10.2419 15.0526 15.8736 15.0526 22.7373C15.0526 25.6118 15.9912 28.2517 17.6338 30.3636C16.5192 28.4864 15.8739 26.3158 15.8739 23.9693Z" fill="#FFAB2E"/>
<path d="M13.8794 25.5531C13.8794 25.2597 13.6448 25.0837 13.4101 25.0837C13.1168 25.0837 12.9408 25.3184 12.9408 25.5531C12.9408 25.8464 13.1755 26.0224 13.4101 26.0224C13.6448 26.081 13.8794 25.8464 13.8794 25.5531Z" fill="white"/>
<path d="M23.2069 21.9745L24.3802 23.617C24.4975 23.793 24.6735 23.8517 24.8495 23.8517L26.9027 23.793C27.372 23.793 27.6653 24.321 27.372 24.7317L26.1987 26.3742C26.0814 26.5502 26.0814 26.7262 26.1401 26.9022L26.7854 28.8381C26.9614 29.3074 26.4921 29.7181 26.0228 29.6008L24.0869 28.9555C23.9109 28.8968 23.6762 28.9555 23.5589 29.0728L21.9163 30.3047C21.5056 30.598 20.9777 30.3047 20.9777 29.8354V27.7822C20.9777 27.6062 20.8603 27.4302 20.743 27.3129L19.1004 26.1396C18.6898 25.8463 18.8071 25.2596 19.2764 25.0836L21.2123 24.4383C21.3883 24.3797 21.5643 24.2037 21.623 24.0277L22.2096 22.0918C22.3269 21.6811 22.9136 21.5638 23.2069 21.9745Z" fill="#FFAB2E"/>
<path d="M22.6203 21.7399L23.7936 23.3825C23.9109 23.5585 24.0869 23.6172 24.2629 23.6172L26.3161 23.5585C26.7854 23.5585 27.0787 24.0865 26.7854 24.4971L25.6122 26.1397C25.5535 26.3157 25.4948 26.4917 25.5535 26.7263L26.1988 28.6623C26.3748 29.1316 25.9055 29.5422 25.4362 29.4249L23.5003 28.7796C23.3243 28.7209 23.0896 28.7796 22.9723 28.8969L21.3297 30.1289C20.919 30.4222 20.3911 30.1289 20.3911 29.6595V27.6063C20.3911 27.4303 20.2737 27.2543 20.1564 27.137L18.4552 25.9637C18.0445 25.6704 18.1618 25.0838 18.6311 24.9078L20.5671 24.2625C20.743 24.2038 20.919 24.0278 20.9777 23.8518L21.5643 21.9159C21.7403 21.4466 22.327 21.3293 22.6203 21.7399Z" fill="#FFF64A"/>
<path d="M21.623 23.0302C21.5643 23.2062 21.5643 23.3236 21.5056 23.4996C21.447 23.6756 21.447 23.8515 21.3883 24.0275C21.271 24.3209 21.0363 24.5555 20.8017 24.6142C20.6843 24.6728 20.5084 24.7315 20.3324 24.7315C20.1564 24.7902 19.9804 24.8488 19.8044 24.9075C19.6871 24.9662 19.5697 25.0835 19.6284 25.2008C19.6871 25.3181 19.8044 25.4355 19.9217 25.3768C20.215 25.2595 20.567 25.2008 20.8603 25.0835C21.2123 24.9662 21.5643 24.7315 21.7403 24.3795C21.8576 24.2035 21.9163 23.9689 21.975 23.7342C22.0336 23.5582 22.0923 23.3236 22.0923 23.1476C22.1509 23.0302 22.0336 22.8543 21.9163 22.8543C21.8576 22.7956 21.6816 22.9129 21.623 23.0302Z" fill="white"/>
<path d="M18.9245 25.1422C18.8658 25.1422 18.8658 25.1422 18.8071 25.2009L18.7485 25.2596C18.7485 25.3182 18.7485 25.3182 18.6898 25.3769C18.6898 25.4356 18.6898 25.4356 18.6898 25.4942V25.5529C18.6898 25.6116 18.7485 25.6116 18.8071 25.6702H18.8658C18.9245 25.6702 18.9831 25.6702 18.9831 25.6702C19.0418 25.6702 19.0418 25.6702 19.1005 25.6116L19.1591 25.5529C19.1591 25.4942 19.1591 25.4942 19.2178 25.4356C19.2178 25.3769 19.2178 25.3769 19.2178 25.3182V25.2596C19.2178 25.2009 19.1591 25.2009 19.1005 25.1422H19.0418C19.0418 25.1422 18.9831 25.1422 18.9245 25.1422Z" fill="white"/>
<path d="M33.8251 22.3264L34.4118 24.2623C34.4705 24.4383 34.5878 24.6143 34.7638 24.673L36.6997 25.3183C37.169 25.4943 37.2277 26.0809 36.817 26.3742L35.1158 27.4889C34.9398 27.6062 34.8811 27.7822 34.8811 27.9582V30.0114C34.8811 30.4807 34.2945 30.774 33.9425 30.4807L32.3586 29.2488C32.1826 29.1314 32.0066 29.0728 31.8306 29.1314L29.8947 29.7767C29.4254 29.9527 29.0147 29.4834 29.1907 29.0141L29.8947 27.0782C29.9533 26.9022 29.9533 26.6676 29.836 26.5502L28.6627 24.9076C28.3694 24.497 28.6627 23.969 29.132 23.969L31.1853 24.0277C31.3613 24.0277 31.5373 23.969 31.6546 23.793L32.8865 22.1504C33.0625 21.7398 33.6492 21.8571 33.8251 22.3264Z" fill="#FFAB2E"/>
<path d="M33.3558 21.9159L33.9424 23.8518C34.0011 24.0278 34.1184 24.2038 34.2944 24.2625L36.2303 24.9078C36.6996 25.0838 36.7583 25.6704 36.3476 25.9637L34.6464 27.0783C34.4704 27.1957 34.4117 27.3717 34.4117 27.5476V29.6009C34.4117 30.0702 33.8251 30.3635 33.4731 30.0702L31.8892 28.8382C31.7132 28.7209 31.5372 28.6623 31.3612 28.7209L29.4253 29.3662C28.956 29.5422 28.5454 29.0729 28.7213 28.6036L29.4253 26.6677C29.484 26.4917 29.484 26.257 29.3666 26.1397L28.1934 24.4971C27.9 24.0865 28.1934 23.5585 28.6627 23.5585L30.7159 23.6172C30.8919 23.6172 31.0679 23.5585 31.1852 23.3825L32.4172 21.7399C32.5932 21.3293 33.2385 21.4466 33.3558 21.9159Z" fill="#FFF64A"/>
<path d="M31.9479 22.7955C31.772 23.0889 31.596 23.3822 31.42 23.6168C31.244 23.8515 30.9507 23.9688 30.5987 23.9688C30.4227 23.9688 30.3054 23.9688 30.1294 23.9688C29.9534 23.9688 29.7774 23.9688 29.6014 23.9688C29.2494 23.9688 29.2494 24.4968 29.6014 24.4968C29.9534 24.4968 30.2467 24.4968 30.5987 24.4968C31.0093 24.4968 31.3613 24.3795 31.6546 24.0861C31.8306 23.9101 31.9479 23.7342 32.0653 23.5582C32.1826 23.3822 32.2999 23.2062 32.4173 23.0302C32.5932 22.7955 32.1826 22.5022 31.9479 22.7955Z" fill="white"/>
<path d="M28.7801 23.8515C28.7214 23.8515 28.7214 23.8515 28.6628 23.8515C28.6041 23.8515 28.6041 23.8515 28.5454 23.9102C28.4868 23.9102 28.4868 23.9688 28.4868 23.9688C28.4868 23.9688 28.4281 24.0275 28.4281 24.0862V24.1448C28.4281 24.2035 28.4281 24.2622 28.4868 24.2622C28.4868 24.2622 28.4868 24.3208 28.5454 24.3208C28.6041 24.3795 28.6041 24.3795 28.6628 24.3795C28.7214 24.3795 28.7214 24.3795 28.7801 24.3795C28.8387 24.3795 28.8387 24.3795 28.8974 24.3208C28.9561 24.3208 28.9561 24.2622 28.9561 24.2622C28.9561 24.2622 29.0147 24.2035 29.0147 24.1448V24.0862C29.0147 24.0275 29.0147 23.9688 28.9561 23.9688C28.9561 23.9688 28.9561 23.9102 28.8974 23.9102C28.8387 23.9102 28.8387 23.8515 28.7801 23.8515Z" fill="white"/>
<path d="M28.6039 14.4069L29.4839 16.2255C29.5425 16.4015 29.7185 16.5188 29.9532 16.5774L31.9478 16.8708C32.4171 16.9294 32.5931 17.5161 32.2411 17.8681L30.7745 19.276C30.6571 19.3933 30.5985 19.628 30.5985 19.804L30.9505 21.7985C31.0091 22.2678 30.5398 22.6198 30.0705 22.3852L28.2519 21.4466C28.0759 21.3292 27.8999 21.3292 27.724 21.4466L25.9054 22.3852C25.4947 22.6198 24.9668 22.2678 25.0841 21.7399L25.4361 19.7453C25.4947 19.5693 25.4361 19.3347 25.2601 19.2173L23.7935 17.8094C23.4415 17.4574 23.6175 16.8708 24.1455 16.8121L26.14 16.5188C26.316 16.5188 26.492 16.4015 26.6093 16.2255L27.548 14.4069C27.7826 13.9376 28.3693 13.9376 28.6039 14.4069Z" fill="#FFAB2E"/>
<path d="M28.076 14.0551L28.956 15.8737C29.0146 16.0497 29.1906 16.167 29.4253 16.2257L31.4199 16.519C31.8892 16.5777 32.0652 17.1643 31.7132 17.5163L30.2466 18.9242C30.1292 19.0416 30.0706 19.2762 30.0706 19.4522L30.4226 21.4468C30.4812 21.9161 30.0119 22.2681 29.5426 22.0334L27.724 21.0948C27.548 20.9775 27.372 20.9775 27.1961 21.0948L25.4361 22.0334C25.0255 22.2681 24.4975 21.9161 24.6148 21.3881L24.9668 19.3936C25.0255 19.2176 24.9668 18.9829 24.7908 18.8656L23.3242 17.4576C22.9723 17.1057 23.1482 16.519 23.6762 16.4604L25.6708 16.167C25.8468 16.167 26.0228 16.0497 26.1401 15.8737L27.0787 14.0551C27.2547 13.5858 27.9 13.6445 28.076 14.0551Z" fill="#FFF64A"/>
<path d="M26.9027 15.1696C26.844 15.3456 26.7854 15.4629 26.7267 15.6389C26.668 15.8149 26.6094 15.9909 26.492 16.1082C26.316 16.4015 26.0814 16.5775 25.7294 16.5775C25.5534 16.5775 25.4361 16.6362 25.2601 16.6362C25.0841 16.6362 24.9081 16.6948 24.7321 16.6948C24.6148 16.6948 24.4975 16.8708 24.5561 16.9882C24.6148 17.1642 24.7321 17.1642 24.8495 17.1642C25.2014 17.1055 25.4948 17.0468 25.8467 17.0468C26.1987 16.9882 26.5507 16.8122 26.7854 16.5189C26.9027 16.3429 27.02 16.1669 27.0787 15.9322C27.1373 15.7562 27.2547 15.5802 27.3133 15.3456C27.372 15.2282 27.372 15.0523 27.196 14.9936C27.1373 14.9936 26.9614 14.9936 26.9027 15.1696Z" fill="white"/>
<path d="M23.9108 16.7535C23.8521 16.7535 23.8521 16.7535 23.7935 16.7535C23.7348 16.7535 23.7348 16.7535 23.7348 16.8122L23.6761 16.8708C23.6761 16.9295 23.6761 16.9295 23.6761 16.9882V17.0468C23.6761 17.1055 23.7348 17.1055 23.7348 17.1642C23.7348 17.1642 23.7935 17.1642 23.7935 17.2228C23.8521 17.2228 23.8521 17.2815 23.9108 17.2815C23.9695 17.2815 23.9695 17.2815 24.0281 17.2815C24.0868 17.2815 24.0868 17.2815 24.0868 17.2228L24.1455 17.1642C24.1455 17.1055 24.1455 17.1055 24.1455 17.0468V16.9882C24.1455 16.9295 24.0868 16.9295 24.0868 16.8708C24.0868 16.8708 24.0281 16.8708 24.0281 16.8122C23.9695 16.7535 23.9695 16.7535 23.9108 16.7535Z" fill="white"/>
</g>
<defs>
<clipPath id="clip0_1_11593">
<rect y="3.05176e-05" width="56" height="56" rx="28" fill="white"/>
</clipPath>
</defs>
</svg>
