<svg width="56" height="56" viewBox="0 0 56 56" fill="none" xmlns="http://www.w3.org/2000/svg">
<rect y="3.05176e-05" width="56" height="56" rx="28" fill="white"/>
<path d="M28.35 43.9921C38.5651 43.9921 46.8461 35.7111 46.8461 25.496C46.8461 15.281 38.5651 7 28.35 7C18.135 7 9.854 15.281 9.854 25.496C9.854 35.7111 18.135 43.9921 28.35 43.9921Z" fill="#DAEAF8"/>
<path d="M11.6302 30.3614L9.08167 31.8287L9.69949 33.3347C10.7034 32.7554 11.7074 32.1376 12.7114 31.5584C12.3252 31.2109 11.9777 30.7861 11.6302 30.3614Z" fill="#0058E5"/>
<path d="M13.2134 32.1377L13.1748 32.1763C12.8272 32.408 12.4411 32.6011 12.0936 32.8327C11.3985 33.2575 10.7035 33.6436 10.0084 34.0684L12.0936 39.1268C13.6767 38.2387 15.2599 37.3506 16.8817 36.4625C17.2678 36.2308 17.654 36.8486 17.2292 37.0803C16.8431 37.2733 16.4956 37.505 16.1094 37.6981C14.8738 38.3931 13.6767 39.0496 12.4411 39.7446C12.9045 40.2852 13.6767 40.5169 14.3718 40.2466L18.9282 38.3545C19.0055 36.8872 15.8777 34.8407 13.2134 32.1377Z" fill="#0058E5"/>
<path d="M12.8273 31.5585C12.7887 31.5971 12.75 31.5971 12.7114 31.6357C12.8659 31.8288 13.059 31.9832 13.2134 32.1763C13.5223 31.906 13.1748 31.3268 12.8273 31.5585Z" fill="#5F9CFF"/>
<path d="M13.1747 32.1764L13.2133 32.1378C13.0589 31.9833 12.8658 31.7902 12.7113 31.5972C11.7074 32.1764 10.7034 32.7942 9.69946 33.3734L9.96976 34.0298C10.6648 33.6051 11.3599 33.219 12.0549 32.7942C12.441 32.6011 12.7886 32.3694 13.1747 32.1764Z" fill="#2C82FF"/>
<path d="M9.96985 34.068L9.854 33.7205L9.96985 34.068Z" fill="#5F9CFF"/>
<path d="M9.96975 34.0681C8.27074 35.0721 6.57173 36.076 4.83411 37.08L6.80341 38.1612C7.34401 38.4701 7.73015 39.0107 7.84599 39.6285L8.11629 41.3275C8.4252 41.1345 8.73411 40.98 9.08163 40.7869C10.0856 40.2463 11.0896 39.6671 12.0549 39.1265L9.96975 34.0681Z" fill="#1B68FF"/>
<path d="M9.69951 33.3733L9.85396 33.7208L9.08169 31.8673L3.2896 35.2267C2.90347 35.4584 2.90347 35.999 3.2896 36.2307L4.13911 36.694C4.48663 36.501 4.83416 36.3079 5.14307 36.0762C6.68763 35.1881 8.19357 34.3 9.69951 33.3733Z" fill="#1B68FF"/>
<path d="M9.85401 33.7205L9.69956 33.373C8.19362 34.2611 6.64906 35.1492 5.14312 36.076C4.7956 36.269 4.44807 36.4621 4.13916 36.6938L4.87282 37.0799C6.57183 36.076 8.27084 35.072 10.0085 34.068L9.85401 33.7205Z" fill="#5F9CFF"/>
<path d="M12.1708 39.3195C12.2094 39.3967 12.248 39.4739 12.2866 39.5511C12.248 39.4739 12.2094 39.3967 12.1708 39.3195Z" fill="#1B68FF"/>
<path d="M14.3717 40.2078C13.6767 40.5167 12.9044 40.285 12.4411 39.7058C11.0896 40.478 9.69947 41.2117 8.34798 41.984C8.30937 41.984 8.30937 42.0226 8.27075 42.0226L8.50243 43.4899C8.57966 43.8761 9.00442 44.1078 9.35194 43.9147L18.2331 39.281C18.6965 39.0107 18.8896 38.7018 18.8896 38.3157L14.3717 40.2078Z" fill="#1B68FF"/>
<path d="M12.1707 39.3195L12.0935 39.165L12.1707 39.3195Z" fill="#5F9CFF"/>
<path d="M12.2866 39.5512C12.3252 39.6284 12.3638 39.6671 12.4025 39.7443C12.3638 39.6671 12.3252 39.5898 12.2866 39.5512Z" fill="#5F9CFF"/>
<path d="M12.4411 39.7058C12.4025 39.6672 12.3639 39.5899 12.3253 39.5127C12.2867 39.4355 12.2481 39.3582 12.2094 39.281L12.1708 39.1652L12.1322 39.088C11.1283 39.6285 10.1243 40.2077 9.15895 40.7483C8.85004 40.9414 8.54113 41.0959 8.1936 41.2889L8.30944 42.0226C8.34806 42.0226 8.34806 42.0226 8.38667 41.984C9.69954 41.2503 11.051 40.478 12.4411 39.7058Z" fill="#5F9CFF"/>
<path d="M17.1906 37.0415C17.5767 36.8098 17.2292 36.192 16.8431 36.4237C15.2599 37.3118 13.6767 38.1999 12.0549 39.088L12.1322 39.2811C12.2094 39.4356 12.2866 39.59 12.4025 39.7058C13.6381 39.0108 14.8351 38.3544 16.0708 37.6593C16.4569 37.4662 16.8431 37.2346 17.1906 37.0415Z" fill="#2C82FF"/>
<path d="M22.4035 33.9138L18.851 25.3801C18.5035 24.5306 17.4995 24.1059 16.65 24.492L10.1243 27.195C9.27476 27.5425 8.85001 28.5465 9.23615 29.396L9.58367 30.2069C9.62229 30.1296 9.6609 30.0524 9.69952 29.9752C9.96981 29.5504 10.3173 29.2415 10.7807 29.0484C13.2906 27.89 15.8391 26.8088 18.3876 25.689C18.8124 25.496 19.0441 26.191 18.6193 26.3455C18.1946 26.5385 17.7698 26.7316 17.3837 26.8861C15.8005 27.5811 14.1787 28.3148 12.5956 29.0098C12.0936 29.2415 11.5916 29.4346 11.0896 29.6663C10.7807 29.8207 10.5104 29.9752 10.356 30.2841C10.0857 30.7088 10.1243 31.1336 10.2015 31.597L12.6728 37.5435C12.7114 37.4277 12.7886 37.3504 12.8272 37.2346C13.0975 36.8098 13.5223 36.5395 13.9857 36.3851C16.5728 35.4197 19.1985 34.493 21.7857 33.5663C22.2104 33.4118 22.4035 34.1069 21.9787 34.2613C21.554 34.4158 21.1292 34.5702 20.7045 34.7247C19.0827 35.3039 17.4223 35.9217 15.8005 36.5009C15.2985 36.694 14.7579 36.8871 14.256 37.0801C13.947 37.196 13.6767 37.3504 13.4837 37.6207C13.2906 37.891 13.2134 38.1613 13.2134 38.4702C13.6767 38.9336 14.4104 39.1267 15.0668 38.8564L21.5926 36.1534C22.3649 35.7286 22.751 34.7633 22.4035 33.9138Z" fill="#1B68FF"/>
<path d="M10.3173 30.2454C10.5104 29.9751 10.7421 29.7821 11.051 29.6276C11.553 29.3959 12.0549 29.1642 12.5569 28.9712C14.1401 28.2761 15.7619 27.5425 17.345 26.8474C17.7698 26.6543 18.1946 26.4613 18.5807 26.3068C19.0054 26.1137 18.7738 25.4573 18.349 25.6504C15.8005 26.7702 13.252 27.8514 10.7421 29.0098C10.2787 29.2029 9.89257 29.5118 9.66089 29.9365C9.62227 30.0137 9.58366 30.091 9.54504 30.1682L10.1243 31.5583C10.0856 31.0949 10.047 30.6702 10.3173 30.2454Z" fill="#5F9CFF"/>
<path d="M14.2173 37.0029C14.7193 36.8098 15.2599 36.6168 15.7619 36.4237C17.3837 35.8445 19.0441 35.2267 20.6658 34.6475C21.0906 34.493 21.5153 34.3385 21.9401 34.1841C22.3649 34.0296 22.1718 33.3346 21.747 33.489C19.1599 34.4158 16.5342 35.3425 13.947 36.3079C13.4837 36.5009 13.0975 36.7712 12.7886 37.1574C12.7114 37.2732 12.6728 37.3504 12.6342 37.4663L12.7886 37.8524C12.8658 38.0455 12.9817 38.2385 13.1361 38.393C13.1361 38.0841 13.2134 37.8138 13.4064 37.5435C13.6381 37.2732 13.9084 37.1187 14.2173 37.0029Z" fill="#5F9CFF"/>
<path d="M45.0698 30.3615L47.6183 31.8288L47.0005 33.3347C45.9966 32.7555 44.9926 32.1377 43.9886 31.5585C44.3748 31.211 44.7223 30.7862 45.0698 30.3615Z" fill="#0058E5"/>
<path d="M43.4866 32.1378L43.5253 32.1764C43.8728 32.4081 44.2589 32.6011 44.6064 32.8328C45.3015 33.2576 45.9965 33.6437 46.6916 34.0685L44.6064 39.1269C43.0233 38.2387 41.4401 37.3506 39.8183 36.4625C39.4322 36.2308 39.046 36.8486 39.4708 37.0803C39.8569 37.2734 40.2045 37.5051 40.5906 37.6982C41.8262 38.3932 43.0233 39.0496 44.2589 39.7447C43.7956 40.2853 43.0233 40.517 42.3282 40.2467L37.7718 38.3546C37.6946 36.8873 40.8223 34.8407 43.4866 32.1378Z" fill="#0058E5"/>
<path d="M43.8728 31.5585C43.9114 31.5971 43.95 31.5971 43.9886 31.6358C43.8342 31.8288 43.6411 31.9833 43.4866 32.1763C43.1777 31.906 43.5253 31.3268 43.8728 31.5585Z" fill="#5F9CFF"/>
<path d="M43.5253 32.1764L43.4867 32.1378C43.6411 31.9834 43.8342 31.7903 43.9887 31.5972C44.9926 32.1764 45.9966 32.7943 47.0006 33.3735L46.7303 34.0299C46.0352 33.6052 45.3402 33.219 44.6451 32.7943C44.259 32.6012 43.9114 32.3695 43.5253 32.1764Z" fill="#2C82FF"/>
<path d="M46.7302 34.0678L46.8461 33.7203L46.7302 34.0678Z" fill="#5F9CFF"/>
<path d="M46.7302 34.0679C48.4292 35.0719 50.1282 36.0759 51.8658 37.0798L49.8965 38.161C49.3559 38.4699 48.9698 39.0105 48.8539 39.6283L48.5836 41.3273C48.2747 41.1343 47.9658 40.9798 47.6183 40.7867C46.6143 40.2462 45.6104 39.6669 44.645 39.1263L46.7302 34.0679Z" fill="#1B68FF"/>
<path d="M47.0005 33.3728L46.8461 33.7203L47.6183 31.8669L53.4104 35.2263C53.7966 35.458 53.7966 35.9986 53.4104 36.2302L52.5609 36.6936C52.2134 36.5005 51.8659 36.3075 51.557 36.0758C50.0124 35.1877 48.5065 34.2996 47.0005 33.3728Z" fill="#1B68FF"/>
<path d="M46.8461 33.7203L47.0006 33.3728C48.5065 34.2609 50.0511 35.149 51.557 36.0758C51.9045 36.2688 52.252 36.4619 52.561 36.6936L51.8273 37.0797C50.1283 36.0758 48.4293 35.0718 46.6917 34.0679L46.8461 33.7203Z" fill="#5F9CFF"/>
<path d="M44.5292 39.3195C44.4906 39.3967 44.4519 39.474 44.4133 39.5512C44.4519 39.474 44.4906 39.3967 44.5292 39.3195Z" fill="#1B68FF"/>
<path d="M42.3282 40.2078C43.0233 40.5167 43.7956 40.285 44.2589 39.7058C45.6104 40.4781 47.0005 41.2118 48.352 41.9841C48.3906 41.9841 48.3906 42.0227 48.4292 42.0227L48.1976 43.49C48.1203 43.8761 47.6956 44.1078 47.3481 43.9147L38.4669 39.2811C38.0035 39.0108 37.8104 38.7019 37.8104 38.3157L42.3282 40.2078Z" fill="#1B68FF"/>
<path d="M44.5293 39.3196L44.6065 39.1651L44.5293 39.3196Z" fill="#5F9CFF"/>
<path d="M44.4133 39.5513C44.3747 39.6285 44.3361 39.6671 44.2975 39.7443C44.3361 39.6671 44.3747 39.5899 44.4133 39.5513Z" fill="#5F9CFF"/>
<path d="M44.2589 39.7058C44.2975 39.6672 44.3361 39.59 44.3748 39.5128C44.4134 39.4355 44.452 39.3583 44.4906 39.2811L44.5292 39.1652L44.5678 39.088C45.5718 39.6286 46.5757 40.2078 47.5411 40.7484C47.85 40.9415 48.1589 41.0959 48.5064 41.289L48.3906 42.0227C48.352 42.0227 48.352 42.0227 48.3134 41.9841C47.0005 41.2504 45.649 40.4781 44.2589 39.7058Z" fill="#5F9CFF"/>
<path d="M39.5094 37.0416C39.1232 36.8099 39.4708 36.192 39.8569 36.4237C41.4401 37.3118 43.0232 38.2 44.645 39.0881L44.5678 39.2812C44.4906 39.4356 44.4133 39.5901 44.2975 39.7059C43.0618 39.0109 41.8648 38.3544 40.6292 37.6594C40.243 37.4663 39.8569 37.2346 39.5094 37.0416Z" fill="#2C82FF"/>
<path d="M34.2965 33.9138L37.849 25.3801C38.1965 24.5306 39.2005 24.1059 40.05 24.492L46.5757 27.195C47.4252 27.5425 47.85 28.5465 47.4638 29.396L47.1163 30.2069C47.0777 30.1296 47.0391 30.0524 47.0005 29.9752C46.7302 29.5504 46.3826 29.2415 45.9193 29.0484C43.4094 27.89 40.8608 26.8088 38.3123 25.689C37.8876 25.496 37.6559 26.191 38.0806 26.3455C38.5054 26.5385 38.9301 26.7316 39.3163 26.8861C40.8995 27.5811 42.5212 28.3148 44.1044 29.0098C44.6064 29.2415 45.1084 29.4346 45.6104 29.6663C45.9193 29.8207 46.1896 29.9752 46.344 30.2841C46.6143 30.7088 46.5757 31.1336 46.4985 31.597L44.0272 37.5435C43.9886 37.4277 43.9113 37.3504 43.8727 37.2346C43.6024 36.8098 43.1777 36.5395 42.7143 36.3851C40.1272 35.4197 37.5014 34.493 34.9143 33.5663C34.4896 33.4118 34.2965 34.1069 34.7212 34.2613C35.146 34.4158 35.5707 34.5702 35.9955 34.7247C37.6173 35.3039 39.2777 35.9217 40.8995 36.5009C41.4014 36.694 41.942 36.8871 42.444 37.0801C42.7529 37.196 43.0232 37.3504 43.2163 37.6207C43.4094 37.891 43.4866 38.1613 43.4866 38.4702C43.0232 38.9336 42.2896 39.1267 41.6331 38.8564L35.1074 36.1534C34.3351 35.7286 33.949 34.7633 34.2965 33.9138Z" fill="#1B68FF"/>
<path d="M46.3826 30.2454C46.1896 29.9751 45.9579 29.7821 45.649 29.6276C45.147 29.3959 44.645 29.1642 44.143 28.9712C42.5599 28.2761 40.9381 27.5425 39.3549 26.8474C38.9302 26.6543 38.5054 26.4613 38.1193 26.3068C37.6945 26.1137 37.9262 25.4573 38.351 25.6504C40.8995 26.7702 43.448 27.8514 45.9579 29.0098C46.4213 29.2029 46.8074 29.5118 47.0391 29.9365C47.0777 30.0137 47.1163 30.091 47.1549 30.1682L46.5757 31.5583C46.6143 31.0949 46.6529 30.6702 46.3826 30.2454Z" fill="#5F9CFF"/>
<path d="M42.4826 37.0029C41.9806 36.8098 41.44 36.6168 40.938 36.4237C39.3162 35.8445 37.6558 35.2267 36.0341 34.6475C35.6093 34.493 35.1846 34.3385 34.7598 34.1841C34.3351 34.0296 34.5281 33.3346 34.9529 33.489C37.54 34.4158 40.1658 35.3425 42.7529 36.3079C43.2162 36.5009 43.6024 36.7712 43.9113 37.1574C43.9885 37.2732 44.0271 37.3504 44.0658 37.4663L43.9113 37.8524C43.8341 38.0455 43.7182 38.2385 43.5638 38.393C43.5638 38.0841 43.4865 37.8138 43.2935 37.5435C43.0618 37.2732 42.7915 37.1187 42.4826 37.0029Z" fill="#5F9CFF"/>
<path d="M44.0251 25.3027C44.0251 24.189 45.8515 22.8972 45.6733 21.8726C45.4506 20.8034 43.2678 20.3134 42.8668 19.3334C42.4659 18.3088 43.6687 16.4378 43.045 15.5469C42.4214 14.6559 40.2386 15.0569 39.4367 14.255C38.6794 13.4977 39.0803 11.2704 38.1448 10.6467C37.2539 10.023 35.3384 11.2704 34.3583 10.8249C33.3783 10.424 32.8883 8.19661 31.8191 8.01842C30.75 7.79568 29.5027 9.66666 28.389 9.66666C27.2753 9.66666 25.9835 7.84023 24.9589 8.01842C23.8898 8.24115 23.3997 10.424 22.4197 10.8249C21.3951 11.2258 19.5241 10.023 18.6332 10.6467C17.7422 11.2704 18.1432 13.4532 17.3413 14.255C16.584 15.0123 14.3567 14.6114 13.733 15.5469C13.1093 16.4378 14.3567 18.3534 13.9112 19.3334C13.5103 20.3134 11.2829 20.8034 11.1047 21.8726C10.882 22.9417 12.753 24.189 12.753 25.3027C12.753 26.4164 10.9265 27.7083 11.1047 28.7328C11.3275 29.802 13.5103 30.292 13.9112 31.272C14.3121 32.2966 13.1093 34.1676 13.733 35.0585C14.3567 35.9495 16.5395 35.5486 17.3413 36.3504C18.0986 37.1077 17.6977 39.3351 18.6332 39.9587C19.5241 40.5824 21.4397 39.3351 22.4197 39.7805C23.3997 40.1815 23.8898 42.4088 24.9589 42.587C26.028 42.8097 27.2753 40.9388 28.389 40.9388C29.5027 40.9388 30.7946 42.7652 31.8191 42.587C32.8883 42.3643 33.3783 40.1815 34.3583 39.7805C35.3829 39.3796 37.2539 40.5824 38.1448 39.9587C39.0358 39.3351 38.6349 37.1523 39.4367 36.3504C40.194 35.5931 42.4214 35.994 43.045 35.0585C43.6687 34.1676 42.4214 32.2521 42.8668 31.272C43.2678 30.292 45.4951 29.802 45.6733 28.7328C45.8515 27.7083 44.0251 26.4164 44.0251 25.3027Z" fill="#FFBF1F"/>
<path d="M28.2109 37.553C35.075 37.553 40.6395 31.9886 40.6395 25.1244C40.6395 18.2602 35.075 12.6957 28.2109 12.6957C21.3467 12.6957 15.7822 18.2602 15.7822 25.1244C15.7822 31.9886 21.3467 37.553 28.2109 37.553Z" fill="#FFD31D"/>
<path opacity="0.5" d="M37.6995 17.0612C39.0359 19.0658 39.8377 21.4714 39.8377 24.0551C39.8377 30.9154 34.2693 36.4838 27.4091 36.4838C23.6226 36.4838 20.1924 34.791 17.9205 32.0736C20.1479 35.3701 23.9344 37.5084 28.2109 37.5084C35.0712 37.5084 40.6396 31.94 40.6396 25.0797C40.6396 22.0505 39.5259 19.244 37.6995 17.0612Z" fill="#FFEFAB"/>
<path d="M16.8068 26.0599C16.8068 19.1996 22.3752 13.6312 29.2355 13.6312C32.1756 13.6312 34.8929 14.6558 37.0312 16.3932C34.7593 14.1212 31.641 12.6957 28.1663 12.6957C21.3061 12.6957 15.7377 18.2641 15.7377 25.1244C15.7377 29.0445 17.5641 32.5192 20.3706 34.7911C18.1878 32.5638 16.8068 29.49 16.8068 26.0599Z" fill="#FFAB2E"/>
<path d="M14.4011 26.1047C14.1339 26.1047 13.9111 25.882 13.9111 25.6147C13.8666 23.8328 14.1339 22.0509 14.7575 20.3581C15.5594 18.1753 16.8067 16.3043 18.4549 14.7897L18.4995 14.7452C18.544 14.7452 18.5886 14.7006 18.5886 14.6561C18.9004 14.2997 19.2568 14.0324 19.6132 13.8097C19.7468 13.7206 19.8804 13.6315 19.9695 13.5424C19.9695 13.5424 19.9695 13.5424 20.0141 13.5424C20.3705 13.2751 20.7714 13.0078 21.2614 12.7405C21.3505 12.696 21.4396 12.6515 21.5287 12.6069C21.7069 12.5178 21.8851 12.4287 22.0633 12.3396C22.3305 12.2505 22.5978 12.3396 22.7315 12.6069C22.8206 12.8742 22.7315 13.1415 22.4642 13.2751C22.286 13.3197 22.1524 13.4088 22.0187 13.4978C21.9296 13.5424 21.8405 13.5869 21.7514 13.6315C21.306 13.8542 20.9496 14.1215 20.5932 14.3442C20.4596 14.4333 20.3259 14.5224 20.2368 14.6115C19.925 14.8343 19.6132 15.1015 19.3013 15.3688C19.2122 15.4579 19.1677 15.5025 19.0786 15.547C17.564 16.9725 16.4503 18.7099 15.693 20.7145C15.1584 22.2736 14.8912 23.9219 14.9357 25.6147C14.9357 25.882 14.713 26.1047 14.4011 26.1047Z" fill="white"/>
<path d="M15.0694 28.1536C15.0694 27.8863 14.8467 27.6636 14.5794 27.6636C14.3121 27.6636 14.0894 27.8863 14.0894 28.1536C14.0894 28.4209 14.3121 28.6436 14.5794 28.6436C14.8912 28.6436 15.0694 28.4209 15.0694 28.1536Z" fill="white"/>
<path d="M33.6901 18.1751L34.492 19.7343C34.5811 19.8679 34.7147 20.0015 34.8929 20.0015L36.6302 20.2243C37.0312 20.2688 37.2094 20.8034 36.8975 21.0707L35.6502 22.318C35.5166 22.4516 35.472 22.5853 35.5166 22.7635L35.8284 24.5008C35.9175 24.9017 35.472 25.2136 35.1156 25.0354L33.5565 24.2335C33.4228 24.1444 33.2447 24.1444 33.0665 24.2335L31.5073 25.0799C31.1509 25.2581 30.7055 24.9463 30.75 24.5453L31.0173 22.808C31.0619 22.6298 30.9728 22.4962 30.8837 22.3625L29.6363 21.1598C29.3245 20.8479 29.5027 20.3579 29.9036 20.3134L31.641 20.0461C31.8192 20.0015 31.9528 19.9124 32.0419 19.7788L32.7992 18.2197C32.9774 17.7742 33.5119 17.7742 33.6901 18.1751Z" fill="#FFAB2E"/>
<path d="M33.2447 17.8633L34.0465 19.4224C34.1356 19.5561 34.2693 19.6897 34.4475 19.6897L36.1848 19.9124C36.5857 19.957 36.7639 20.4916 36.4521 20.7588L35.2048 22.0062C35.0711 22.1398 35.0266 22.2734 35.0711 22.4516L35.383 24.189C35.4721 24.5899 35.0266 24.9017 34.6702 24.7235L33.1111 23.9217C32.9774 23.8326 32.7992 23.8326 32.621 23.9217L31.0619 24.7681C30.7055 24.9463 30.26 24.6344 30.3046 24.2335L30.5719 22.4962C30.6164 22.318 30.5273 22.1844 30.4382 22.0507L29.1909 20.8479C28.8791 20.5361 29.0573 20.0461 29.4582 20.0015L31.1955 19.7343C31.3737 19.6897 31.5074 19.6006 31.5965 19.467L32.3538 17.9078C32.5319 17.5069 33.0665 17.5069 33.2447 17.8633Z" fill="#FFF64A"/>
<path d="M32.2202 18.888C32.1756 19.0217 32.1311 19.1553 32.042 19.2889C31.9975 19.378 31.9529 19.4671 31.9529 19.5562C31.9529 19.5562 31.9529 19.6008 31.9084 19.6008C31.9084 19.6008 31.9529 19.5562 31.9084 19.6008C31.9084 19.6008 31.9084 19.6453 31.8638 19.6453C31.7302 19.8681 31.5074 20.0462 31.2402 20.0908C31.1065 20.1353 30.9729 20.1353 30.8392 20.1353C30.661 20.1799 30.5274 20.1799 30.3492 20.2244C30.2156 20.2244 30.171 20.4026 30.171 20.4917C30.2156 20.6254 30.3047 20.6699 30.4383 20.6699C30.7056 20.6254 31.0174 20.5808 31.2847 20.5363C31.5965 20.4917 31.9084 20.3135 32.0865 20.0462C32.2202 19.9126 32.2647 19.6899 32.3538 19.5117C32.4429 19.3335 32.4875 19.1999 32.5766 19.0217C32.6211 18.888 32.532 18.7544 32.3984 18.7544C32.3538 18.7098 32.2647 18.7544 32.2202 18.888Z" fill="white"/>
<path d="M29.6809 20.269C29.6363 20.269 29.6363 20.269 29.5918 20.269C29.5472 20.269 29.5472 20.3135 29.5027 20.3135C29.5027 20.3135 29.4581 20.3581 29.4581 20.4026C29.4581 20.4472 29.4581 20.4472 29.4581 20.4917V20.5363C29.4581 20.5808 29.5027 20.6254 29.5027 20.6254L29.5472 20.6699C29.5918 20.6699 29.6363 20.7145 29.6809 20.7145C29.7254 20.7145 29.7254 20.7145 29.77 20.7145C29.8145 20.7145 29.8145 20.6699 29.8591 20.6699C29.8591 20.6699 29.9036 20.6254 29.9036 20.5808C29.9036 20.5363 29.9036 20.5363 29.9036 20.4917V20.4472C29.9036 20.4026 29.8591 20.3581 29.8591 20.3581L29.8145 20.3135C29.7254 20.269 29.7254 20.269 29.6809 20.269Z" fill="white"/>
<path d="M25.1372 18.1753L25.939 19.7344C26.0281 19.8681 26.1617 20.0017 26.3399 20.0017L28.0773 20.2245C28.4782 20.269 28.6564 20.8036 28.3445 21.0709L27.0972 22.3182C26.9636 22.4518 26.919 22.5855 26.9636 22.7636L27.2754 24.501C27.3645 24.9019 26.919 25.2137 26.5627 25.0356L25.0035 24.2337C24.8699 24.1446 24.6917 24.1446 24.5135 24.2337L22.9543 25.0801C22.598 25.2583 22.1525 24.9465 22.197 24.5455L22.4643 22.8082C22.5089 22.63 22.4198 22.4964 22.3307 22.3627L21.0834 21.1599C20.7715 20.8481 20.9497 20.3581 21.3506 20.3135L23.088 20.0463C23.2662 20.0017 23.3998 19.9126 23.4889 19.779L24.2462 18.2198C24.3799 17.7744 24.9144 17.7744 25.1372 18.1753Z" fill="#FFAB2E"/>
<path d="M24.6916 17.8635L25.4934 19.4226C25.5825 19.5563 25.7162 19.6899 25.8944 19.6899L27.6317 19.9126C28.0326 19.9572 28.2108 20.4917 27.899 20.759L26.6517 22.0063C26.518 22.14 26.4735 22.2736 26.518 22.4518L26.8299 24.1892C26.9189 24.5901 26.4735 24.9019 26.1171 24.7237L24.5579 23.9219C24.4243 23.8328 24.2461 23.8328 24.0679 23.9219L22.5088 24.7683C22.1079 24.991 21.6624 24.6792 21.7069 24.2782L21.9742 22.5409C22.0188 22.3627 21.9297 22.2291 21.8406 22.0954L20.5933 20.8927C20.2814 20.5808 20.4596 20.0908 20.8605 20.0463L22.5979 19.779C22.7761 19.7344 22.9097 19.6453 22.9988 19.5117L23.7561 17.9526C23.9343 17.5071 24.4689 17.5071 24.6916 17.8635Z" fill="#FFF64A"/>
<path d="M23.6225 18.888C23.578 19.0217 23.5334 19.1553 23.4443 19.2889C23.3998 19.378 23.3553 19.4671 23.3553 19.5562C23.3553 19.5562 23.3552 19.6008 23.3107 19.6008C23.3107 19.6008 23.3552 19.5562 23.3107 19.6008C23.3107 19.6008 23.3107 19.6453 23.2662 19.6453C23.1325 19.8681 22.9098 20.0462 22.6425 20.0908C22.5089 20.1353 22.3752 20.1353 22.2416 20.1353C22.0634 20.1799 21.9297 20.1799 21.7516 20.2244C21.6179 20.2244 21.5734 20.4026 21.5734 20.4917C21.6179 20.6254 21.707 20.6699 21.8406 20.6699C22.1079 20.6254 22.4198 20.5808 22.687 20.5363C22.9989 20.4917 23.3107 20.3135 23.4889 20.0462C23.6225 19.9126 23.6671 19.6899 23.7562 19.5117C23.8453 19.3335 23.8898 19.1999 23.9789 19.0217C24.0235 18.888 23.9344 18.7544 23.8007 18.7544C23.8007 18.7098 23.6671 18.7544 23.6225 18.888Z" fill="white"/>
<path d="M21.0833 20.269C21.0388 20.269 21.0388 20.269 20.9942 20.269C20.9497 20.269 20.9497 20.3135 20.9051 20.3135C20.9051 20.3135 20.8606 20.3581 20.8606 20.4026C20.8606 20.4472 20.8606 20.4472 20.8606 20.4917V20.5363C20.8606 20.5808 20.9051 20.6254 20.9051 20.6254L20.9497 20.6699C20.9942 20.6699 21.0388 20.7145 21.0833 20.7145C21.1279 20.7145 21.1279 20.7145 21.1724 20.7145C21.217 20.7145 21.217 20.6699 21.2615 20.6699C21.2615 20.6699 21.3061 20.6254 21.3061 20.5808C21.3061 20.5363 21.3061 20.5363 21.3061 20.4917V20.4472C21.3061 20.4026 21.2615 20.3581 21.2615 20.3581L21.217 20.3135C21.1724 20.269 21.1279 20.269 21.0833 20.269Z" fill="white"/>
<path d="M33.6901 25.9266L34.492 27.4857C34.5811 27.6194 34.7147 27.753 34.8929 27.753L36.6302 27.9757C37.0312 28.0203 37.2094 28.5549 36.8975 28.8221L35.6502 30.0695C35.5166 30.2031 35.472 30.3367 35.5166 30.5149L35.8284 32.2523C35.9175 32.6532 35.472 32.965 35.1156 32.7868L33.5565 31.985C33.4228 31.8959 33.2447 31.8959 33.0665 31.985L31.5073 32.8314C31.1509 33.0096 30.7055 32.6977 30.75 32.2968L31.0173 30.5595C31.0619 30.3813 30.9728 30.2476 30.8837 30.114L29.6363 28.9112C29.3245 28.5994 29.5027 28.1094 29.9036 28.0648L31.641 27.7975C31.8192 27.753 31.9528 27.6639 32.0419 27.5303L32.7992 25.9711C32.9774 25.5256 33.5119 25.5256 33.6901 25.9266Z" fill="#FFAB2E"/>
<path d="M33.2447 25.6592L34.0465 27.2183C34.1356 27.352 34.2693 27.4856 34.4475 27.4856L36.1848 27.7083C36.5857 27.7529 36.7639 28.2875 36.4521 28.5547L35.2048 29.8021C35.0711 29.9357 35.0266 30.0693 35.0711 30.2475L35.383 31.9849C35.4721 32.3858 35.0266 32.6976 34.6702 32.5194L33.1111 31.7176C32.9774 31.6285 32.7992 31.6285 32.621 31.7176L31.0619 32.564C30.7055 32.7422 30.26 32.4303 30.3046 32.0294L30.5719 30.2921C30.6164 30.1139 30.5273 29.9802 30.4382 29.8466L29.1909 28.6438C28.8791 28.332 29.0573 27.842 29.4582 27.7974L31.1955 27.5302C31.3737 27.4856 31.5074 27.3965 31.5965 27.2629L32.3538 25.7037C32.5319 25.2583 33.0665 25.2582 33.2447 25.6592Z" fill="#FFF64A"/>
<path d="M32.2202 26.6394C32.1756 26.7731 32.1311 26.9067 32.042 27.0404C31.9975 27.1295 31.9529 27.2186 31.9529 27.3077C31.9529 27.3077 31.9529 27.3522 31.9084 27.3522C31.9084 27.3522 31.9529 27.3077 31.9084 27.3522C31.9084 27.3522 31.9084 27.3967 31.8638 27.3967C31.7302 27.6195 31.5074 27.7977 31.2402 27.8422C31.1065 27.8868 30.9729 27.8868 30.8392 27.8868C30.661 27.9313 30.5274 27.9313 30.3492 27.9759C30.2156 27.9759 30.171 28.1541 30.171 28.2431C30.2156 28.3768 30.3047 28.4213 30.4383 28.4213C30.7056 28.3768 31.0174 28.3322 31.2847 28.2877C31.5965 28.2431 31.9084 28.065 32.0865 27.7977C32.2202 27.664 32.2647 27.4413 32.3538 27.2631C32.4429 27.0849 32.4875 26.9513 32.5766 26.7731C32.6211 26.6394 32.532 26.5058 32.3984 26.5058C32.3538 26.4613 32.2647 26.5504 32.2202 26.6394Z" fill="white"/>
<path d="M29.6809 28.0203C29.6363 28.0203 29.6363 28.0203 29.5918 28.0203C29.5472 28.0203 29.5472 28.0648 29.5027 28.0648C29.5027 28.0648 29.4581 28.1094 29.4581 28.1539C29.4581 28.1985 29.4581 28.1985 29.4581 28.243V28.2875C29.4581 28.3321 29.5027 28.3766 29.5027 28.3766L29.5472 28.4212C29.5918 28.4212 29.6363 28.4657 29.6809 28.4657C29.7254 28.4657 29.7254 28.4657 29.77 28.4657C29.8145 28.4657 29.8145 28.4212 29.8591 28.4212C29.8591 28.4212 29.9036 28.3766 29.9036 28.3321C29.9036 28.2875 29.9036 28.2875 29.9036 28.243V28.1985C29.9036 28.1539 29.8591 28.1094 29.8591 28.1094L29.8145 28.0648C29.7254 28.0203 29.7254 28.0203 29.6809 28.0203Z" fill="white"/>
<path d="M25.137 25.9266L25.9389 27.4857C26.028 27.6194 26.1616 27.753 26.3398 27.753L28.0771 27.9757C28.4781 28.0203 28.6563 28.5549 28.3444 28.8221L27.0971 30.0695C26.9635 30.2031 26.9189 30.3367 26.9635 30.5149L27.2753 32.2523C27.3644 32.6532 26.9189 32.965 26.5625 32.7868L25.0034 31.985C24.8698 31.8959 24.6916 31.8959 24.5134 31.985L22.9542 32.8314C22.5978 33.0096 22.1524 32.6977 22.1969 32.2968L22.4642 30.5595C22.5088 30.3813 22.4197 30.2476 22.3306 30.114L21.0832 28.9112C20.7714 28.5994 20.9496 28.1094 21.3505 28.0648L23.0879 27.7975C23.2661 27.753 23.3997 27.6639 23.4888 27.5303L24.2461 25.9711C24.3797 25.5256 24.9143 25.5256 25.137 25.9266Z" fill="#FFAB2E"/>
<path d="M24.6916 25.6592L25.4934 27.2183C25.5825 27.352 25.7162 27.4856 25.8944 27.4856L27.6317 27.7083C28.0326 27.7529 28.2108 28.2875 27.899 28.5547L26.6517 29.8021C26.518 29.9357 26.4735 30.0693 26.518 30.2475L26.8299 31.9849C26.919 32.3858 26.4735 32.6976 26.1171 32.5194L24.558 31.7176C24.4243 31.6285 24.2461 31.6285 24.0679 31.7176L22.5088 32.564C22.1524 32.7422 21.7069 32.4303 21.7515 32.0294L22.0188 30.2921C22.0633 30.1139 21.9742 29.9802 21.8851 29.8466L20.6378 28.6438C20.326 28.332 20.5042 27.842 20.9051 27.7974L22.6424 27.5302C22.8206 27.4856 22.9543 27.3965 23.0434 27.2629L23.8007 25.7037C23.9343 25.2583 24.4689 25.2582 24.6916 25.6592Z" fill="#FFF64A"/>
<path d="M23.6224 26.6394C23.5779 26.7731 23.5333 26.9067 23.4442 27.0404C23.3997 27.1295 23.3551 27.2186 23.3551 27.3077C23.3551 27.3077 23.3551 27.3522 23.3106 27.3522C23.3106 27.3522 23.3551 27.3077 23.3106 27.3522C23.3106 27.3522 23.3106 27.3967 23.266 27.3967C23.1324 27.6195 22.9097 27.7977 22.6424 27.8422C22.5087 27.8868 22.3751 27.8868 22.2414 27.8868C22.0633 27.9313 21.9296 27.9313 21.7514 27.9759C21.6178 27.9759 21.5732 28.1541 21.5732 28.2431C21.6178 28.3768 21.7069 28.4213 21.8405 28.4213C22.1078 28.3768 22.4196 28.3322 22.6869 28.2877C22.9988 28.2431 23.3106 28.065 23.4888 27.7977C23.6224 27.664 23.667 27.4413 23.756 27.2631C23.8451 27.0849 23.8897 26.9513 23.9788 26.7731C24.0233 26.6394 23.9342 26.5058 23.8006 26.5058C23.8006 26.4613 23.667 26.5504 23.6224 26.6394Z" fill="white"/>
<path d="M21.0832 28.0203C21.0387 28.0203 21.0387 28.0203 20.9941 28.0203C20.9496 28.0203 20.9496 28.0648 20.905 28.0648C20.905 28.0648 20.8605 28.1094 20.8605 28.1539C20.8605 28.1985 20.8605 28.1985 20.8605 28.243V28.2875C20.8605 28.3321 20.905 28.3766 20.905 28.3766L20.9496 28.4212C20.9941 28.4212 21.0387 28.4657 21.0832 28.4657C21.1278 28.4657 21.1278 28.4657 21.1723 28.4657C21.2169 28.4657 21.2169 28.4212 21.2614 28.4212C21.2614 28.4212 21.3059 28.3766 21.3059 28.3321C21.3059 28.2875 21.3059 28.2875 21.3059 28.243V28.1985C21.3059 28.1539 21.2614 28.1094 21.2614 28.1094L21.2169 28.0648C21.1723 28.0203 21.1278 28.0203 21.0832 28.0203Z" fill="white"/>
</svg>
