<svg width="56" height="56" viewBox="0 0 56 56" fill="none" xmlns="http://www.w3.org/2000/svg">
<g clip-path="url(#clip0_1_11495)">
<rect y="3.05176e-05" width="56" height="56" rx="28" fill="white"/>
<path d="M27.9001 56C43.4193 56 56.0001 43.4192 56.0001 27.9C56.0001 12.3808 43.4193 -0.199982 27.9001 -0.199982C12.3809 -0.199982 -0.199951 12.3808 -0.199951 27.9C-0.199951 43.4192 12.3809 56 27.9001 56Z" fill="#DAEAF8"/>
<path d="M27.7828 21.5643L38.9876 18.1618C39.5155 17.9858 39.8675 17.4579 39.7502 16.8712L38.9289 12.6474C38.8116 12.1195 38.3423 11.7088 37.8143 11.7088H17.0473C16.5193 11.7088 16.05 12.1195 15.9326 12.6474L15.1114 16.8712C14.994 17.4579 15.346 17.9858 15.874 18.1618L27.1375 21.5643C27.3721 21.623 27.6068 21.623 27.7828 21.5643Z" fill="#0058E5"/>
<path d="M27.7827 20.3324L38.8115 16.9885C39.3395 16.8125 39.6915 16.2845 39.5742 15.6979L38.8115 11.5914C38.6942 11.0635 38.2249 10.6528 37.6969 10.6528H17.2232C16.6952 10.6528 16.2259 11.0635 16.1086 11.5914L15.346 15.6979C15.2286 16.2845 15.5806 16.8125 16.1086 16.9885L27.1374 20.3324C27.3721 20.391 27.6067 20.391 27.7827 20.3324Z" fill="#1B68FF"/>
<path d="M36.8169 12.1194C31.3025 12.1194 25.7881 12.1194 20.2737 12.1194C19.4524 12.1194 18.6898 12.1194 17.8685 12.1194C17.1059 12.1194 17.1059 13.2927 17.8685 13.2927C23.3829 13.2927 28.8973 13.2927 34.4117 13.2927C35.233 13.2927 35.9956 13.2927 36.8169 13.2927C37.5795 13.3514 37.5795 12.1194 36.8169 12.1194Z" fill="#5F9CFF"/>
<path d="M27.4894 42.5072C34.034 42.5072 39.3395 37.2018 39.3395 30.6571C39.3395 24.1125 34.034 18.807 27.4894 18.807C20.9448 18.807 15.6393 24.1125 15.6393 30.6571C15.6393 37.2018 20.9448 42.5072 27.4894 42.5072Z" fill="#FFBF1F"/>
<path d="M16.6366 31.2437C16.4019 31.2437 16.2259 31.0677 16.2259 30.8917C16.1672 29.4838 16.4019 28.1345 16.8712 26.8439C17.4578 25.2013 18.4551 23.7347 19.6871 22.5614C19.6871 22.5614 19.7457 22.5615 19.7457 22.5028L19.8044 22.4441C20.0391 22.2095 20.3324 21.9748 20.6257 21.7988C20.743 21.7402 20.8017 21.6815 20.919 21.5642C21.2123 21.3882 21.5056 21.1535 21.8576 20.9775C21.9163 20.9189 21.975 20.9189 22.0336 20.8602C22.151 20.8015 22.3269 20.7429 22.4443 20.6255C22.6203 20.5669 22.8549 20.6255 22.9722 20.8602C23.0309 21.0362 22.9722 21.2708 22.7376 21.3882C22.6203 21.4468 22.5029 21.5055 22.3856 21.5642C22.3269 21.6228 22.2683 21.6228 22.151 21.6815C21.799 21.8575 21.5056 22.0335 21.271 22.2095C21.1537 22.2681 21.095 22.3855 20.9777 22.4441C20.743 22.6201 20.5084 22.7961 20.2737 23.0308C20.215 23.0894 20.1564 23.1481 20.0977 23.1481C18.9244 24.204 18.0445 25.5533 17.5165 27.0786C17.1059 28.2519 16.8712 29.5425 16.9299 30.8331C17.0472 31.0677 16.8712 31.2437 16.6366 31.2437Z" fill="white"/>
<path d="M27.4895 40.0431C32.6734 40.0431 36.8757 35.8408 36.8757 30.6569C36.8757 25.473 32.6734 21.2707 27.4895 21.2707C22.3056 21.2707 18.1033 25.473 18.1033 30.6569C18.1033 35.8408 22.3056 40.0431 27.4895 40.0431Z" fill="#FFD31D"/>
<path opacity="0.5" d="M33.8838 23.7933C35.4091 25.4945 36.3477 27.6651 36.3477 30.129C36.3477 35.3501 32.1239 39.5152 26.9615 39.5152C24.4976 39.5152 22.2097 38.5766 20.5671 36.9926C22.2684 38.8699 24.7909 40.0432 27.5481 40.0432C32.7692 40.0432 36.9344 35.8194 36.9344 30.6569C36.8757 27.9584 35.7024 25.4945 33.8838 23.7933Z" fill="#FFEFAB"/>
<path d="M18.6899 31.5956C18.6899 26.3746 22.9137 22.2094 28.0761 22.2094C31.1266 22.2094 33.8251 23.676 35.5264 25.9052C33.8838 23.148 30.8919 21.2708 27.4308 21.2708C22.2097 21.2708 18.0446 25.4946 18.0446 30.657C18.0446 32.8276 18.7485 34.8222 19.9805 36.4061C19.1592 34.9982 18.6899 33.3556 18.6899 31.5956Z" fill="#FFAB2E"/>
<path d="M17.1645 32.8275C17.1645 32.6515 16.9885 32.4755 16.8126 32.4755C16.6366 32.4755 16.4606 32.6515 16.4606 32.8275C16.4606 33.0035 16.6366 33.1795 16.8126 33.1795C16.9885 33.1795 17.1645 33.0035 17.1645 32.8275Z" fill="white"/>
<path d="M28.5454 27.1962L29.3667 28.8975C29.4254 29.0735 29.6014 29.1908 29.7773 29.1908L31.6546 29.4841C32.1239 29.5428 32.2999 30.1294 31.9479 30.4227L30.54 31.7133C30.4227 31.8307 30.364 32.0067 30.364 32.1827L30.6573 34.0599C30.716 34.5292 30.2467 34.8225 29.836 34.6465L28.1934 33.7079C28.0174 33.6492 27.8414 33.5906 27.6654 33.7079L25.9642 34.5879C25.5535 34.7639 25.0842 34.4119 25.2016 34.0012L25.5535 32.124C25.6122 31.948 25.5535 31.772 25.3776 31.6547L24.0283 30.3054C23.735 29.9534 23.911 29.4254 24.3803 29.3668L26.2575 29.1321C26.4335 29.1321 26.6095 29.0148 26.6682 28.8388L27.5481 27.1376C27.7241 26.7856 28.3108 26.7856 28.5454 27.1962Z" fill="#FFAB2E"/>
<path d="M28.0761 26.9028L28.8973 28.6041C28.956 28.7801 29.132 28.8974 29.308 28.8974L31.1852 29.1907C31.6545 29.2494 31.8305 29.836 31.4786 30.1294L30.0706 31.42C29.9533 31.5373 29.8946 31.7133 29.8946 31.8893L30.1879 33.7665C30.2466 34.2358 29.7773 34.5292 29.3667 34.3532L27.7241 33.4145C27.5481 33.3559 27.3721 33.2972 27.1961 33.4145L25.4948 34.2945C25.0842 34.4705 24.6149 34.1185 24.7322 33.7079L25.0842 31.8306C25.1429 31.6546 25.0842 31.4786 24.9082 31.3613L23.5589 30.012C23.2656 29.6601 23.4416 29.1321 23.9109 29.0734L25.7882 28.8388C25.9641 28.8388 26.1401 28.7214 26.1988 28.5454L27.0788 26.8442C27.2548 26.4335 27.8414 26.4922 28.0761 26.9028Z" fill="#FFF64A"/>
<path d="M26.9028 27.9002C26.7854 28.1935 26.6681 28.4869 26.4921 28.7215C26.3161 29.0148 26.0815 29.1322 25.7881 29.1908C25.8468 29.1908 25.8468 29.1908 25.7881 29.1908C25.7295 29.1908 25.7295 29.1908 25.6708 29.1908C25.5535 29.1908 25.4948 29.1908 25.3775 29.2495C25.2015 29.2495 25.0255 29.3081 24.8495 29.3081C24.7322 29.3081 24.6149 29.4255 24.6149 29.5428C24.6149 29.6601 24.7322 29.7775 24.8495 29.7775C25.1428 29.7188 25.4948 29.7188 25.7881 29.6601C26.1401 29.6015 26.4921 29.4255 26.7268 29.1908C26.8441 29.0148 26.9614 28.8388 27.0201 28.6628C27.0788 28.4869 27.1961 28.3109 27.2547 28.1349C27.3134 28.0175 27.3134 27.9002 27.1961 27.7829C27.1374 27.7242 26.9614 27.7829 26.9028 27.9002Z" fill="white"/>
<path d="M24.087 29.3668C24.0283 29.3668 24.0283 29.3668 23.9696 29.3668C23.911 29.3668 23.911 29.3668 23.911 29.4255L23.8523 29.4841C23.8523 29.4841 23.8523 29.5428 23.8523 29.6015V29.6601C23.8523 29.7188 23.911 29.7188 23.911 29.7775C23.911 29.7775 23.9696 29.7775 23.9696 29.8361C24.0283 29.8361 24.0283 29.8948 24.087 29.8948C24.1456 29.8948 24.1456 29.8948 24.2043 29.8948C24.2629 29.8948 24.2629 29.8948 24.2629 29.8361L24.3216 29.7775C24.3216 29.7775 24.3216 29.7188 24.3216 29.6601V29.6015C24.3216 29.5428 24.2629 29.5428 24.2629 29.4841C24.2629 29.4841 24.2043 29.4841 24.2043 29.4255C24.1456 29.3668 24.1456 29.3668 24.087 29.3668Z" fill="white"/>
</g>
<defs>
<clipPath id="clip0_1_11495">
<rect y="3.05176e-05" width="56" height="56" rx="28" fill="white"/>
</clipPath>
</defs>
</svg>
