<svg width="49" height="48" viewBox="0 0 49 48" fill="none" xmlns="http://www.w3.org/2000/svg">
<g clip-path="url(#clip0_1_11451)">
<rect x="0.5" width="48" height="48" rx="8" fill="#FFF8EB"/>
<path d="M30.4653 23.646C30.4653 23.646 31.3367 24.4571 32.4226 23.9342C33.5085 23.4114 37.4835 20.6028 37.3629 19.9191C37.2422 19.2353 35.3853 19.0678 35.3853 19.0678C35.3853 19.0678 29.6341 23.6192 30.4653 23.646Z" fill="#1A1A1A"/>
<path d="M31.5111 23.5454C30.767 23.4247 33.2202 21.4741 34.0179 20.6697C34.8222 19.8654 35.3385 19.49 35.3385 19.49C35.3385 19.49 36.7125 19.6576 36.7125 19.9257C36.7125 20.1938 32.7846 23.3309 32.7846 23.3309C32.7846 23.3309 31.8528 23.6057 31.5176 23.5521L31.5111 23.5454Z" fill="#DAEAF8"/>
<path d="M26.698 27.051C26.698 27.051 28.1326 24.6312 28.8163 23.9877C29.5 23.3442 31.8193 22.0907 32.1679 22.084C32.7711 22.0706 30.1098 23.867 30.1098 23.867C30.1098 23.867 30.4718 26.2064 30.15 27.051C29.8283 27.8956 26.4434 29.0285 26.4434 29.0285L26.7049 27.051H26.698Z" fill="#F09959"/>
<path d="M24.0367 29.5915C24.0367 29.5915 26.3761 26.0858 26.899 26.3271C27.4218 26.5684 28.8363 29.5915 28.8363 29.5915C28.8363 29.5915 24.7205 33.8681 24.7205 33.0571C24.7205 32.246 24.0367 29.5915 24.0367 29.5915Z" fill="#FFB206"/>
<path d="M17.5685 10.8028C17.5685 10.8028 15.1488 19.3492 13.54 22.8952C11.9246 26.4412 11.1203 33.0572 11.442 44.667C11.7638 56.2768 9.50477 55.955 12.8966 57.4096C16.2816 58.8642 28.3808 56.4444 29.9895 52.7308C31.605 49.024 28.9103 33.9218 24.9085 28.3784C20.9604 22.9086 19.184 20.958 19.184 19.671C19.184 18.384 20.7459 12.8941 20.7459 12.8941L17.5753 10.7961L17.5685 10.8028Z" fill="#F09959"/>
<path d="M29.9895 52.7374C31.605 49.0306 28.9103 33.9284 24.9085 28.3849C23.0719 25.8377 21.7043 24.0547 20.7659 22.7476C18.8488 21.6014 16.7373 20.5422 14.7062 19.9189C14.2973 21.0651 13.902 22.1108 13.54 22.9018C11.9246 26.4477 11.1203 33.0637 11.442 44.6735C11.7638 56.2833 9.50477 55.9616 12.8966 57.4162C16.2816 58.8707 28.3808 56.4509 29.9895 52.7374Z" fill="#FFB206"/>
<path d="M13.2717 18.3841C13.312 17.7205 21.9253 21.1256 21.9789 21.7691C22.0326 22.4126 22.5419 24.8191 23.2525 26.1195C23.963 27.4132 11.2608 34.6593 11.7233 31.1334C12.1925 27.6076 13.1576 20.1604 13.2649 18.3841H13.2717Z" fill="#FFB206"/>
<path d="M19.1904 19.8184C19.1904 19.7715 19.1838 19.7245 19.1838 19.6776C19.1838 18.3906 20.7457 12.9008 20.7457 12.9008L17.5751 10.8027C17.5751 10.8027 17.0121 12.7868 16.2479 15.2401C17.2333 18.1828 18.1581 19.1883 19.1904 19.8184Z" fill="#E38540"/>
<path d="M26.4701 14.9923C25.7998 18.0288 23.7017 20.1939 21.2752 19.5973C19.4988 19.1616 16.7571 16.6747 17.6353 13.0416C18.3659 10.0185 20.8259 7.97409 23.2658 8.51034C25.7058 9.04659 27.1404 11.949 26.4701 14.9855V14.9923Z" fill="#F09959"/>
<path d="M29.2252 34.7799C31.4305 30.9792 31.6718 27.4266 33.2337 26.3139C35.4256 24.752 37.2286 21.2664 36.4376 21.1256C35.6399 20.9848 32.4226 23.9342 32.4226 23.9342C32.4226 23.9342 33.2606 22.788 33.0595 22.6941C32.8584 22.6003 31.2361 23.7734 30.988 25.1676C30.7333 26.5552 27.6231 32.9432 25.0089 34.9944C22.3947 37.0388 27.02 38.5873 29.2187 34.7866L29.2252 34.7799Z" fill="#F09959"/>
<path d="M14.961 25.1942C11.0598 26.1662 12.8428 37.9503 16.134 44.9349C19.4253 51.9263 25.6053 45.8868 27.9179 44.1708C28.796 43.5206 29.3726 42.8637 29.7547 42.2939C29.0106 38.1245 27.737 33.6469 26.1684 30.5031C22.4884 34.8266 20.7324 23.7531 14.961 25.1875V25.1942Z" fill="#FFB206"/>
<path opacity="0.1" d="M24.0367 29.5915C24.0367 29.5915 26.3761 26.0858 26.899 26.3271C27.4218 26.5684 28.8363 29.5915 28.8363 29.5915C28.8363 29.5915 24.7205 33.8681 24.7205 33.0571C24.7205 32.246 24.0367 29.5915 24.0367 29.5915Z" fill="black"/>
<path opacity="0.1" d="M14.961 25.1942C11.0598 26.1662 12.8428 37.9503 16.134 44.9349C19.4253 51.9263 25.6053 45.8868 27.9179 44.1708C28.796 43.5206 29.3726 42.8637 29.7547 42.2939C29.0106 38.1245 27.737 33.6469 26.1684 30.5031C22.4884 34.8266 20.7324 23.7531 14.961 25.1875V25.1942Z" fill="black"/>
<path d="M16.1271 24.3497C11.2204 24.839 13.9084 37.0923 17.4945 42.0392C21.0807 46.9862 26.1884 42.2001 27.8039 39.3513C29.4193 36.5025 32.6839 31.6561 32.6839 28.5056C32.6839 27.9157 31.4772 27.7951 30.0227 27.9024C28.6552 28.0029 22.4816 36.5025 22.4816 36.5025C22.4816 36.5025 20.4171 23.9207 16.1271 24.3497Z" fill="#FFB206"/>
<path d="M27.965 8.65098C30.968 9.91116 29.1646 13.9129 27.5827 14.0604C26.0008 14.2079 24.171 11.292 23.2325 11.1915C22.2941 11.0909 23.4202 12.8203 22.5891 13.2158C21.7512 13.6113 20.9734 14.2682 20.7254 15.3072C20.4841 16.3462 19.8138 18.6051 20.9064 18.7057C21.999 18.8062 23.1855 17.6198 23.9228 17.5661C24.6669 17.5192 25.3106 17.7337 25.3106 17.7337C25.3106 17.7337 23.4269 20.3346 22.0461 20.4887C20.6652 20.6429 19.1571 18.6185 18.0779 16.9092C17.0054 15.1999 17.4612 14.0604 17.4612 14.0604C17.4612 14.0604 16.3616 15.3005 15.6712 15.1999C14.9808 15.0994 16.7103 14.114 16.7572 11.1982C16.8041 8.2823 18.0912 6.74731 19.6731 6.74731C21.2551 6.74731 21.0606 5.9429 23.4737 6.00323C25.6523 6.06356 27.2611 8.35604 27.965 8.65098Z" fill="#0F2D5C"/>
<path d="M21.369 13.4573C21.4361 14.208 21.0543 14.8649 20.5046 14.9119C19.955 14.9655 19.4587 14.3957 19.3849 13.6383C19.3179 12.8875 19.7 12.2306 20.2497 12.1837C20.7993 12.1301 21.2953 12.6998 21.369 13.4573Z" fill="#F09959"/>
</g>
<defs>
<clipPath id="clip0_1_11451">
<rect x="0.5" width="48" height="48" rx="8" fill="white"/>
</clipPath>
</defs>
</svg>
