<svg width="48" height="48" viewBox="0 0 48 48" fill="none" xmlns="http://www.w3.org/2000/svg">
<g clip-path="url(#clip0_1_11317)">
<rect width="48" height="48" rx="8" fill="#FFF8EB"/>
<path d="M14.8263 42.7856C15.1842 43.8221 16.3181 44.3667 17.3511 44.0017L29.2204 39.8028C30.2434 39.4391 30.7828 38.3236 30.4284 37.2943L19.8346 6.63336C19.4767 5.5969 18.3428 5.05232 17.3098 5.41732L5.44036 9.61608C4.41731 9.97982 3.87794 11.0953 4.23233 12.1246L14.8263 42.7856Z" fill="#FFAABE"/>
<path d="M11.0252 19.4382C11.1765 19.1148 11.325 18.7891 11.4813 18.4651C11.5415 18.3408 11.6448 18.2365 11.6279 18.084C11.6598 18.0952 11.6812 18.1253 11.695 18.1539C11.8213 18.409 12.2314 18.3846 12.4062 18.2052C12.5203 18.0867 12.5639 17.9316 12.5044 17.8227C12.4345 17.6922 12.274 17.6265 12.1129 17.6546C12.0309 17.6676 11.9538 17.7383 11.8657 17.6837C12.2935 17.4618 12.5381 17.0352 12.9037 16.7427C13.3132 16.4167 13.7366 16.1195 14.2121 15.894C14.4821 15.7658 14.7481 15.6254 15.0366 15.543C15.9623 15.2702 16.9026 15.1527 17.8677 15.288C18.4276 15.3661 18.963 15.5106 19.484 15.7203C19.578 15.7615 19.5851 15.857 19.6131 15.937C20.0114 17.0722 20.4076 18.2103 20.8059 19.3455C21.393 21.0268 21.9795 22.7031 22.5666 24.3844C22.5974 24.4666 22.6281 24.5488 22.6489 24.6324C22.6696 24.7742 22.5892 24.8783 22.5193 24.986C22.4311 25.1291 22.3316 25.2634 22.2513 25.408C22.0329 25.3649 21.8213 25.2956 21.6398 25.1642C21.5494 25.0313 21.5498 24.8563 21.4429 24.7331C21.3801 24.6981 21.3228 24.7256 21.2705 24.7526C20.7504 25.0065 20.1933 25.0295 19.6295 25.0203C19.2306 25.013 19.257 25.0603 19.1187 24.6522C19.086 24.555 19.0505 24.4556 19.0179 24.3584C19.0009 24.3048 18.9817 24.254 18.9172 24.2445C18.5582 24.3309 18.2147 24.4787 17.8673 24.5965C17.7193 24.6483 17.5604 24.6737 17.4365 24.7757C17.3823 24.8865 17.462 24.9752 17.4897 25.073C17.5444 25.2637 17.5246 25.3068 17.3355 25.3537C16.5976 25.529 15.875 25.7657 15.1664 26.031C14.9368 26.1186 14.7106 26.2133 14.4907 26.3174C14.3805 26.3669 14.3567 26.4384 14.3969 26.5549C14.5031 26.8708 14.6358 27.1758 14.7127 27.5005C14.716 27.566 14.6771 27.5988 14.6206 27.573C14.2766 27.4193 13.9158 27.293 13.6289 27.0305C13.6041 26.9754 13.5844 26.9197 13.5646 26.864C12.7305 24.4792 11.8965 22.0944 11.0652 19.7119C11.0366 19.6268 10.9753 19.5435 11.0237 19.446L11.0252 19.4382Z" fill="#FFD1E3"/>
<path d="M18.7417 41.7333C17.7616 42.0764 16.7821 42.4243 15.802 42.7674C15.7269 42.7947 15.6911 42.7714 15.6743 42.7001C15.6595 42.6437 15.637 42.5858 15.6172 42.53C12.8464 34.6016 10.0756 26.6732 7.30265 18.7476C6.8239 17.3793 6.34739 16.0083 5.87082 14.6373C5.93093 14.6119 5.96444 14.6558 5.99882 14.6869C6.20918 14.8856 6.45868 14.8943 6.72136 14.8278C7.13828 14.7189 7.50441 14.5302 7.77352 14.1765C7.94102 13.96 8.26921 13.8902 8.51645 14.0006C8.62946 14.0521 8.73765 14.0459 8.85172 14.0262C9.09981 13.9844 9.09758 13.9872 9.17737 14.2152C10.6504 18.4293 12.1213 22.6462 13.6015 26.8567C13.7284 27.2156 13.8775 27.5692 14.0022 27.9309C14.0261 27.9988 14.057 28.0632 14.036 28.1368C13.9785 28.2227 13.8845 28.2399 13.7973 28.2713C13.2153 28.4773 12.6327 28.6783 12.0479 28.8822C11.8028 28.9667 11.7873 29.0042 11.8653 29.2578C12.0027 29.6787 12.1815 30.0868 12.2702 30.524C12.3704 30.8128 12.4878 31.0968 12.5637 31.3938C12.5707 31.4487 12.5727 31.5041 12.5918 31.5549C12.8527 32.2287 13.0479 32.9236 13.2723 33.6096C13.5546 34.4707 13.8468 35.3306 14.0926 36.2039C14.1499 36.4146 14.2293 36.6198 14.3059 36.8229C14.3791 37.0189 14.4179 37.2243 14.4811 37.4215C14.5443 37.6187 14.5662 37.6311 14.7628 37.5629C15.4276 37.3311 16.0945 37.0964 16.7593 36.8645C17.0795 36.7527 17.0901 36.7564 17.2026 37.0816C17.2469 37.2103 17.3011 37.3377 17.3333 37.4704C17.3445 37.578 17.267 37.6259 17.1917 37.671C16.6441 38.007 16.304 38.499 16.183 39.1201C16.0289 39.9178 16.2461 40.6073 16.8615 41.1598C17.3163 41.5655 17.8523 41.7151 18.4445 41.7282C18.5006 41.7312 18.5507 41.707 18.6028 41.6978C18.6498 41.6893 18.708 41.6489 18.7409 41.7283L18.7417 41.7333Z" fill="#8D0C34"/>
<path d="M18.9612 24.1526C19.0872 24.286 19.1002 24.4668 19.1582 24.6242C19.2801 24.9431 19.2736 24.9516 19.6191 24.9582C19.8885 24.9643 20.1616 24.9598 20.4332 24.9632C20.5398 24.9648 20.6352 24.9172 20.7324 24.8845C20.9389 24.8151 21.1448 24.7406 21.3513 24.6711C21.3999 24.6548 21.4475 24.6107 21.5022 24.662C21.4599 24.7282 21.3886 24.745 21.3229 24.766C21.1341 24.8357 20.9419 24.8983 20.7532 24.968C20.5908 25.0268 20.5681 25.0676 20.6184 25.2234C20.7633 25.6636 20.7189 25.5933 21.0884 25.4701C21.2198 25.4279 21.3478 25.3786 21.4743 25.3372C21.5644 25.3079 21.6454 25.2672 21.6894 25.1754C21.882 25.2345 22.0729 25.3013 22.2543 25.3922C22.2845 25.3706 22.3179 25.374 22.3476 25.3879C22.5646 25.4794 22.7668 25.5954 22.9459 25.7474C22.9656 25.7626 22.9837 25.7856 22.9763 25.8069C22.8673 25.5293 22.7743 25.2371 22.6719 24.9511C22.6446 24.8761 22.6145 24.7989 22.6365 24.7124C21.6912 22.0124 20.7509 19.3117 19.8056 16.6117C19.7013 16.3108 19.5948 16.0126 19.4884 15.7145C19.1359 14.7002 18.7834 13.6858 18.4337 12.6737C18.4901 12.6589 18.5108 12.7018 18.533 12.737C18.5781 12.8124 18.6017 12.898 18.6275 12.9809C20.093 17.1756 21.5613 21.3726 23.0268 25.5673C23.0589 25.6595 23.0959 25.7511 23.1108 25.848C23.1129 25.9441 23.1443 26.0312 23.1757 26.1185C23.6224 27.3945 24.0692 28.6706 24.5137 29.9494C24.5342 30.0102 24.5574 30.0731 24.5756 30.1366C24.609 30.2388 24.5696 30.3072 24.4758 30.3471C24.3699 30.391 24.2634 30.43 24.1534 30.4617C24.0655 30.4882 23.9875 30.4727 23.9411 30.3874C23.892 30.2999 23.8242 30.306 23.7463 30.3311C23.6563 30.3604 23.5726 30.399 23.4992 30.4591C23.1607 30.7456 22.7274 30.8059 22.3284 30.9557C22.239 30.9899 22.1655 30.9511 22.1241 30.8651C22.0793 30.772 22.0097 30.7631 21.9197 30.7923C21.7661 30.8398 21.6251 30.9061 21.5257 31.0404C21.3653 31.2535 21.1598 31.3912 20.9006 31.4648C20.685 31.5227 20.4782 31.6099 20.2644 31.6828C20.1794 31.7114 20.0959 31.7323 20.0128 31.677C19.9488 31.6319 19.8956 31.6717 19.853 31.7151C19.5133 32.0322 19.056 32.0829 18.6483 32.244C18.5517 32.2816 18.4761 32.2456 18.4356 32.1469C18.398 32.0503 18.3482 31.9579 18.362 31.8472C18.4169 31.7413 18.5294 31.7295 18.6216 31.6974C18.7331 31.6578 18.7681 31.595 18.7214 31.487C18.6919 31.4147 18.6702 31.344 18.6457 31.2711C18.5819 31.0689 18.6076 31.0124 18.8107 30.9358C18.9294 30.8927 19.0468 30.8398 19.1687 30.8217C19.2557 30.808 19.2755 30.7649 19.2631 30.688C19.2201 30.4299 19.2241 30.1633 19.1611 29.9078C19.0921 29.6252 18.8969 29.4068 18.7634 29.1552C18.7239 29.0842 18.661 29.1074 18.6031 29.13C18.4623 29.1784 18.3242 29.2289 18.1856 29.2745C18.0641 29.3154 17.9835 29.28 17.9399 29.1563C17.9044 29.057 17.8668 28.9605 17.8341 28.8633C17.8014 28.7661 17.7436 28.7303 17.6471 28.768C17.6277 28.7755 17.6056 28.7809 17.5863 28.7884C17.3162 28.8761 17.3111 28.8767 17.1948 28.6204C17.1493 28.5223 17.087 28.51 16.9998 28.5414C16.7889 28.6165 16.578 28.6916 16.3643 28.7645C16.2914 28.789 16.2197 28.8234 16.142 28.7903C16.0745 28.7381 16.0559 28.6517 16.0285 28.5767C15.9343 28.315 15.8501 28.0521 15.7509 27.7911C15.6928 27.6337 15.6687 27.6241 15.508 27.675C15.3422 27.7266 15.1806 27.7903 15.0155 27.8469C14.9426 27.8714 14.8732 27.9031 14.7939 27.8777C14.697 27.7938 14.6509 27.6907 14.6849 27.5596C14.5614 27.2079 14.4429 26.8556 14.3145 26.5045C14.2783 26.4001 14.2769 26.3496 14.3965 26.2937C15.0246 25.9931 15.6773 25.7653 16.3403 25.5591C16.6818 25.4547 17.0214 25.3354 17.3799 25.2845C17.4619 25.2716 17.4845 25.2306 17.4609 25.1449C17.4197 25.0007 17.322 24.8712 17.3421 24.7115C17.4211 24.7546 17.4399 24.841 17.4672 24.9161C17.5573 25.1656 17.643 25.4207 17.7331 25.6702C17.7919 25.8325 17.8109 25.8428 17.971 25.7868C18.357 25.6539 18.7431 25.5211 19.1285 25.3832C19.2886 25.3273 19.2959 25.306 19.2394 25.1409C19.1536 24.8857 19.0635 24.6363 18.9756 24.3839C18.9504 24.3061 18.9131 24.2322 18.9478 24.1467L18.9612 24.1526Z" fill="#FF7B9A"/>
<path d="M18.3759 31.8407C18.4423 31.964 18.4229 32.1692 18.5518 32.206C18.6572 32.2381 18.8066 32.1379 18.9381 32.0958C19.0475 32.0591 19.1533 32.0151 19.2633 31.9833C19.496 31.9206 19.6976 31.8113 19.8652 31.6354C19.9208 31.575 19.996 31.4893 20.0534 31.6417C20.076 31.6996 20.124 31.6783 20.1655 31.6654C20.5028 31.5488 20.8387 31.4401 21.1692 31.3092C21.3116 31.253 21.4082 31.1166 21.494 30.9941C21.6313 30.7992 21.8479 30.769 22.0439 30.6958C22.1211 30.6657 22.1399 30.7342 22.1491 30.7862C22.1788 30.9395 22.2556 30.9451 22.3858 30.893C22.5933 30.8107 22.8069 30.7378 23.0213 30.6699C23.1749 30.6224 23.3181 30.5534 23.4335 30.4449C23.5395 30.3426 23.6733 30.2978 23.8063 30.2478C23.9007 30.213 23.9515 30.2343 23.9714 30.3306C23.9925 30.4369 24.0478 30.4527 24.15 30.4194C24.5853 30.2751 24.5859 30.2801 24.4345 29.8483C23.9946 28.5866 23.5526 27.3277 23.1128 26.066C23.0924 26.0053 23.0521 25.9471 23.0737 25.8785C23.1711 25.9269 23.181 26.0244 23.2096 26.1094C23.6468 27.3512 24.0792 28.5936 24.5143 29.8382C24.5265 29.8746 24.5388 29.9111 24.5511 29.9475C24.6261 30.1584 24.6536 30.1752 24.8038 30.0217C24.9649 29.8541 25.1164 29.85 25.3147 29.954C25.5186 30.0622 25.5565 30.0421 25.6929 29.86C25.7603 29.7728 25.8335 29.6901 25.9532 29.6748C25.9709 29.675 25.9916 29.6775 26.01 29.6828C26.0533 29.6848 26.1052 29.6756 26.1384 29.6967C26.3798 29.861 26.6325 29.7554 26.8804 29.7313C26.9003 29.7288 26.918 29.729 26.9461 29.7507C26.8306 29.8187 26.7158 29.8917 26.5996 29.9546C26.5043 30.0023 26.4253 30.058 26.3966 30.1706C26.3731 30.2648 26.28 30.3097 26.2234 30.3828C26.1095 30.4429 25.9894 30.4355 25.8733 30.3996C25.7282 30.3548 25.628 30.4031 25.555 30.5264C25.5376 30.5489 25.5202 30.5714 25.5134 30.5976C25.4391 30.8098 25.2896 30.8695 25.076 30.8435C24.8801 30.8179 24.8683 30.8447 24.9364 31.0412C25.1852 31.7596 25.439 32.4774 25.6878 33.1958C25.7158 33.2758 25.7665 33.3555 25.7197 33.4451C25.5962 33.4305 25.595 33.3217 25.5642 33.2395C25.3274 32.5753 25.0978 31.9077 24.8631 31.2407C24.8508 31.2043 24.8386 31.1678 24.8263 31.1314C24.7255 30.8376 24.7099 30.8345 24.4208 30.9525C24.3342 30.9889 24.2816 31.0336 24.3099 31.1364C24.3395 31.2492 24.2789 31.3102 24.1802 31.3507C24.055 31.4021 23.9287 31.4258 23.7953 31.4125C23.3783 31.3821 23.0259 31.5994 22.648 31.7161C22.5773 31.7378 22.5699 31.7995 22.5832 31.8637C22.6166 32.0064 22.5395 32.0771 22.4221 32.1301C22.2688 32.2004 22.1117 32.2406 21.9461 32.1934C21.6352 32.1013 21.3363 32.1217 21.0398 32.2609C20.9037 32.3264 20.7551 32.3732 20.608 32.4123C20.4781 32.4466 20.4137 32.5182 20.4131 32.6526C20.3603 32.7151 20.2841 32.7146 20.2146 32.7058C19.9323 32.6582 19.6737 32.7368 19.4177 32.8354C19.3018 32.8806 19.1797 32.9165 19.0638 32.9617C18.8723 33.0292 18.8642 33.0455 18.9289 33.2349C19.0332 33.5358 19.1347 33.8346 19.244 34.1349C19.2952 34.2779 19.3155 34.397 19.1457 34.4769C19.0476 34.5224 19.0968 34.6099 19.1207 34.6778C19.2345 35.013 19.3559 35.3497 19.4697 35.6849C19.4948 35.7628 19.5299 35.8394 19.518 35.9246C19.4743 36.0391 19.3681 36.0603 19.2709 36.093C18.6526 36.3113 18.0313 36.5274 17.4151 36.7429C17.1677 36.8302 17.1634 36.8359 17.2479 37.081C17.2554 37.1004 17.2608 37.1225 17.2683 37.1418C17.3773 37.4598 17.3739 37.4527 17.6499 37.3516C17.7056 37.3318 17.7773 37.2973 17.8209 37.3805C17.703 37.5095 17.5413 37.5327 17.3858 37.5653C17.3537 37.5719 17.3218 37.5608 17.3068 37.5221C17.2433 37.3427 17.172 37.1617 17.1207 36.9782C17.083 36.8411 17.0308 36.8097 16.8906 36.8631C16.1614 37.126 15.4253 37.3746 14.696 37.6375C14.5652 37.6846 14.5054 37.6743 14.4614 37.5279C14.2088 36.6807 13.9292 35.8396 13.6595 34.9972C13.5636 34.7028 13.4578 34.4096 13.3762 34.1083C13.2434 33.6235 13.052 33.1563 12.917 32.6743C12.8097 32.2901 12.6658 31.9181 12.5464 31.538C12.5328 31.4916 12.5022 31.4499 12.5286 31.3984C12.6204 31.4425 12.6346 31.5344 12.6626 31.6145C12.8558 32.1549 13.0418 32.6989 13.2321 33.2372C13.3113 33.4603 13.3168 33.4645 13.5327 33.3888C14.4396 33.0881 15.3431 32.7802 16.2507 32.4844C16.8881 32.2764 17.5208 32.0512 18.1583 31.8431C18.2312 31.8186 18.3028 31.7841 18.379 31.8251L18.3759 31.8407Z" fill="#EA4164"/>
<path d="M20.397 32.6618C20.3259 32.5214 20.3676 32.4503 20.5196 32.4106C20.7131 32.358 20.9102 32.2948 21.0921 32.2107C21.3599 32.0853 21.6275 32.0765 21.903 32.1504C22.0737 32.197 22.2248 32.17 22.3793 32.1098C22.5117 32.0549 22.6029 31.9951 22.5143 31.8366C22.4713 31.7584 22.5068 31.7185 22.5847 31.6933C22.8813 31.5947 23.1716 31.4866 23.4682 31.3879C23.5947 31.3465 23.7286 31.3826 23.8573 31.3788C23.9178 31.3762 23.9739 31.3791 24.0347 31.3587C24.2512 31.288 24.254 31.2901 24.2197 31.0614C24.2127 31.0065 24.2267 30.9769 24.2753 30.9605C24.2775 30.9577 24.2875 30.9565 24.2897 30.9537C24.5909 30.8121 24.795 30.8951 24.9018 31.2025C25.1452 31.8987 25.3893 32.6 25.6328 33.2962C25.6526 33.352 25.658 33.4146 25.7136 33.4531C25.7941 33.4885 25.8115 33.5649 25.8382 33.635C25.9965 34.0811 26.1521 34.525 26.3082 34.9739C26.3321 35.0418 26.3581 35.1069 26.3293 35.179C26.2535 35.1608 26.2617 35.0863 26.2426 35.0355C26.0645 34.5337 25.8885 34.0289 25.7003 33.4878C25.556 34.0055 25.3086 34.4299 25.0372 34.8446C24.944 34.9883 24.7874 35.092 24.7633 35.28C24.7343 35.2711 24.7189 35.2502 24.7036 35.2293C24.517 34.9592 24.1724 34.9398 23.9582 35.1876C23.7947 35.3758 23.8477 35.592 24.0752 35.6872C24.1339 35.7101 24.2087 35.7006 24.241 35.775C23.7133 36.3061 23.1116 36.7351 22.4634 37.0967C21.7936 37.4685 21.091 37.761 20.3614 38.0012C20.2785 38.0269 20.1997 38.0648 20.1086 38.0663C20.0531 38.0683 20.0158 38.0934 20.0219 38.1611C19.9549 38.1721 19.9273 38.1148 19.8923 38.0787C19.3649 37.5404 18.7312 37.3019 17.9781 37.398C17.9233 37.405 17.8704 37.427 17.8198 37.3879C17.6863 37.3745 17.5785 37.4439 17.4598 37.487C17.3654 37.5218 17.3218 37.497 17.2947 37.4042C17.25 37.2528 17.1975 37.0998 17.1385 36.9552C17.0884 36.84 17.1231 36.795 17.2375 36.7576C17.9294 36.5197 18.6207 36.2769 19.312 36.0341C19.3799 36.0102 19.4519 35.9986 19.497 35.9345C19.6475 35.8562 19.6947 35.7369 19.6388 35.5768C19.6061 35.4796 19.5656 35.3808 19.5379 35.283C19.4933 35.1316 19.5131 35.0885 19.6633 35.0339C19.9437 34.9271 20.2349 34.8468 20.5065 34.7108C20.5638 34.6832 20.6252 34.6678 20.61 34.5886C20.5837 34.4424 20.6769 34.3976 20.7884 34.358C21.0357 34.2707 21.2784 34.1663 21.5339 34.1033C21.9715 33.9967 22.1851 33.6856 22.326 33.3001C22.4913 32.8482 22.4797 32.8167 22.1016 32.5152C22.006 32.4413 21.9105 32.3674 21.8003 32.3181C21.5998 32.2169 21.3908 32.1676 21.1709 32.2717C21.0728 32.3172 20.965 32.3461 20.8607 32.3823C20.6912 32.4444 20.4939 32.4671 20.4021 32.6613L20.397 32.6618Z" fill="#FF7B9A"/>
<path d="M18.4862 12.728C18.4709 12.7072 18.4643 12.6752 18.4288 12.6746C17.6756 12.492 17.1682 11.9916 16.7786 11.3621C16.194 10.4154 15.9398 9.3962 16.1655 8.28525C16.2071 8.07467 16.2854 7.87453 16.3884 7.68905C16.767 7.00208 17.4681 6.7758 18.1808 7.09792C18.724 7.34284 19.1138 7.7568 19.43 8.24864C19.9594 9.08074 20.2076 9.99188 20.1309 10.9799C20.1041 11.3457 19.9852 11.6852 19.8267 12.0121C19.8194 12.0738 19.8542 12.1278 19.8718 12.1863C20.3286 13.5016 20.7954 14.8156 21.2478 16.1365C21.1993 16.1934 21.1723 16.141 21.1507 16.1108C21.1047 16.0483 21.0875 15.972 21.0608 15.9019C20.6706 14.791 20.2854 13.6795 19.8953 12.5686C19.8789 12.52 19.8632 12.4763 19.8469 12.4277C19.7677 12.2047 19.75 12.2044 19.5854 12.3648C19.2794 12.6674 18.9209 12.8171 18.4869 12.7331L18.4862 12.728Z" fill="#D7355B"/>
<path d="M14.026 28.1381C12.4009 23.4873 10.7758 18.8365 9.15077 14.1857C9.114 14.0763 9.0799 14.0275 8.94498 14.0625C8.77578 14.1069 8.60371 14.1491 8.43218 14.0164C8.30846 13.9206 7.89942 14.0717 7.79347 14.2144C7.45575 14.6858 6.96806 14.8749 6.41409 14.9228C6.18059 14.9399 6.01399 14.8065 5.86857 14.6401C5.8004 14.4435 5.72218 14.2482 5.66399 14.0503C5.61115 13.8746 5.61382 13.6969 5.662 13.5184C5.7608 13.1409 5.6524 12.8278 5.34309 12.5885C5.01128 12.3318 4.90027 11.9582 4.82132 11.578C4.77109 11.3234 4.88093 11.1117 5.09916 10.9749C5.51194 10.7144 5.96565 10.5754 6.45201 10.673C6.6158 10.7053 6.75581 10.7103 6.91032 10.65C7.05983 10.5904 7.18306 10.5239 7.23532 10.3576C7.27182 10.2465 7.38494 10.1991 7.47742 10.1493C7.74987 10.0005 8.03947 9.88741 8.31818 9.74793C8.62989 9.58903 9.11413 9.82881 9.23721 10.1578C9.33987 10.426 9.35131 10.7135 9.41189 10.9896C9.43651 11.103 9.39133 11.2254 9.3189 11.3132C9.2443 11.4038 9.23662 11.4833 9.2849 11.5836C9.30214 11.6194 9.3144 11.6558 9.32167 11.6929C9.363 11.8777 9.44205 12.0198 9.65109 12.0691C9.7659 12.095 9.83558 12.1849 9.89076 12.2995C9.99204 12.5172 10.117 12.7217 10.2183 12.9394C10.4168 13.3627 9.99459 13.8676 9.62425 13.9047C9.48397 13.9176 9.34814 13.9653 9.20977 13.9931C9.15554 14.0051 9.13661 14.0354 9.15359 14.089C9.16176 14.1133 9.17055 14.1426 9.17872 14.1669C9.78501 15.899 10.3885 17.6289 10.9948 19.361C11.003 19.3853 11.014 19.4118 11.025 19.4383C11.3536 20.3847 11.6822 21.3311 12.013 22.2748C12.5722 23.876 13.1335 25.4745 13.6927 27.0757C13.7327 27.1112 13.7684 27.1522 13.7882 27.208C13.8817 27.4647 13.9732 27.7242 14.0568 27.9822C14.0691 28.0186 14.0741 28.0585 14.0664 28.0975C14.0618 28.1208 14.0459 28.1355 14.0238 28.1409L14.026 28.1381Z" fill="#FF87AF"/>
<path d="M17.8198 37.388C18.5673 37.1887 19.4998 37.5056 19.9778 38.1136C19.9925 38.1295 20.0094 38.1425 20.0241 38.1584C20.6265 39.0065 20.6785 39.9097 20.1568 40.7467C19.9127 41.1377 19.5708 41.4171 19.145 41.5956C19.0126 41.6505 18.8755 41.6882 18.7418 41.7332C18.5508 41.7652 18.3649 41.7787 18.1703 41.763C17.6781 41.7194 17.2528 41.5431 16.8628 41.228C16.4735 40.9178 16.257 40.5121 16.1451 40.0524C16.0426 39.6271 16.0667 39.2007 16.2315 38.7843C16.3845 38.3948 16.6079 38.0597 16.9346 37.8C17.0519 37.7065 17.1833 37.6238 17.3068 37.5396C17.493 37.5488 17.649 37.4402 17.8204 37.393L17.8198 37.388Z" fill="#D7355B"/>
<path d="M26.329 35.1795C26.1263 34.6047 25.9209 34.0278 25.7183 33.453C25.4333 32.6302 25.149 31.8124 24.864 30.9897C24.7918 30.781 24.7983 30.7725 25.0141 30.7957C25.0525 30.7984 25.0902 30.7961 25.1292 30.8038C25.3071 30.847 25.4064 30.771 25.4586 30.6047C25.4834 30.5204 25.5512 30.456 25.6062 30.3907C25.6453 30.3401 25.7042 30.3047 25.7635 30.3326C25.914 30.3995 26.0707 30.377 26.2248 30.3928C26.7117 31.7853 27.2015 33.1801 27.6906 34.5698C27.722 34.657 27.7205 34.7053 27.6184 34.7386C27.1881 34.8822 26.7613 35.033 26.3317 35.1816L26.329 35.1795Z" fill="#8D0C34"/>
<path d="M26.2798 37.9507C25.989 37.2807 26.4442 36.4193 27.1041 36.1881C27.7346 35.9657 28.6039 36.2247 28.881 37.0459C29.1324 37.7843 28.7615 38.5312 28.0385 38.8034C27.3177 39.0728 26.4743 38.6406 26.2826 37.9529L26.2798 37.9507Z" fill="#FF87AF"/>
<path d="M21.2369 16.1504C21.076 15.6844 20.9179 15.2204 20.7571 14.7544C20.4577 13.898 20.1583 13.0416 19.8611 12.1824C19.8413 12.1267 19.7994 12.0762 19.8267 12.0119C20.3852 13.6082 20.9488 15.2039 21.5024 16.8008C21.5869 17.0459 21.7046 17.2539 21.8751 17.4577C22.3042 17.9605 22.6536 18.514 22.9125 19.1322C23.2008 19.8228 23.363 20.537 23.4101 21.2837C23.4253 21.5022 23.4356 21.7215 23.4097 21.9351C23.3874 22.1382 23.4281 22.318 23.4928 22.5074C24.3303 24.8993 25.1678 27.2912 26.0031 29.6859C25.996 29.6893 25.9867 29.6957 25.9795 29.6991C25.918 29.674 25.8911 29.6217 25.8685 29.5638C25.8437 29.5086 25.826 29.45 25.8062 29.3943C24.3012 25.088 22.7967 20.7867 21.2938 16.4777C21.2577 16.3733 21.1888 16.2705 21.234 16.1482L21.2369 16.1504Z" fill="#FFD1E3"/>
<path d="M10.8946 14.5229C10.8503 14.5336 10.8062 14.5444 10.7641 14.5523C10.5618 14.5756 10.3753 14.4852 10.315 14.3307C10.2519 14.1741 10.3245 13.9875 10.4991 13.8664C10.5897 13.8016 10.6919 13.7683 10.8051 13.7614C11.0093 13.7531 11.1812 13.8502 11.2281 13.9988C11.279 14.1595 11.1966 14.3475 11.0257 14.458C10.9834 14.4837 10.9376 14.5022 10.8975 14.5251L10.8946 14.5229Z" fill="#680126"/>
<path d="M11.195 15.4883C11.195 15.4883 11.1385 15.5031 11.0965 15.511C10.8842 15.5356 10.6959 15.4304 10.645 15.2696C10.5934 15.1038 10.683 14.9125 10.8645 14.8057C10.8975 14.7862 10.9311 14.7718 10.9676 14.7595C11.2264 14.6631 11.4946 14.7582 11.564 14.9648C11.63 15.1641 11.4772 15.3965 11.1955 15.4933L11.195 15.4883Z" fill="#680126"/>
<path d="M25.7564 39.568C25.6916 39.5763 25.6302 39.5917 25.5619 39.5928C25.3748 39.5964 25.2234 39.5018 25.1716 39.3538C25.1197 39.2058 25.1798 39.0411 25.3323 38.9253C25.4502 38.8367 25.581 38.7896 25.7266 38.7988C25.8879 38.8112 26.0243 38.8673 26.0837 39.0346C26.1431 39.2019 26.0657 39.3309 25.9482 39.4422C25.894 39.4947 25.8281 39.5336 25.7537 39.5659L25.7564 39.568Z" fill="#680126"/>
<path d="M11.5598 16.4404C11.5177 16.4483 11.4763 16.4612 11.4314 16.467C11.2142 16.4922 11.0293 16.3941 10.9749 16.2262C10.9177 16.0561 11.0188 15.8556 11.2109 15.7525C11.3084 15.7021 11.4135 15.671 11.5257 15.6769C11.692 15.6887 11.829 15.7497 11.8877 15.912C11.9493 16.0765 11.8755 16.2127 11.7551 16.3218C11.6981 16.3722 11.6327 16.4159 11.557 16.4383L11.5598 16.4404Z" fill="#680126"/>
<path d="M25.4175 38.6003C25.3352 38.6311 25.2504 38.6419 25.1681 38.6322C25.0112 38.6142 24.8835 38.5469 24.8326 38.3861C24.7823 38.2303 24.8446 38.1032 24.9535 38.0032C25.0732 37.889 25.2234 37.8344 25.3868 37.8439C25.5502 37.8535 25.6872 37.9145 25.7466 38.0818C25.8031 38.2469 25.7316 38.3804 25.609 38.4923C25.5521 38.5427 25.486 38.5814 25.4153 38.6031L25.4175 38.6003Z" fill="#680126"/>
<path d="M24.2427 35.7726C23.9476 35.7241 23.8121 35.6147 23.8144 35.4142C23.816 35.2087 24.0188 35.0105 24.2697 34.9709C24.5184 34.9341 24.6889 35.039 24.765 35.2777C24.7565 35.5094 24.6272 35.6475 24.4122 35.7104C24.3536 35.728 24.2979 35.7479 24.2422 35.7677L24.2427 35.7726Z" fill="#680126"/>
<path d="M11.8648 17.6787C12.028 17.6072 12.1916 17.5584 12.3683 17.6322C12.5372 17.7044 12.6153 17.8592 12.5687 18.0299C12.5152 18.2268 12.301 18.3757 12.0719 18.3872C11.8477 18.3981 11.7147 18.3087 11.6278 18.0841C11.6276 17.9042 11.7226 17.7754 11.8648 17.6787Z" fill="#680126"/>
<path d="M11.6431 16.6753C11.8976 16.5845 12.165 16.6745 12.231 16.8739C12.2999 17.0755 12.1477 17.3128 11.8925 17.3986C11.6352 17.4872 11.3772 17.391 11.3105 17.1866C11.2445 16.9872 11.3908 16.7633 11.6431 16.6753Z" fill="#680126"/>
<path d="M24.769 36.6786C24.6768 36.7107 24.6076 36.7245 24.5358 36.7185C24.3746 36.7061 24.2361 36.6529 24.1724 36.4912C24.108 36.3246 24.1747 36.1919 24.2923 36.0806C24.4077 35.9721 24.5506 35.9208 24.7084 35.926C24.8918 35.933 25.0327 36.0241 25.0789 36.1677C25.1333 36.3356 25.056 36.4646 24.9406 36.5731C24.8865 36.6257 24.8177 36.6623 24.7685 36.6737L24.769 36.6786Z" fill="#680126"/>
<path d="M25.0798 37.6423C25.0075 37.6718 24.9306 37.6842 24.856 37.676C24.692 37.6615 24.5549 37.6004 24.5006 37.4325C24.4496 37.2717 24.514 37.1417 24.6273 37.0361C24.7455 36.9297 24.8879 36.8736 25.0491 36.8859C25.2125 36.8955 25.3517 36.9538 25.4111 37.121C25.4705 37.2883 25.396 37.4195 25.2784 37.5308C25.2243 37.5833 25.1561 37.625 25.0825 37.6445L25.0798 37.6423Z" fill="#680126"/>
<path d="M16.7582 20.4346C16.5251 20.5151 16.292 20.5954 16.0618 20.678C15.9746 20.7094 15.9344 20.6918 15.908 20.604C15.7942 20.2687 15.6776 19.9314 15.5561 19.5946C15.5247 19.5074 15.5452 19.4693 15.6324 19.4379C16.0984 19.277 16.5645 19.1162 17.025 18.951C17.1122 18.9196 17.1502 18.94 17.1788 19.0251C17.2904 19.3631 17.4091 19.6977 17.5307 20.0344C17.5621 20.1216 17.5466 20.1591 17.4566 20.1883C17.2229 20.2638 16.9905 20.3492 16.7575 20.4296L16.7582 20.4346Z" fill="#680126"/>
<path d="M16.1433 18.6961C15.9153 18.7759 15.6867 18.8508 15.4621 18.9377C15.3727 18.9719 15.3259 18.9627 15.2954 18.8627C15.1845 18.5297 15.0684 18.1972 14.9482 17.8704C14.9139 17.781 14.9233 17.7343 15.0233 17.7038C15.485 17.5485 15.9432 17.3861 16.4014 17.2237C16.4936 17.1916 16.5354 17.2015 16.5681 17.2987C16.6791 17.6317 16.7922 17.962 16.9152 18.2909C16.957 18.3996 16.9182 18.4325 16.8232 18.4624C16.5945 18.5372 16.3692 18.6191 16.1411 18.6989L16.1433 18.6961Z" fill="#680126"/>
<path d="M17.3484 22.1819C17.1275 22.2583 16.9038 22.3324 16.6814 22.4165C16.5941 22.448 16.5436 22.4493 16.5103 22.3471C16.3987 22.0091 16.28 21.6745 16.1585 21.3378C16.1277 21.2556 16.1538 21.2218 16.2289 21.1945C16.6999 21.033 17.1682 20.8694 17.6386 20.7029C17.7186 20.6749 17.7539 20.6932 17.7819 20.7733C17.8956 21.1085 18.0122 21.4459 18.1359 21.7798C18.1673 21.867 18.1469 21.9052 18.0618 21.9338C17.821 22.0126 17.5885 22.098 17.3484 22.1819Z" fill="#680126"/>
<path d="M17.542 22.6867C17.77 22.6069 17.9987 22.5321 18.2211 22.448C18.3177 22.4103 18.3651 22.4245 18.4013 22.5289C18.5088 22.8548 18.624 23.1822 18.7415 23.5068C18.7757 23.5962 18.7637 23.6408 18.6665 23.6735C18.2048 23.8287 17.7465 23.9911 17.2882 24.1535C17.201 24.1849 17.1548 24.1806 17.1193 24.0812C17.0084 23.7482 16.8953 23.418 16.7722 23.089C16.7339 22.9875 16.7708 22.9575 16.8608 22.9283C17.0895 22.8535 17.3147 22.7715 17.5427 22.6917L17.542 22.6867Z" fill="#680126"/>
<path d="M18.961 24.1527C19.0907 24.5137 19.2155 24.8754 19.3473 25.2337C19.3828 25.3331 19.3679 25.3754 19.2635 25.4116C18.8068 25.5662 18.3529 25.7229 17.9025 25.8869C17.8009 25.9252 17.7572 25.9003 17.7267 25.8003C17.6069 25.438 17.4795 25.0742 17.3547 24.7125C17.8868 24.5128 18.4229 24.3252 18.9631 24.1498L18.961 24.1527Z" fill="#680126"/>
<path d="M15.3429 23.0661C15.1083 22.3991 14.8836 21.7309 14.6418 21.0674C14.583 20.9051 14.67 20.8914 14.7759 20.8475C14.8939 20.7995 14.9528 20.8046 15.0034 20.9426C15.4627 22.2778 15.9292 23.6096 16.4035 24.9429C16.4588 25.0981 16.3748 25.1139 16.2732 25.1522C16.1667 25.1912 16.0944 25.2207 16.0419 25.0677C15.8172 24.3994 15.5775 23.733 15.3478 23.0654L15.3429 23.0661Z" fill="#680126"/>
<path d="M13.7415 23.0677C13.8546 23.3979 13.9677 23.7281 14.0908 24.0571C14.1291 24.1586 14.1227 24.2076 14.0062 24.2478C13.5916 24.3945 13.5944 24.3967 13.4471 23.9771C13.2473 23.4045 13.0524 22.8313 12.8455 22.2621C12.8018 22.1385 12.8265 22.0947 12.948 22.0538C13.3418 21.9224 13.3385 21.9154 13.4805 22.3129C13.5684 22.5652 13.6563 22.8175 13.7442 23.0698L13.7415 23.0677Z" fill="#680126"/>
<path d="M20.6208 23.7562C20.7495 23.7119 20.8782 23.6677 21.0091 23.6206C21.0842 23.5933 21.1303 23.5975 21.1567 23.6854C21.2064 23.8362 21.2561 23.987 21.3129 24.1343C21.343 24.2116 21.3281 24.2539 21.2452 24.2797C20.9829 24.3689 20.7184 24.461 20.4568 24.5553C20.3817 24.5826 20.3355 24.5784 20.3091 24.4905C20.2616 24.3369 20.2098 24.1889 20.153 24.0415C20.1159 23.95 20.152 23.9149 20.2349 23.8892C20.3642 23.8498 20.4921 23.8005 20.6208 23.7562Z" fill="#680126"/>
<path d="M19.5384 20.5534C19.6789 20.5228 19.8541 20.3662 19.9897 20.435C20.1145 20.5002 20.1054 20.7269 20.1751 20.8751C20.244 21.0184 20.1977 21.0724 20.0562 21.1158C19.8219 21.1863 19.5896 21.2717 19.36 21.3593C19.2584 21.3976 19.2125 21.3755 19.1813 21.2705C19.1373 21.1241 19.0862 20.9812 19.0322 20.836C19.0049 20.7609 19.026 20.7278 19.0967 20.7061C19.2381 20.6627 19.3761 20.6121 19.5384 20.5534Z" fill="#680126"/>
<path d="M18.3963 17.3646C18.5078 17.325 18.6249 17.2897 18.7358 17.2452C18.8439 17.1984 18.9036 17.2086 18.9401 17.3358C18.9785 17.4779 19.0339 17.6151 19.0845 17.7531C19.1118 17.8282 19.0936 17.8636 19.0207 17.8881C18.7512 17.9808 18.4838 18.0706 18.2178 18.1704C18.1356 18.2012 18.1013 18.1701 18.0739 18.0951C18.0299 17.9486 17.9809 17.8028 17.9247 17.6605C17.8842 17.5617 17.9203 17.5267 18.0131 17.4996C18.1424 17.4603 18.2704 17.411 18.3991 17.3667L18.3963 17.3646Z" fill="#680126"/>
<path d="M18.238 16.9593C18.1265 16.9988 18.006 17.027 17.9014 17.0809C17.7631 17.1492 17.7112 17.1001 17.6762 16.9651C17.6447 16.8374 17.5939 16.7172 17.5481 16.5963C17.5207 16.5212 17.525 16.4751 17.6129 16.4487C17.8802 16.3588 18.1496 16.2661 18.4135 16.169C18.4836 16.1424 18.5225 16.15 18.5477 16.2279C18.598 16.3837 18.6533 16.5389 18.7107 16.6912C18.7381 16.7663 18.7119 16.8 18.6412 16.8217C18.5047 16.8644 18.3717 16.9144 18.2409 16.9615L18.238 16.9593Z" fill="#680126"/>
<path d="M20.2449 22.6964C20.3371 22.6644 20.4292 22.6323 20.5215 22.6002C20.7473 22.5233 20.7496 22.5205 20.8278 22.7563C20.8727 22.89 20.9907 23.0397 20.9393 23.1527C20.8841 23.2763 20.6857 23.2712 20.5505 23.3239C20.3988 23.3863 20.2396 23.4295 20.0901 23.4892C20.0079 23.5199 19.9617 23.5156 19.9318 23.4206C19.8871 23.2692 19.8303 23.1218 19.7756 22.9717C19.7489 22.9016 19.7667 22.8614 19.8424 22.8391C19.9789 22.7963 20.1119 22.7464 20.2427 22.6993L20.2449 22.6964Z" fill="#680126"/>
<path d="M20.0989 22.2865C19.9703 22.3308 19.8389 22.373 19.7137 22.4245C19.6271 22.4609 19.5855 22.4332 19.5597 22.3503C19.5157 22.2039 19.4645 22.0609 19.4083 21.9185C19.3781 21.8413 19.3908 21.8016 19.4759 21.773C19.746 21.6853 20.0126 21.5905 20.2815 21.4928C20.3544 21.4683 20.3919 21.4838 20.4164 21.5567C20.4661 21.7075 20.5158 21.8583 20.5726 22.0057C20.6027 22.0829 20.5879 22.1254 20.505 22.1512C20.3685 22.1939 20.2355 22.2438 20.1018 22.2887L20.0989 22.2865Z" fill="#680126"/>
<path d="M19.3943 20.1414C19.2199 20.2042 19.0812 20.2498 18.9432 20.3003C18.8781 20.3264 18.8428 20.308 18.8218 20.2423C18.7715 20.0865 18.7161 19.9314 18.6587 19.779C18.6251 19.6946 18.6591 19.6624 18.7369 19.6373C18.9993 19.5481 19.2637 19.456 19.5254 19.3617C19.6054 19.3338 19.6502 19.3459 19.6688 19.4322C19.6735 19.4494 19.6803 19.4636 19.685 19.4808C19.7294 19.65 19.8868 19.8302 19.8158 19.9685C19.7513 20.0984 19.5167 20.0877 19.3971 20.1435L19.3943 20.1414Z" fill="#680126"/>
<path d="M21.6826 25.1842C21.7162 25.2686 21.7075 25.3204 21.6025 25.3515C21.3418 25.4329 21.0873 25.5237 20.8312 25.6223C20.7346 25.6599 20.6932 25.6324 20.6661 25.5395C20.6221 25.3931 20.5708 25.25 20.5218 25.1042C20.4979 25.0363 20.5206 24.9954 20.5935 24.9709C20.8929 24.8744 21.1938 24.7701 21.4926 24.6686L21.6826 25.1842Z" fill="#680126"/>
<path d="M18.9941 19.0896C18.8654 19.1339 18.734 19.1761 18.6088 19.2276C18.5266 19.2584 18.4776 19.2519 18.4483 19.1618C18.3987 19.0111 18.3441 18.8609 18.2872 18.7136C18.2599 18.6385 18.2838 18.6076 18.3539 18.5809C18.6234 18.4882 18.8929 18.3955 19.1595 18.3007C19.2324 18.2762 19.2692 18.2866 19.2943 18.3645C19.344 18.5153 19.3937 18.6661 19.4505 18.8134C19.4834 18.8928 19.4608 18.9338 19.3829 18.9589C19.2536 18.9982 19.1256 19.0475 18.997 19.0918L18.9941 19.0896Z" fill="#680126"/>
<path d="M14.0554 28.129C13.9348 27.7795 13.8113 27.4278 13.6928 27.0754C13.9498 27.2023 14.2073 27.3341 14.4643 27.461C14.537 27.4948 14.6119 27.5257 14.6896 27.5589L14.803 27.8713C14.803 27.8713 14.79 27.8883 14.7885 27.8961C14.5677 28.013 14.3302 28.0989 14.0821 28.1407L14.0554 28.129Z" fill="#FFAABE"/>
<path d="M22.6289 24.7162L23.0279 25.8564C22.7633 25.6697 22.5219 25.5054 22.2497 25.3982C22.2216 25.2776 22.3306 25.2181 22.3774 25.1284C22.4528 24.9845 22.5451 24.8536 22.6311 24.7134L22.6289 24.7162Z" fill="#FFAABE"/>
<path d="M12.5681 19.3146C12.3207 19.402 12.0526 19.3069 11.9838 19.1053C11.9156 18.9088 12.0563 18.6805 12.3002 18.586L12.3145 18.5791C12.5646 18.4939 12.8327 18.5889 12.8986 18.7883C12.9668 18.9849 12.8125 19.2251 12.5652 19.3124L12.5681 19.3146Z" fill="#680126"/>
<path d="M13.2383 21.2314C12.9859 21.3194 12.7206 21.2265 12.654 21.0221C12.5852 20.8206 12.7423 20.5825 12.9953 20.4996C13.2432 20.4172 13.5007 20.5085 13.571 20.7023C13.6427 20.906 13.4928 21.1407 13.2404 21.2286L13.2383 21.2314Z" fill="#680126"/>
<path d="M12.6477 19.5429C12.7592 19.5033 12.8723 19.4965 12.9856 19.5301C13.2406 19.6015 13.3298 19.8638 13.1717 20.0741C13.0368 20.2484 12.8564 20.3246 12.6399 20.2965C12.488 20.2779 12.3653 20.2099 12.32 20.0535C12.276 19.9071 12.329 19.7863 12.4294 19.6797C12.4922 19.6159 12.5676 19.5708 12.6498 19.5401L12.6477 19.5429Z" fill="#680126"/>
<path d="M18.3763 31.8403C18.0046 31.9663 17.6335 32.0972 17.2618 32.2232C16.3363 32.5365 15.4114 32.8548 14.4811 33.151C14.1281 33.2644 13.7757 33.3829 13.4261 33.5035C13.3096 33.5437 13.2637 33.5217 13.2263 33.4074C13.0193 32.7977 12.8022 32.1893 12.5902 31.5803C12.5704 31.5245 12.5457 31.4694 12.5259 31.4137L12.233 30.5488C12.247 30.4203 12.3596 30.4085 12.4468 30.3771C12.9923 30.1833 13.5405 29.9916 14.0866 29.8028C14.705 29.5845 15.3241 29.3712 15.9425 29.1529C16.0849 29.1043 16.153 29.0026 16.1467 28.848C16.1467 28.848 16.1517 28.8069 16.1614 28.7828C16.4551 28.682 16.7488 28.5811 17.042 28.4752C17.1435 28.4369 17.1953 28.4455 17.2355 28.5621C17.3282 28.8315 17.3353 28.8281 17.5998 28.736C17.7485 28.6832 17.8485 28.7321 17.8998 28.8827C18.039 29.278 18.0362 29.2759 18.4471 29.1398C18.5493 29.1065 18.6564 28.9915 18.7551 29.0499C18.8375 29.1002 18.8596 29.2342 18.926 29.3169C19.2269 29.6891 19.2664 30.1377 19.3087 30.5885C19.3187 30.686 19.3308 30.7808 19.3435 30.8805C19.0967 30.8335 18.9041 30.9721 18.6953 31.0443C18.6324 31.0676 18.6513 31.1362 18.6733 31.1891C18.7129 31.3006 18.7458 31.4205 18.7926 31.5286C18.8393 31.6367 18.822 31.6997 18.6993 31.7306C18.5887 31.7574 18.4834 31.8064 18.3741 31.8431L18.3763 31.8403Z" fill="#FFD1E3"/>
<path d="M16.1614 28.783C16.226 28.9977 16.1515 29.1424 15.938 29.217C14.7592 29.631 13.5797 30.04 12.4009 30.454C12.3401 30.4744 12.2731 30.4855 12.2331 30.5489C12.1127 30.0828 11.9345 29.6392 11.7899 29.1813C11.7214 28.9619 11.7386 28.9393 11.9595 28.863C12.6486 28.623 13.34 28.3802 14.0291 28.1402C14.0391 28.1389 14.0512 28.1348 14.0605 28.1286C14.3188 28.0677 14.5634 27.9782 14.8054 27.8687C15.0649 27.7773 15.3228 27.6937 15.5789 27.5951C15.6926 27.5528 15.7469 27.5813 15.7843 27.6956C15.9068 28.0601 16.0367 28.4213 16.1636 28.7801L16.1614 28.783Z" fill="#EA4164"/>
<path d="M21.2368 16.1504C21.4416 16.7223 21.6464 17.2943 21.8462 17.8669C23.1916 21.7171 24.5349 25.57 25.8804 29.4202C25.9124 29.5124 25.9474 29.6068 25.9816 29.6963C25.8395 29.7347 25.7393 29.8235 25.6854 29.9571C25.6411 30.0666 25.5725 30.0855 25.4661 30.0661C25.3491 30.043 25.2505 29.9847 25.1503 29.9341C25.0635 29.8895 25.0058 29.8943 24.9336 29.9643C24.6133 30.2738 24.6105 30.2716 24.4659 29.8542C24.0233 28.5903 23.5828 27.3236 23.1374 26.0576C23.1169 25.9968 23.0916 25.9368 23.0684 25.8738C22.8638 25.2841 22.6593 24.6943 22.4526 24.1074C21.1432 20.3616 19.836 16.613 18.5267 12.8671C18.5103 12.8185 18.4968 12.7722 18.4833 12.7257C18.6578 12.6629 18.8453 12.7226 19.0285 12.6486C19.2403 12.5607 19.4281 12.4633 19.5836 12.2914C19.7745 12.0795 19.7829 12.086 19.8771 12.3477C20.3006 13.5608 20.724 14.7738 21.1497 15.9841C21.1701 16.0448 21.1718 16.1181 21.2395 16.1525L21.2368 16.1504Z" fill="#8D0C34"/>
<path d="M20.3969 32.6621C20.373 32.4953 20.4812 32.4487 20.6111 32.4143C20.7482 32.3766 20.8875 32.3359 21.0136 32.2717C21.4106 32.0664 21.7473 32.1831 22.0664 32.4389C22.1873 32.5324 22.2968 32.6351 22.4133 32.7343C22.4646 32.7784 22.4999 32.8372 22.481 32.908C22.3907 33.2921 22.2707 33.6622 21.9749 33.9458C21.9164 34.004 21.8447 34.0384 21.7647 34.0664C21.4294 34.1801 21.0928 34.3017 20.7576 34.4155C20.6704 34.4469 20.6052 34.4729 20.6554 34.5881C20.6974 34.6791 20.6507 34.7104 20.5592 34.7474C20.2486 34.8757 19.9277 34.9825 19.6102 35.0966C19.528 35.1273 19.5451 35.181 19.5655 35.2417C19.6161 35.3797 19.6644 35.5205 19.7128 35.6613C19.7919 35.8844 19.7398 35.9519 19.4947 35.9376C19.3398 35.4986 19.1927 35.0612 19.0329 34.6229C18.9905 34.5092 19.0077 34.4461 19.1289 34.423C19.243 34.4034 19.2582 34.3433 19.2193 34.2367C19.088 33.8835 18.971 33.5232 18.8425 33.1722C18.8008 33.0635 18.8116 33.0089 18.9331 32.968C19.2082 32.8797 19.482 32.7814 19.7509 32.6837C19.8381 32.6523 19.9192 32.6522 20.0087 32.6585C20.1388 32.6647 20.2691 32.6936 20.3969 32.6621Z" fill="#FFD1E3"/>
<path d="M23.1532 32.1204C23.2554 32.0871 23.3558 32.0793 23.46 32.1015C23.7492 32.1634 23.8509 32.4444 23.6626 32.6763C23.5423 32.8259 23.3814 32.8947 23.1874 32.884C23.0318 32.876 22.9003 32.8192 22.8372 32.6625C22.7707 32.4987 22.8374 32.366 22.9494 32.2503C23.0078 32.1922 23.0781 32.1477 23.156 32.1225L23.1532 32.1204Z" fill="#680126"/>
<path d="M23.7147 33.8174C23.6847 33.8212 23.619 33.8423 23.5557 33.8427C23.3692 33.8513 23.2178 33.7567 23.1654 33.6037C23.1142 33.4607 23.1671 33.2994 23.3118 33.1821C23.4406 33.0795 23.5913 33.0298 23.7538 33.0521C23.9036 33.0735 24.0234 33.1393 24.0759 33.2923C24.1249 33.4381 24.067 33.5595 23.9693 33.6683C23.9093 33.7343 23.8333 33.7744 23.7147 33.8174Z" fill="#680126"/>
<path d="M24.1246 34.7461C23.9795 34.8001 23.8746 34.8133 23.7726 34.7883C23.6422 34.7594 23.5373 34.6917 23.4974 34.5574C23.4546 34.421 23.4892 34.2949 23.5903 34.1933C23.7181 34.063 23.8707 33.9877 24.0631 34.0063C24.2272 34.0208 24.3599 34.0875 24.4164 34.2526C24.4648 34.3934 24.3998 34.5589 24.2538 34.6662C24.2006 34.7059 24.1433 34.7335 24.1296 34.7454L24.1246 34.7461Z" fill="#680126"/>
<path d="M7.607 12.6314C7.22265 12.797 6.86185 12.81 6.49216 12.6139C6.16899 12.4448 6.04412 11.9032 6.12891 11.6542C6.22267 11.3761 6.4875 11.3068 6.73803 11.2444C7.09919 11.1552 7.46282 11.1848 7.8253 11.245C7.96786 11.2699 8.09722 11.3295 8.21622 11.4081C8.39582 11.5246 8.44916 11.7636 8.35964 11.9955C8.21994 12.3504 7.96003 12.5584 7.60757 12.6363L7.607 12.6314Z" fill="#FFD1E3"/>
<path d="M8.20869 13.2769C8.18768 13.3505 8.1673 13.4292 8.14412 13.5056C8.07751 13.7118 7.94102 13.7875 7.73467 13.7327C7.52832 13.678 7.45535 13.5556 7.51555 13.3655C7.61101 13.0213 7.61089 13.0212 7.94175 13.1513C8.03226 13.1854 8.13401 13.1877 8.2094 13.2819L8.20869 13.2769Z" fill="#FFD1E3"/>
<path d="M18.4377 39.75C18.0695 39.8832 17.7303 39.9264 17.3915 39.7542C16.9984 39.5535 16.9124 39.1768 16.9495 38.7919C16.9631 38.6407 17.0818 38.5393 17.2164 38.4815C17.7842 38.2241 18.3623 38.2263 18.9378 38.4468C19.2044 38.5496 19.2845 38.7599 19.2107 39.0355C19.0985 39.4477 18.7857 39.6372 18.4377 39.75Z" fill="#FFD1E3"/>
<path d="M18.85 40.9133C18.7635 40.8914 18.6664 40.8657 18.5744 40.8395C18.3676 40.7814 18.2967 40.6486 18.3614 40.441C18.4261 40.2333 18.5605 40.1679 18.7646 40.2449C18.9687 40.3219 19.0374 40.456 18.9706 40.647C18.9489 40.7157 18.9295 40.7815 18.9078 40.8502C18.901 40.8764 18.8942 40.9025 18.8549 40.9126L18.85 40.9133Z" fill="#FFD1E3"/>
<path d="M10.8214 14.4087C10.7965 14.4118 10.7478 14.4281 10.6995 14.4267C10.5872 14.4208 10.478 14.3992 10.4321 14.2783C10.385 14.1475 10.4575 14.0597 10.5518 13.9844C10.5885 13.9543 10.6365 13.933 10.6801 13.9173C10.8688 13.8476 11.0564 13.9073 11.1042 14.0431C11.1491 14.1768 11.0308 14.3414 10.8214 14.4087Z" fill="#FFAABE"/>
<path d="M11.1491 15.3676C11.1491 15.3676 11.0927 15.3824 11.0522 15.3825C10.9334 15.385 10.8164 15.362 10.77 15.2361C10.7194 15.0981 10.8018 15.009 10.9011 14.933C10.9356 14.9058 10.9763 14.8878 11.0178 14.8749C11.2022 14.8108 11.397 14.8671 11.4419 15.0008C11.4868 15.1344 11.3706 15.2962 11.1519 15.3697L11.1491 15.3676Z" fill="#FFAABE"/>
<path d="M25.7127 39.4447C25.6376 39.472 25.5623 39.4766 25.4871 39.4634C25.3985 39.4443 25.3223 39.4033 25.2902 39.3111C25.2603 39.2161 25.2964 39.1406 25.3586 39.0718C25.441 38.9827 25.544 38.9365 25.6621 38.9291C25.7881 38.9231 25.9095 38.9406 25.9572 39.0764C26.005 39.2123 25.9254 39.3035 25.8261 39.3796C25.7916 39.4068 25.7501 39.4197 25.7122 39.4397L25.7127 39.4447Z" fill="#FFAABE"/>
<path d="M11.4826 16.3309C11.4826 16.3309 11.4263 16.3457 11.3857 16.3459C11.2669 16.3483 11.1521 16.3225 11.1057 16.1966C11.0614 16.068 11.1309 15.9779 11.2252 15.9025C11.2597 15.8753 11.2978 15.8553 11.3386 15.8374C11.5267 15.7627 11.732 15.8227 11.7754 15.9641C11.8182 16.1006 11.7013 16.2574 11.4826 16.3309Z" fill="#FFAABE"/>
<path d="M25.3572 38.4864C25.3572 38.4864 25.3136 38.5021 25.2808 38.5038C25.1427 38.5138 25.0093 38.5005 24.959 38.3447C24.9128 38.2011 25.0073 38.1079 25.1172 38.0356C25.1452 38.0168 25.1739 38.003 25.2053 37.9914C25.3919 37.9245 25.5817 37.9814 25.6295 38.1172C25.6778 38.258 25.5681 38.4114 25.3594 38.4836L25.3572 38.4864Z" fill="#FFAABE"/>
<path d="M24.3592 35.6105C24.3293 35.6143 24.2808 35.6307 24.2331 35.6343C24.1121 35.6396 24.0015 35.608 23.9551 35.4821C23.9092 35.3613 23.9789 35.2713 24.066 35.1994C24.1488 35.1331 24.2482 35.0976 24.352 35.097C24.4786 35.096 24.5968 35.1291 24.6259 35.2774C24.6537 35.4158 24.5841 35.5058 24.4652 35.5666C24.4365 35.5804 24.405 35.592 24.357 35.6133L24.3592 35.6105Z" fill="#FF7B9A"/>
<path d="M12.1725 18.24C12.1725 18.24 12.1217 18.2591 12.0862 18.2586C11.9574 18.2623 11.8245 18.2539 11.7755 18.1081C11.7258 17.9573 11.8176 17.862 11.9374 17.7884C11.9654 17.7696 11.9941 17.7559 12.0256 17.7442C12.1979 17.6842 12.3947 17.7376 12.4412 17.8635C12.4933 17.9937 12.3784 18.1656 12.1725 18.24Z" fill="#FFD1E3"/>
<path d="M11.8323 17.2851C11.8323 17.2851 11.7787 17.3021 11.741 17.3043C11.6122 17.3081 11.4809 17.2919 11.4319 17.1461C11.3863 17.0075 11.4716 16.9206 11.5737 16.8468C11.6039 16.8252 11.6396 16.8079 11.676 16.7956C11.8598 16.7265 12.0546 16.7828 12.1045 16.9158C12.1523 17.0517 12.041 17.2128 11.8323 17.2851Z" fill="#FFAABE"/>
<path d="M24.682 36.5704C24.682 36.5704 24.6234 36.5881 24.5807 36.591C24.4548 36.5969 24.3328 36.5745 24.2851 36.4387C24.2401 36.305 24.3218 36.2108 24.4239 36.137C24.4562 36.1126 24.4999 36.0969 24.5407 36.079C24.7251 36.0149 24.9043 36.0681 24.9514 36.199C25.0041 36.3342 24.8929 36.4954 24.6798 36.5732L24.682 36.5704Z" fill="#FFAABE"/>
<path d="M25.0706 37.5092C24.9591 37.5488 24.8842 37.5583 24.8084 37.5401C24.6134 37.5016 24.5484 37.33 24.6703 37.1725C24.7638 37.0516 24.8947 37.0046 25.0447 37.0082C25.1542 37.012 25.2503 37.0504 25.2899 37.162C25.3273 37.2763 25.2726 37.3643 25.1876 37.4335C25.1416 37.4697 25.0893 37.4967 25.0728 37.5064L25.0706 37.5092Z" fill="#FFAABE"/>
<path d="M14.8031 27.8714C14.5687 28.0001 14.322 28.0925 14.0583 28.1312L14.8031 27.8714Z" fill="#ABABA9"/>
<path d="M12.5198 19.1973C12.3397 19.2558 12.1555 19.2031 12.1084 19.0723C12.0585 18.9393 12.1713 18.7704 12.3557 18.7063C12.5374 18.64 12.7355 18.7034 12.7804 18.8371C12.8254 18.9707 12.707 19.1354 12.5198 19.1973Z" fill="#FFD1E3"/>
<path d="M13.2196 21.1044C13.1252 21.1392 13.0548 21.1432 12.9824 21.1321C12.8867 21.1165 12.8032 21.0789 12.7721 20.9739C12.7422 20.8789 12.7832 20.8027 12.8432 20.7368C12.9256 20.6477 13.0266 20.6044 13.1447 20.5969C13.2728 20.5882 13.3926 20.6134 13.4404 20.7493C13.4881 20.8851 13.4035 20.977 13.3015 21.0508C13.2669 21.078 13.2283 21.0931 13.2118 21.1028L13.2196 21.1044Z" fill="#FFD1E3"/>
<path d="M12.8524 20.1553C12.8524 20.1553 12.821 20.167 12.8061 20.169C12.6384 20.2056 12.4863 20.1463 12.4411 20.0305C12.3981 19.9118 12.4764 19.7701 12.6312 19.692C12.6455 19.6851 12.6598 19.6782 12.6769 19.6735C12.8651 19.5988 13.0704 19.6587 13.1159 19.7974C13.1587 19.9338 13.0425 20.0957 12.8553 20.1576L12.8524 20.1553Z" fill="#FFD1E3"/>
<path d="M23.2018 32.2434C23.3863 32.1793 23.5633 32.2354 23.6132 32.3684C23.6604 32.4992 23.5541 32.6597 23.3753 32.7282C23.1965 32.7966 22.9967 32.741 22.949 32.6051C22.9012 32.4693 23.0146 32.3053 23.204 32.2406L23.2018 32.2434Z" fill="#FF7B9A"/>
<path d="M23.4841 33.2208C23.5972 33.1735 23.6748 33.1661 23.75 33.1793C23.8408 33.1956 23.9148 33.2394 23.9469 33.3316C23.9817 33.426 23.9407 33.5022 23.8785 33.5709C23.7824 33.6719 23.6644 33.7199 23.5265 33.7121C23.4171 33.7084 23.3187 33.6728 23.2813 33.5584C23.2446 33.4491 23.295 33.3667 23.3749 33.2982C23.4181 33.2597 23.4755 33.2322 23.487 33.2231L23.4841 33.2208Z" fill="#FF7B9A"/>
<path d="M24.0418 34.65C23.9467 34.6799 23.8584 34.6835 23.7713 34.6566C23.6028 34.6071 23.5526 34.4514 23.6557 34.3064C23.7415 34.184 23.873 34.1418 24.0117 34.1368C24.1227 34.1328 24.2354 34.1615 24.2768 34.288C24.3211 34.4167 24.2571 34.511 24.1601 34.5842C24.1205 34.6121 24.0754 34.6356 24.0396 34.6528L24.0418 34.65Z" fill="#FF7B9A"/>
<path d="M6.67381 12.0941C6.52866 11.6716 6.69134 11.4379 7.13659 11.4318C7.32367 11.4282 7.50833 11.4452 7.68156 11.5118C7.89225 11.5938 7.99845 11.7704 7.82813 11.9847C7.66869 12.185 7.49986 12.3511 7.2428 12.4219C6.96643 12.5003 6.74276 12.3767 6.67093 12.0919L6.67381 12.0941Z" fill="#FF87AF"/>
<path d="M18.1563 39.5095C17.9597 39.5777 17.7623 39.6003 17.6172 39.4161C17.4664 39.2275 17.4078 39.0069 17.4867 38.7713C17.5276 38.6546 17.6281 38.5885 17.7416 38.5639C18.0326 38.5014 18.3168 38.5234 18.5871 38.6562C18.7601 38.7405 18.7966 38.8677 18.696 39.0326C18.5663 39.2468 18.4014 39.425 18.1534 39.5073L18.1563 39.5095Z" fill="#D7355B"/>
<path d="M18.8621 39.899C18.9245 41.0036 19.8711 41.8483 20.9773 41.7781L33.662 40.9878C34.7559 40.9217 35.5892 39.9841 35.528 38.8895L33.7319 6.19328C33.6695 5.0887 32.7227 4.24387 31.6165 4.3141L18.932 5.10445C17.838 5.17059 17.0048 6.10818 17.0659 7.20279L18.8621 39.899Z" fill="#C8F1E6"/>
<path d="M32.4984 41.1029L33.66 40.9901C34.7539 40.924 35.5872 39.9864 35.526 38.8918L33.7299 6.19557C33.6675 5.09098 32.7207 4.24616 31.6146 4.31638L30.3499 4.43475L32.4962 41.1057L32.4984 41.1029Z" fill="#A0E1D0"/>
<path d="M20.1061 4.98711L18.9446 5.09986C17.8506 5.166 17.0174 6.10359 17.0785 7.1982L18.8746 39.8944C18.9371 40.999 19.8837 41.8437 20.9898 41.7735L22.2546 41.6552L20.1083 4.98431L20.1061 4.98711Z" fill="#A0E1D0"/>
<path d="M29.9135 13.2438C29.9135 13.2438 27.6911 15.3496 27.5247 18.6325C27.5247 18.6325 25.507 12.5137 23.4948 12.6337L19.2677 27.5048C19.2677 27.5048 18.9749 30.3932 22.2375 30.2023C25.5001 30.0114 27.2976 25.5497 27.4744 21.5736C27.4744 21.5736 28.2915 28.1345 30.9561 29.0362L29.9164 13.246L29.9135 13.2438Z" fill="#E7FBF4"/>
<path d="M33.5196 36.2235L31.8149 7.13517L29.6287 7.26329L31.3333 36.3516L33.5196 36.2235Z" fill="#63BBA7"/>
<path d="M29.5296 7.36017L30.033 6.89558L29.8786 6.75814L29.864 6.54461L30.128 6.52855L30.2733 6.65447L30.4086 6.5029L30.9118 6.47422L31.0312 6.33729L31.1483 6.44143L31.7043 6.40853L31.734 6.89897L31.9503 6.88655L31.961 7.07014L32.1559 7.20744L31.9786 7.3669L31.9895 7.5506L31.7731 7.56302L31.8005 8.05616L31.2418 8.08693L31.1399 8.20137L31.0058 8.08416L30.5025 8.11284L30.3483 7.97551L30.2195 8.11865L29.9555 8.1346L29.9431 7.91826L30.0804 7.76377L29.5296 7.36017Z" fill="#4B9F89"/>
<path d="M29.8375 36.6352L29.7843 35.7221L29.5092 35.4733L29.796 35.2187L29.7729 34.8592L30.1436 34.8448L30.9255 34.0608L31.1553 34.2926L32.1111 34.2364L32.3568 33.977L33.2095 34.6411L33.5469 34.6234L33.5683 34.9906L33.8179 35.1792L33.5932 35.4234L33.6509 36.4119L33.7093 37.4056L33.9593 37.617L33.7341 37.8383L33.7557 38.2056L33.4212 38.2255L32.6539 38.9849L32.3764 38.7567L31.4177 38.8106L31.2197 39.0665L30.3518 38.3815L29.983 38.4109L29.9621 38.0486L29.6453 37.8305L29.8912 37.5533L29.8375 36.6352Z" fill="#4B9F89"/>
<path d="M32.3903 36.5426L32.0672 37.0298L31.5337 36.7025L31.8795 36.1744L32.3903 36.5426Z" fill="#F5EFDA"/>
<path d="M32.4528 37.5888L32.1296 38.076L31.5913 37.7494L31.9391 37.2184L32.4528 37.5888Z" fill="#F5EFDA"/>
<path d="M33.1017 35.2683L32.3312 35.0094C32.3312 35.0094 31.6152 35.9118 30.1653 35.8105C30.1653 35.8105 31.6395 36.5599 33.1017 35.2683Z" fill="#F5EFDA"/>
<path d="M19.0694 9.49358C19.0411 9.01316 19.3125 8.79614 19.3125 8.79614C19.1926 7.77745 19.7233 7.56774 19.7233 7.56774L19.6966 7.12003L22.0588 6.98325L22.0833 7.39327C22.8259 7.81042 22.6282 8.62383 22.6282 8.62383C22.875 8.81028 22.8425 9.27057 22.8425 9.27057C22.8425 9.27057 22.9281 9.72337 22.7045 9.93692C22.7045 9.93692 22.9971 10.7207 22.3084 11.2217L22.3329 11.6317L19.9707 11.7685L19.9439 11.3208C19.9439 11.3208 19.3934 11.1781 19.3917 10.1519C19.3917 10.1519 19.0972 9.96908 19.071 9.48584L19.0694 9.49358Z" fill="#4B9F89"/>
<path d="M21.5304 9.35699L21.2053 9.84709L20.6719 9.51983L21.0197 8.98881L21.5304 9.35699Z" fill="#F5EFDA"/>
<path d="M21.5932 10.4028L21.268 10.8929L20.7317 10.5634L21.0824 10.0346L21.5932 10.4028Z" fill="#F5EFDA"/>
<path d="M22.2422 8.08253L21.4716 7.82351C21.4716 7.82351 20.7556 8.72589 19.3057 8.62457C19.3057 8.62457 20.78 9.3741 22.2422 8.08253Z" fill="#F5EFDA"/>
<path d="M19.9072 36.8035L18.177 7.2786L17.6588 7.30897L19.3891 36.8338L19.9072 36.8035Z" fill="#4B9F89"/>
<path d="M24.6443 25.6732L25.4771 25.6252L25.5541 25.4735L25.8608 25.4546L25.9289 25.7096L26.837 25.657C26.837 25.657 27.0293 25.4956 27.0911 25.6423C27.1529 25.789 27.3333 25.8116 27.4878 25.7514C27.6423 25.6911 27.8727 25.6312 27.9862 25.7459C28.0997 25.8607 28.3704 25.8364 28.3704 25.8364L28.3733 25.8791C28.3733 25.8791 28.098 25.8863 28.0001 26.0129C27.9022 26.1394 27.6672 26.106 27.505 26.0659C27.3449 26.0229 27.1658 26.0686 27.1216 26.2187C27.0774 26.3688 26.8675 26.2334 26.8675 26.2334L25.9594 26.286L25.9214 26.5443L25.6146 26.5632L25.5229 26.4203L24.6901 26.4683L24.6451 25.6783L24.6443 25.6732Z" fill="#63BBA7"/>
<path d="M19.2184 27.2602L23.8646 26.989L24.8869 27.1551L25.0162 25.3493L23.9216 25.2711L19.1401 25.5545L19.2184 27.2602Z" fill="#4B9F89"/>
<path d="M24.9738 25.9273L25.6529 25.8863L25.6456 25.7503C25.6456 25.7503 26.8498 25.7334 27.1757 24.9518C27.5017 24.1702 27.7649 24.167 27.7649 24.167C27.7649 24.167 27.3993 24.082 26.9329 23.5054C26.4665 22.9288 25.5748 22.9717 25.5748 22.9717L25.4797 22.7228L24.7651 22.7633L24.976 25.9245L24.9738 25.9273Z" fill="#4B9F89"/>
<path d="M23.4787 12.6082L18.3997 12.9042L19.1401 25.5546L23.9215 25.2712L25.0162 25.3494L24.8306 22.2078L24.9364 21.2693L24.5237 21.2916L24.1378 18.7052L23.4787 12.6082Z" fill="#63BBA7"/>
<path d="M18.8421 20.4783L18.7849 19.4946C18.7849 19.4946 22.9548 19.264 23.5415 19.2145C24.1282 19.1649 23.7486 19.0106 24.1713 18.9465C24.5911 18.8803 24.6711 19.2883 24.6711 19.2883L25.5615 19.2355L25.9876 19.4572L28.3389 19.294L29.229 19.0207L29.2464 19.3353L30.6765 19.1426L30.8286 19.3817L31.3568 19.3498L31.7349 19.1748L32.0331 19.4864L32.1799 19.4652C32.5409 19.2949 32.6635 19.5606 32.6635 19.5606L33.3416 19.6312L32.6788 19.7792C32.6788 19.7792 32.585 20.0573 32.2065 19.9307L32.0586 19.9242L31.801 20.2688L31.4046 20.1419L30.8766 20.1739L30.7547 20.4302L29.3122 20.4065L29.3296 20.7211L28.4139 20.5566L26.0585 20.6672L25.662 20.9358L24.7715 20.9886C24.7715 20.9886 24.7405 21.4006 24.3154 21.3864C23.8876 21.3701 24.2476 21.1721 23.6571 21.1917C23.0693 21.2135 18.9005 21.4719 18.9005 21.4719L18.8434 20.4883L18.8421 20.4783Z" fill="#4B9F89"/>
<path d="M26.113 37.2478L25.8513 32.783L25.4822 32.8047L25.7439 37.2694L26.113 37.2478Z" fill="#4B9F89"/>
<path d="M24.555 35.8815L24.4163 33.5143L23.852 33.5474L23.9907 35.9146L24.555 35.8815Z" fill="#4B9F89"/>
<path d="M19.1643 37.6374C18.7516 38.6531 19.249 39.8111 20.2685 40.2131L31.9731 44.8496C32.9819 45.248 34.1235 44.7602 34.5324 43.7551L46.6955 13.6818C47.1082 12.6661 46.6106 11.5081 45.5912 11.106L33.8866 6.46949C32.8777 6.07112 31.7362 6.55894 31.3272 7.56403L19.1643 37.6374Z" fill="#F9A919"/>
<path d="M44.5978 18.8511L36.3478 15.5477C36.3478 15.5477 35.7661 16.8282 34.2407 16.2145C32.7159 15.6058 33.4898 14.402 33.4898 14.402L29.2379 12.6993L26.0252 20.7274L41.3901 26.8785L44.6028 18.8504L44.5978 18.8511Z" fill="#FFCB82"/>
<path d="M32.9375 41.901L31.7865 44.7773L20.1243 40.1557L21.2753 37.2794L32.9375 41.901Z" fill="#FFBC5C"/>
<path d="M22.3897 36.559C22.3897 36.559 22.9858 35.9279 23.75 36.0382C24.5142 36.1484 25.3798 36.7552 25.3599 37.7106C25.3427 38.6682 25.5428 38.9443 25.5428 38.9443C25.5428 38.9443 25.2055 39.0026 24.5584 39.7111C23.9108 40.4147 22.8671 40.259 22.2374 39.8123C21.6076 39.3655 21.6106 38.4959 21.6106 38.4959L22.387 36.5569L22.3897 36.559Z" fill="#D28428"/>
<path d="M32.5952 35.0513C34.2882 35.7273 36.2106 34.9041 36.8894 33.2133C36.9988 32.9383 37.0698 32.6606 37.1002 32.383C38.014 32.0966 38.7965 31.4164 39.1785 30.4578C39.5471 29.5339 39.471 28.54 39.0494 27.7195C39.1283 27.5827 39.1987 27.4394 39.2607 27.2896C39.9366 25.5966 39.1135 23.6742 37.4226 22.9954C37.2331 22.9208 37.0434 22.8639 36.8534 22.8248C36.6175 21.8108 35.9062 20.9233 34.8643 20.5039C34.0549 20.1789 33.1906 20.198 32.4374 20.4918C30.7567 19.8523 28.8699 20.676 28.1992 22.3506C27.6517 23.7205 28.0834 25.2366 29.1624 26.1253C29.0048 26.3405 28.8733 26.5804 28.7692 26.8369C28.0932 28.53 28.9164 30.4523 30.6072 31.1311C30.6129 31.1355 30.6236 31.1392 30.6314 31.1408C30.2108 32.7302 31.0295 34.4199 32.5974 35.0485L32.5952 35.0513Z" fill="#FFBC5C"/>
<path d="M23.3641 34.1264L28.3716 36.1304C28.3716 36.1304 29.9183 36.6123 31.9348 35.2955C33.9513 33.9788 35.0199 34.1313 35.0199 34.1313L35.9572 34.5059L36.0608 34.2443L35.1714 33.8889C35.1714 33.8889 34.298 33.0425 33.7831 31.4305C33.2682 29.8185 32.5587 28.4291 30.537 27.6202L25.3239 29.2284L23.3641 34.1264Z" fill="#D28428"/>
<path d="M24.0385 32.441L28.0261 34.0381L28.3994 33.3695L30.2473 33.5315L31.8661 34.1815C31.8661 34.1815 32.2654 34.2522 32.6821 34.0621C33.0988 33.8721 33.7806 33.595 34.476 33.7419C34.476 33.7419 33.8638 33.3537 33.5686 32.7882C33.2762 32.2249 33.467 31.8331 32.3268 31.378L31.1703 30.9148L29.6885 29.5708L24.3213 31.7384L24.0413 32.4431L24.0385 32.441Z" fill="#F9A919"/>
<path d="M31.4435 24.8968L33.5614 25.7442L34.1899 25.8033L34.6974 26.0072L34.5645 26.3359L35.5605 26.7333L35.9888 26.7141L36.261 26.8213L36.3142 27.1591L37.0035 27.4361L37.3259 27.4608L37.5544 27.7814L37.9898 27.9564C37.9898 27.9564 38.6507 28.0317 38.6531 28.3482L39.2886 28.6016L38.5829 28.4332C38.5829 28.4332 38.1556 28.5207 37.9247 28.2207L37.3663 27.9955L37.3124 28.1291L37.2584 28.2626L37.8169 28.488C38.1897 28.4302 38.4382 28.7888 38.4382 28.7888L39.065 29.1523L38.4294 28.8988C38.2127 29.1267 37.6796 28.7233 37.6796 28.7233L37.2443 28.5484L36.8562 28.6257L36.6069 28.4194L35.9177 28.1423L35.6451 28.3495L35.3729 28.2423L35.0774 27.9328L34.0814 27.5354L33.9485 27.864L33.441 27.6602L32.9476 27.2695L30.8298 26.4222L31.4407 24.8946L31.4435 24.8968Z" fill="#D28428"/>
<path d="M29.1305 19.7178L32.2605 20.9705L32.4355 20.4946L32.6747 21.1382L33.2113 21.351L28.4023 33.3717L24.3214 31.7384L29.1305 19.7178Z" fill="#B66D1C"/>
<path d="M33.1309 37.7179L31.9192 37.239C31.3508 37.0151 30.7067 37.2899 30.4799 37.8561L28.2471 43.3744L28.8556 43.616L31.5278 44.6764L33.7526 39.1743C33.9837 38.6024 33.7055 37.9512 33.1315 37.7229L33.1309 37.7179Z" fill="#D28428"/>
<path d="M21.7601 38.3023L32.8108 10.6963L31.5368 10.1863L20.4861 37.7923L21.7601 38.3023Z" fill="#B66D1C"/>
<path d="M31.873 12.0589C31.6419 12.6307 31.9201 13.282 32.4941 13.5103L33.7058 13.9892C34.2742 14.2132 34.9184 13.9384 35.1452 13.3722L37.378 7.8538L36.0221 7.31728L34.0978 6.55682L31.873 12.0589Z" fill="#D28428"/>
<path d="M32.1924 40.3135C32.1924 40.3135 31.1269 40.5636 30.4188 40.3169L30.3819 40.4052C30.3819 40.4052 31.164 40.7945 31.6268 40.7076C31.6268 40.7076 31.309 41.1764 32.0889 41.4291L32.1369 41.309C32.1369 41.309 31.8175 41.2281 31.9461 40.9456C32.0748 40.6631 32.5008 40.5656 32.5008 40.5656L32.1896 40.3114L32.1924 40.3135Z" fill="#F9A919"/>
<path d="M31.2135 41.5386L30.8467 41.7627L30.595 41.3792L30.9898 41.1363L31.2135 41.5386Z" fill="#F9A919"/>
<path d="M30.9292 42.2488L30.5624 42.473L30.3108 42.0896L30.7055 41.8466L30.9292 42.2488Z" fill="#F9A919"/>
<path d="M34.0839 9.54368L33.7396 9.40769L34.1659 8.33954C34.2907 8.40469 34.4026 8.4867 34.4948 8.59404C34.5893 8.69856 34.6955 8.87516 34.8206 9.12024C34.9187 9.31299 34.9878 9.43839 35.0297 9.48879C35.0904 9.56721 35.158 9.61947 35.2379 9.64982C35.3234 9.68452 35.3951 9.69052 35.4508 9.67073C35.5088 9.64813 35.552 9.60968 35.5743 9.54601C35.6282 9.41242 35.5552 9.29753 35.3589 9.20855L35.5176 8.92229C35.7074 9.0197 35.8308 9.13317 35.8851 9.26056C35.9394 9.38795 35.9394 9.52732 35.8803 9.67933C35.8152 9.84476 35.7091 9.94696 35.5677 9.99036C35.4262 10.0338 35.2856 10.0238 35.1442 9.96839C35.0643 9.93804 34.9932 9.89651 34.9257 9.8443C34.861 9.79426 34.7993 9.72858 34.7393 9.65515C34.6814 9.5789 34.6163 9.46562 34.5389 9.31584C34.4677 9.1754 34.4207 9.08509 34.395 9.04275C34.3722 9.00258 34.3449 8.96802 34.3184 8.93847L34.0761 9.54214L34.0839 9.54368Z" fill="#F9A919"/>
<path d="M35.3926 10.9021C35.3312 11.0569 35.2089 11.151 35.0235 11.1874C34.838 11.2237 34.565 11.1698 34.1989 11.0214C33.8327 10.873 33.5961 10.7259 33.4903 10.5722C33.3817 10.4162 33.3598 10.2644 33.4189 10.1124C33.4781 9.96039 33.6025 9.86337 33.7851 9.82485C33.9677 9.78634 34.2436 9.84245 34.6148 9.99022C34.9859 10.138 35.2125 10.2864 35.3233 10.4395C35.4319 10.5954 35.4539 10.7473 35.3947 10.8993L35.3926 10.9021ZM35.0829 10.7794C35.1059 10.7207 35.0876 10.6571 35.0203 10.5872C34.9559 10.5193 34.7746 10.4285 34.4806 10.3089C34.1865 10.1893 33.9917 10.133 33.8985 10.1373C33.8053 10.1416 33.7487 10.1742 33.7236 10.2357C33.6985 10.2972 33.7217 10.3601 33.7861 10.4279C33.8505 10.4957 34.0319 10.5866 34.326 10.7062C34.62 10.8258 34.8147 10.882 34.9079 10.8777C35.0011 10.8734 35.0606 10.843 35.0857 10.7815L35.0829 10.7794Z" fill="#F9A919"/>
<path d="M34.8987 12.1335C34.8373 12.2883 34.715 12.3825 34.5296 12.4188C34.3441 12.4552 34.0711 12.4013 33.705 12.2529C33.3388 12.1045 33.1022 11.9574 32.9964 11.8036C32.8878 11.6477 32.8659 11.4959 32.925 11.3438C32.9842 11.1918 33.1086 11.0948 33.2912 11.0563C33.4739 11.0178 33.7497 11.0739 34.1209 11.2217C34.492 11.3694 34.7186 11.5178 34.8294 11.6709C34.938 11.8269 34.96 11.9787 34.9008 12.1307L34.8987 12.1335ZM34.5891 12.0109C34.612 11.9522 34.5937 11.8886 34.5264 11.8186C34.462 11.7508 34.2807 11.66 33.9867 11.5404C33.6926 11.4208 33.4978 11.3645 33.4046 11.3688C33.3114 11.3731 33.2548 11.4057 33.2297 11.4672C33.2046 11.5287 33.2278 11.5915 33.2922 11.6593C33.3566 11.7272 33.538 11.8181 33.8321 11.9377C34.1261 12.0573 34.3208 12.1135 34.414 12.1092C34.5072 12.1049 34.5667 12.0745 34.5918 12.013L34.5891 12.0109Z" fill="#F9A919"/>
<path d="M36.0295 21.249L37.7405 16.9748L37.3873 16.8335L35.6764 21.1076L36.0295 21.249Z" fill="#B66D1C"/>
<path d="M34.865 20.2044L35.7727 17.9369L35.2314 17.7202L34.3237 19.9877L34.865 20.2044Z" fill="#B66D1C"/>
<path d="M42.8822 14.8403C43.5314 15.3425 44.4648 15.2234 44.967 14.5742C45.4692 13.9251 45.35 12.9917 44.7008 12.4895C44.0517 11.9873 43.1183 12.1064 42.6161 12.7555C42.1139 13.4047 42.2331 14.3381 42.8822 14.8403Z" fill="#D28428"/>
</g>
<defs>
<clipPath id="clip0_1_11317">
<rect width="48" height="48" rx="8" fill="white"/>
</clipPath>
</defs>
</svg>
