<svg width="100" height="100" viewBox="0 0 100 100" fill="none" xmlns="http://www.w3.org/2000/svg">
<g clip-path="url(#clip0_1_11134)">
<rect width="100" height="100" rx="50" fill="#FFF8EB"/>
<path d="M34.0258 91.8822C34.4854 104.146 49.2007 110.954 55.6038 102.151C57.9489 98.3364 54.881 87.7654 60.899 82.3012C68.9009 75.0379 73.9212 60.6291 75.1625 55.051C77.2366 45.7017 45.8028 32.3143 43.3044 42.8066C40.806 53.299 33.5702 79.6183 34.0298 91.8822H34.0258Z" fill="#FFD3CA"/>
<path d="M50.1982 104.786C50.4182 104.468 50.6028 104.13 50.7639 103.777C51.2431 102.716 51.7225 101.62 52.0603 100.501C52.3038 99.6953 52.4412 98.8625 52.5473 98.0258C52.8026 96.0106 52.9441 93.9954 53.1327 91.9802C53.388 90.5071 53.8084 89.0655 54.2444 87.6395C54.7158 86.0839 55.254 84.548 55.8393 83.0278C56.6053 81.2365 57.4342 79.4727 58.3181 77.7364C62.1245 70.2452 66.8265 63.2687 71.2143 56.1153C72.5539 53.9312 72.6875 51.2836 72.1139 48.8559C72.0589 48.6241 71.9921 48.4002 71.9175 48.1763C74.298 50.4468 75.6495 52.8549 75.1623 55.0429C73.9249 60.6249 68.9007 75.0298 60.8988 82.2932C54.8768 87.7574 57.9487 98.3283 55.6036 102.143C53.9419 104.429 51.7185 105.658 49.3301 106.016C49.6326 105.599 49.9233 105.179 50.2022 104.775L50.1982 104.786Z" fill="#FF8685"/>
<path d="M72.2947 48.1924C66.473 52.5684 65.1336 54.3597 65.9467 55.6207C66.7599 56.8856 56.7272 70.7602 71.2735 58.2212C79.7153 50.9461 80.5401 49.0802 79.7898 47.3439C79.1927 45.9651 76.8514 44.763 72.2947 48.1885V48.1924Z" fill="#FFD3CA"/>
<path d="M72.2946 48.1926C66.4729 52.5687 65.1335 54.36 65.9467 55.6209C66.7598 56.8858 54.9594 70.8272 69.5057 58.2882C77.9475 51.0131 79.0197 50.5378 78.2694 48.8054C77.6723 47.4266 76.8514 44.7672 72.2946 48.1926Z" fill="#FF8685"/>
<path d="M61.6334 45.1005C54.6411 51.7589 54.7824 55.314 56.2869 56.85C57.7914 58.3898 48.8193 67.8608 67.7613 50.8397C77.5544 42.0365 76.7493 41.8087 73.7874 39.2592C72.1571 37.8569 73.3905 33.905 61.6293 45.1005H61.6334Z" fill="#FFD3CA"/>
<path d="M70.4445 37.8726C63.8451 42.5158 65.9075 44.0636 67.3138 45.6309C68.7201 47.2022 70.5978 48.3689 75.3746 43.3683C79.1575 39.4007 78.8156 38.1555 77.4093 36.5881C76.003 35.0168 75.017 34.6554 70.4445 37.8726Z" fill="#FFD3CA"/>
<path d="M70.4446 37.8728C62.4152 37.0636 62.7492 35.9676 64.1555 37.5389C65.5619 39.1102 73.0058 46.4796 75.5906 42.6299C78.6468 38.0771 78.2579 38.8352 76.8516 37.2679C75.4453 35.6966 72.774 38.1085 70.4446 37.8728Z" fill="#FF8685"/>
<path d="M57.1514 37.8687C50.7405 46.5659 50.7915 50.3881 52.7321 51.7787C54.6726 53.1693 49.0749 65.3154 65.5971 42.0798C74.4239 29.6626 72.3263 31.1986 68.5983 28.9909C66.5478 27.7731 67.9305 23.2439 57.1514 37.8687Z" fill="#FFD3CA"/>
<path d="M64.1593 29.0344C59.3629 37.2798 61.2916 37.6687 63.2361 38.8354C65.1767 39.9981 66.5713 39.9942 71.1948 33.2494C77.3504 24.2655 75.6023 23.0281 73.6579 21.8653C71.7173 20.7026 69.6511 19.5987 64.1633 29.0344H64.1593Z" fill="#FFD3CA"/>
<path d="M64.1593 29.034C65.0274 27.5412 65.8131 26.3117 66.5241 25.3021C66.6812 25.3336 66.8462 25.3414 67.0072 25.3257C67.2115 25.3061 67.4159 25.2903 67.6241 25.2786H67.7772C67.8164 25.2746 67.8597 25.2746 67.899 25.2746C68.2643 25.2746 68.6258 25.2903 68.9911 25.31C69.7218 25.3453 70.4602 25.3493 71.187 25.4121C72.5579 25.53 73.5322 25.5889 74.8992 25.3453C71.2342 31.3045 71.3677 32.2355 71.1948 33.245C69.8199 41.3019 65.1806 39.9938 63.2361 38.831C61.2955 37.6683 59.3629 37.2754 64.1593 29.03V29.034Z" fill="#FF8685"/>
<path d="M31.005 50.6396C32.6981 57.5847 34.3441 56.5045 36.5832 55.9152C38.8223 55.326 46.0266 38.9413 42.0237 43.7023C40.7077 45.2657 38.5002 48.7069 36.3711 42.7752C35.7622 41.0822 34.2105 43.0149 32.9849 43.1013C29.2295 43.3723 28.7856 41.5418 31.005 50.6396Z" fill="#FFD3CA"/>
<path d="M49.8801 30.4602C44.954 39.7898 36.7205 47.3045 40.5624 49.744C42.7818 51.1503 46.2623 59.5096 58.5145 35.9912C66.1118 21.4056 63.4954 23.6918 60.4668 22.0066C58.1766 20.7338 57.7641 15.5171 49.8762 30.4602H49.8801Z" fill="#FFD3CA"/>
<path d="M55.8196 21.1659C50.8739 30.087 53.1838 30.6095 55.3483 31.8547C57.5128 33.1039 59.5239 33.3906 63.6603 25.6834C70.4169 13.0895 66.2963 16.2399 64.1318 14.9947C61.9673 13.7455 62.3012 9.47546 55.8196 21.1659Z" fill="#FFD3CA"/>
<path d="M61.7827 10.8503C56.7938 20.0856 60.946 16.4205 62.9023 17.5519C64.8625 18.6793 63.6603 25.6873 68.8731 14.9396C70.9512 10.6617 71.2577 6.3996 69.3014 5.26827C67.3412 4.14086 64.0375 6.67456 61.7827 10.8503Z" fill="#FFD3CA"/>
<path d="M54.4793 68.6549C55.4614 69.997 57.3482 70.2793 58.6822 69.2883L74.0069 57.8953C75.3269 56.9107 75.6098 55.0528 74.6359 53.7195L45.5717 14.0197C44.5896 12.6776 42.7027 12.3954 41.3688 13.3863L26.0438 24.7792C24.7238 25.7639 24.4409 27.6217 25.4148 28.955L54.4793 68.6549Z" fill="#FFAABE"/>
<path d="M38.5304 36.5172C38.6051 35.9808 38.6746 35.4425 38.7563 34.9029C38.7879 34.6959 38.8911 34.4985 38.7984 34.2851C38.8495 34.287 38.8941 34.3211 38.9269 34.3564C39.224 34.6696 39.8074 34.4509 39.9805 34.1127C40.0929 33.8899 40.0867 33.6457 39.9517 33.5144C39.7921 33.3565 39.5301 33.333 39.3092 33.4459C39.1962 33.5014 39.116 33.6383 38.9639 33.5985C39.4848 33.0856 39.6485 32.358 40.0476 31.7706C40.4953 31.1151 40.976 30.4949 41.5644 29.9555C41.8984 29.649 42.221 29.3266 42.6023 29.0781C43.8219 28.2689 45.1323 27.678 46.5915 27.4426C47.4379 27.3053 48.2784 27.2754 49.1273 27.3464C49.2819 27.3641 49.3349 27.4992 49.4112 27.6028C50.4962 29.0699 51.5792 30.5421 52.6641 32.0092C54.2669 34.1834 55.8664 36.3507 57.4692 38.5248C57.5506 38.6303 57.6319 38.7357 57.6994 38.8474C57.7927 39.0437 57.7227 39.2306 57.6696 39.418C57.6058 39.6647 57.5217 39.9039 57.4698 40.1493C57.1341 40.1846 56.7965 40.1788 56.4747 40.0695C56.2842 39.9173 56.2066 39.6635 55.9965 39.5328C55.8898 39.51 55.8191 39.5756 55.7553 39.6381C55.1151 40.2386 54.3179 40.5211 53.4967 40.7599C52.9154 40.9276 52.9747 40.9844 52.5918 40.4547C52.501 40.3285 52.4052 40.2003 52.3143 40.074C52.2658 40.004 52.2153 39.939 52.1175 39.9541C51.6359 40.2398 51.204 40.6075 50.7533 40.9336C50.562 41.0749 50.343 41.1828 50.2091 41.386C50.18 41.5709 50.3352 41.6637 50.4191 41.7931C50.5837 42.045 50.5743 42.1163 50.3211 42.2689C49.33 42.8529 48.3887 43.519 47.4803 44.2204C47.1867 44.45 46.9012 44.6884 46.6291 44.9376C46.4915 45.0587 46.489 45.173 46.5994 45.3238C46.8946 45.7342 47.2233 46.1168 47.48 46.553C47.514 46.6464 47.4723 46.7114 47.3789 46.6994C46.8115 46.6303 46.2321 46.6086 45.6989 46.3566C45.6384 46.2878 45.5849 46.2159 45.5313 46.1439C43.2561 43.0606 40.9809 39.9773 38.7108 36.896C38.6313 36.7855 38.5052 36.6921 38.5318 36.5293L38.5304 36.5172Z" fill="#FFD1E3"/>
<path d="M59.6838 65.3787C58.4168 66.3141 57.1528 67.2565 55.8858 68.1919C55.7892 68.2651 55.7268 68.2474 55.6706 68.1514C55.624 68.0763 55.5653 68.0025 55.5117 67.9305C47.9507 57.6788 40.3897 47.4271 32.8268 37.1805C31.5211 35.4116 30.2174 33.6377 28.9136 31.8637C28.9894 31.8 29.0576 31.8487 29.1213 31.8784C29.515 32.0723 29.8805 31.9734 30.2315 31.7595C30.787 31.4152 31.2333 30.9779 31.4652 30.345C31.6111 29.9563 32.0556 29.7085 32.4632 29.7579C32.65 29.7819 32.8041 29.7246 32.9606 29.6451C33.3015 29.4736 33.2995 29.4786 33.5171 29.7734C37.5363 35.2222 41.5537 40.676 45.5818 46.1165C45.9262 46.5799 46.3004 47.0257 46.6429 47.4941C46.7079 47.5819 46.7815 47.6613 46.784 47.7775C46.7391 47.9277 46.6105 47.9945 46.4981 48.0791C45.7468 48.6379 44.9923 49.1898 44.236 49.7467C43.9184 49.9789 43.9128 50.0401 44.1393 50.3728C44.5266 50.9214 44.9682 51.4328 45.2923 52.0268C45.5667 52.4005 45.8638 52.7597 46.1066 53.1562C46.1413 53.2326 46.1689 53.3121 46.2194 53.3771C46.8987 54.2369 47.4924 55.1567 48.1244 56.0507C48.9185 57.1725 49.7265 58.288 50.4733 59.4438C50.6505 59.7235 50.8575 59.9855 51.0593 60.2456C51.253 60.4969 51.4011 60.7771 51.5809 61.0347C51.7606 61.2923 51.7979 61.3005 52.0524 61.1138C52.9122 60.4805 53.7738 59.8421 54.6336 59.2088C55.0477 58.9035 55.0647 58.9042 55.3732 59.3252C55.4949 59.4919 55.6305 59.6522 55.7365 59.8302C55.8008 59.9811 55.71 60.0853 55.621 60.1843C54.9776 60.9161 54.7046 61.7813 54.8071 62.7356C54.9404 63.9606 55.5635 64.8627 56.7025 65.3883C57.543 65.7729 58.3868 65.7499 59.2509 65.5042C59.3335 65.4834 59.3953 65.4259 59.4666 65.3893C59.531 65.3559 59.5973 65.2714 59.6805 65.3717L59.6838 65.3787Z" fill="#8D0C34"/>
<path d="M52.1405 39.8014C52.3828 39.9385 52.4825 40.1947 52.637 40.3968C52.9562 40.8046 52.9505 40.8198 53.4542 40.6748C53.8474 40.5633 54.2412 40.4346 54.6363 40.318C54.7916 40.2727 54.9086 40.161 55.0348 40.0702C55.3031 39.8772 55.5681 39.6772 55.8364 39.4842C55.8996 39.4388 55.9487 39.3536 56.051 39.4035C56.0194 39.5183 55.9236 39.5745 55.8377 39.6344C55.5953 39.8199 55.3447 39.9965 55.1023 40.182C54.8933 40.3396 54.8786 40.409 55.0211 40.6123C55.428 41.1855 55.3322 41.1034 55.8126 40.7597C55.9843 40.6398 56.1478 40.5111 56.3125 40.3944C56.4299 40.3118 56.5292 40.2166 56.552 40.0639C56.8574 40.0634 57.1641 40.0748 57.4676 40.1254C57.5017 40.0806 57.5517 40.0706 57.6009 40.0776C57.9562 40.113 58.3012 40.1908 58.6287 40.331C58.6641 40.3443 58.7006 40.3695 58.6993 40.4036C58.4174 40.0501 58.1519 39.6681 57.8756 39.2995C57.8024 39.2029 57.7243 39.1044 57.7175 38.9694C55.1401 35.4789 52.5697 31.9853 49.9923 28.4948C49.7066 28.1053 49.419 27.7208 49.1313 27.3364C48.1669 26.0239 47.2024 24.7114 46.243 23.4008C46.3182 23.3542 46.3674 23.4072 46.4154 23.4483C46.5144 23.5373 46.5869 23.6509 46.6613 23.7595C50.661 29.1836 54.6658 34.6097 58.6655 40.0338C58.7532 40.1531 58.8478 40.2693 58.9127 40.4031C58.9587 40.5413 59.0432 40.6536 59.1277 40.766C60.3457 42.4156 61.5639 44.0653 62.78 45.7199C62.8368 45.7988 62.8986 45.8796 62.9534 45.9636C63.0474 46.0968 63.0209 46.2135 62.9029 46.3132C62.769 46.4242 62.632 46.5283 62.4868 46.6235C62.3713 46.7011 62.2514 46.7137 62.146 46.6108C62.0356 46.5059 61.9401 46.545 61.8385 46.6163C61.7211 46.6989 61.6171 46.7923 61.5376 46.9122C61.1751 47.4788 60.5741 47.76 60.0628 48.1555C59.9485 48.2451 59.8246 48.2216 59.7262 48.1156C59.6196 48.0007 59.5148 48.0189 59.3974 48.1015C59.196 48.239 59.0213 48.3981 58.9372 48.6372C58.8001 49.0177 58.5639 49.3092 58.2211 49.5318C57.9345 49.7122 57.6738 49.9311 57.3966 50.1323C57.2861 50.2118 57.1745 50.2793 57.0294 50.2363C56.9164 50.1997 56.857 50.2811 56.8147 50.3631C56.4642 50.9745 55.8241 51.2525 55.3052 51.6682C55.1821 51.766 55.0564 51.7476 54.9536 51.6226C54.8558 51.4995 54.7424 51.3878 54.7128 51.2212C54.7451 51.0432 54.9028 50.9757 55.0221 50.8881C55.1661 50.7808 55.1888 50.6742 55.0727 50.5384C54.9976 50.4469 54.9345 50.3541 54.8664 50.2594C54.6835 49.9949 54.6955 49.9015 54.9556 49.6996C55.1084 49.5842 55.2549 49.4549 55.4235 49.3742C55.5434 49.3155 55.5529 49.2442 55.5006 49.1382C55.3227 48.7834 55.2094 48.3953 55.0038 48.0531C54.7774 47.6744 54.3968 47.4451 54.0908 47.1401C54.0019 47.0549 53.9211 47.1167 53.8473 47.1754C53.6648 47.3085 53.4873 47.4434 53.3068 47.5715C53.149 47.685 53.0164 47.6698 52.8978 47.5101C52.802 47.3819 52.7043 47.2589 52.6135 47.1326C52.5227 47.0064 52.4229 46.9804 52.2998 47.0782C52.2752 47.0978 52.2455 47.1154 52.2209 47.135C51.8686 47.3828 51.8616 47.386 51.5783 47.0665C51.4686 46.9447 51.3727 46.9547 51.2604 47.0393C50.9883 47.2424 50.7163 47.4455 50.4391 47.6468C50.3444 47.7149 50.256 47.7968 50.1285 47.7835C50.0073 47.738 49.9417 47.6212 49.8685 47.5246C49.6149 47.1875 49.3754 46.8442 49.1149 46.5102C48.9603 46.3082 48.9211 46.305 48.7109 46.4507C48.4937 46.5995 48.288 46.7642 48.074 46.92C47.9793 46.9881 47.8928 47.0651 47.7666 47.0638C47.5887 46.9854 47.4757 46.8566 47.4663 46.6515C47.1301 46.197 46.8008 45.7393 46.4577 45.2879C46.3586 45.1528 46.334 45.0802 46.4823 44.9458C47.2583 44.2292 48.1023 43.6073 48.971 43.0118C49.4192 42.7078 49.8581 42.383 50.3549 42.1491C50.4679 42.0936 50.4824 42.0242 50.4099 41.9106C50.2856 41.7199 50.0861 41.5759 50.0439 41.3354C50.1777 41.3626 50.2435 41.4795 50.3167 41.576C50.5589 41.8974 50.7971 42.2287 51.0394 42.5501C51.197 42.759 51.2292 42.7654 51.4363 42.6127C51.9363 42.2475 52.4365 41.8824 52.9333 41.5102C53.1404 41.3576 53.1414 41.3234 52.9856 41.1094C52.7472 40.778 52.5052 40.4567 52.2648 40.1303C52.1936 40.0287 52.1064 39.9384 52.1184 39.7989L52.1405 39.8014Z" fill="#FF7B9A"/>
<path d="M54.7302 51.2046C54.8816 51.3536 54.9453 51.6597 55.1485 51.6554C55.3157 51.6548 55.4874 51.4428 55.6591 51.3229C55.8012 51.2208 55.9349 51.1097 56.0801 51.0145C56.3894 50.8196 56.6326 50.5711 56.7969 50.2411C56.8505 50.1287 56.9211 49.9709 57.0725 50.166C57.1312 50.2399 57.1912 50.1875 57.2455 50.1503C57.6823 49.8305 58.1205 49.5227 58.541 49.1853C58.7221 49.0402 58.8012 48.7991 58.8707 48.5833C58.9826 48.2394 59.283 48.0988 59.5343 47.9052C59.6328 47.8269 59.6906 47.9178 59.7272 47.9891C59.8388 48.198 59.9527 48.1717 60.1181 48.0379C60.3819 47.826 60.659 47.6248 60.9393 47.4305C61.1406 47.293 61.3173 47.1289 61.4361 46.9201C61.5441 46.7245 61.7178 46.5996 61.8882 46.4678C62.0094 46.3751 62.0926 46.3833 62.1645 46.5139C62.2427 46.6585 62.33 46.6567 62.4632 46.5627C63.0294 46.159 63.0325 46.1659 62.62 45.6079C61.4184 43.976 60.2148 42.3491 59.0132 40.7171C58.9564 40.6382 58.8721 40.572 58.8727 40.4628C59.0355 40.4894 59.0934 40.6263 59.1729 40.7368C60.3619 42.3409 61.5441 43.9483 62.7312 45.5575C62.7653 45.6048 62.7993 45.6521 62.8334 45.6995C63.0365 45.9716 63.0838 45.9836 63.2329 45.694C63.3914 45.3791 63.6092 45.3054 63.943 45.3673C64.2869 45.4331 64.3329 45.387 64.4491 45.062C64.5079 44.9055 64.5768 44.7529 64.7435 44.6772C64.7694 44.6697 64.8004 44.664 64.8294 44.6634C64.8931 44.647 64.9643 44.6104 65.0217 44.6262C65.4451 44.7563 65.7642 44.4902 66.1126 44.3446C66.1404 44.332 66.1661 44.3243 66.2166 44.3433C66.0796 44.4934 65.9457 44.6506 65.8056 44.7938C65.6888 44.9054 65.5991 45.0215 65.6078 45.1976C65.616 45.3446 65.5011 45.4512 65.4518 45.5825C65.3135 45.7206 65.1361 45.7635 64.9519 45.7634C64.7215 45.7633 64.5979 45.8782 64.5473 46.0896C64.5322 46.13 64.5169 46.1703 64.5188 46.2113C64.506 46.5521 64.3161 46.7054 63.9948 46.7634C63.6994 46.8137 63.6943 46.8579 63.881 47.1123C64.5628 48.0422 65.2516 48.9689 65.9334 49.8988C66.0097 50.0024 66.1189 50.0952 66.0911 50.246C65.9055 50.28 65.8552 50.1229 65.7738 50.0175C65.1336 49.1608 64.5022 48.2959 63.8639 47.4342C63.8298 47.3868 63.7958 47.3395 63.7617 47.2921C63.4842 46.9115 63.4602 46.914 63.094 47.2143C62.9848 47.3057 62.9285 47.394 63.0156 47.5304C63.1089 47.6806 63.0483 47.7961 62.9233 47.8989C62.7648 48.0295 62.5925 48.1203 62.3931 48.1606C61.7751 48.303 61.3617 48.7756 60.8661 49.1137C60.7733 49.1767 60.7903 49.2695 60.8382 49.3566C60.9504 49.5485 60.8703 49.6854 60.7238 49.8148C60.5332 49.9851 60.3235 50.1137 60.0622 50.1193C59.5706 50.1248 59.1464 50.2881 58.779 50.6224C58.6111 50.7782 58.4165 50.9125 58.2208 51.0349C58.0479 51.1427 57.9866 51.2753 58.0458 51.4703C57.9972 51.5845 57.8867 51.6179 57.7819 51.6361C57.3515 51.6934 57.0119 51.923 56.6849 52.1804C56.5372 52.2977 56.3763 52.4043 56.2286 52.5217C55.9811 52.7052 55.9766 52.7323 56.1551 52.9779C56.4409 53.3674 56.7216 53.755 57.0142 54.1414C57.1524 54.3257 57.235 54.4893 57.0248 54.681C56.903 54.7908 57.0134 54.8956 57.0783 54.9834C57.3931 55.4183 57.7197 55.852 58.0345 56.2869C58.1057 56.3886 58.1909 56.4839 58.2117 56.6127C58.1996 56.7982 58.0552 56.8765 57.9289 56.9673C57.1303 57.5602 56.3266 58.1512 55.5299 58.7391C55.2104 58.9762 55.2066 58.9863 55.4387 59.3039C55.4583 59.3285 55.4759 59.3581 55.4954 59.3828C55.7957 59.795 55.7875 59.7861 56.1423 59.5162C56.2142 59.4626 56.3027 59.3806 56.403 59.4816C56.2899 59.7214 56.0659 59.8273 55.8551 59.944C55.8115 59.968 55.7604 59.9661 55.7213 59.9168C55.5491 59.6851 55.3648 59.4547 55.2084 59.2116C55.0924 59.0298 55.0028 59.0077 54.8235 59.1477C53.8841 59.8548 52.9284 60.5443 51.9891 61.2514C51.8205 61.3782 51.7294 61.3901 51.6001 61.1975C50.8552 60.0827 50.0739 58.9887 49.3062 57.8884C49.0357 57.5045 48.7511 57.127 48.4982 56.7268C48.0888 56.0835 47.6026 55.492 47.1914 54.8538C46.8641 54.345 46.4892 53.8702 46.1461 53.3727C46.1057 53.3115 46.0428 53.2648 46.0579 53.1783C46.2107 53.2011 46.2724 53.328 46.3487 53.4315C46.8704 54.1285 47.3832 54.8336 47.8998 55.5287C48.1143 55.8166 48.1242 55.8203 48.4033 55.614C49.5832 54.7726 50.755 53.9224 51.938 53.0879C52.7688 52.5013 53.5851 51.892 54.4159 51.3054C54.5106 51.2373 54.599 51.1553 54.7277 51.1806L54.7302 51.2046Z" fill="#EA4164"/>
<path d="M58.0263 51.4922C57.8604 51.3205 57.889 51.1987 58.0917 51.0732C58.3486 50.9105 58.606 50.7307 58.832 50.5276C59.1641 50.226 59.548 50.0937 59.9803 50.0774C60.2485 50.0687 60.4554 49.9621 60.6524 49.8057C60.8197 49.6669 60.9252 49.5395 60.7258 49.3494C60.6287 49.2553 60.6623 49.1815 60.7639 49.1103C61.1496 48.8346 61.5221 48.5482 61.9078 48.2726C62.0725 48.1559 62.2828 48.1484 62.4677 48.0854C62.5542 48.0545 62.6368 48.0337 62.7157 47.9769C62.9979 47.7776 63.0029 47.7795 62.8509 47.4632C62.8162 47.3869 62.8233 47.3377 62.8864 47.2923C62.8883 47.2872 62.9022 47.2809 62.9041 47.2759C63.2774 46.936 63.6103 46.965 63.9025 47.3627C64.5667 48.263 65.2341 49.1701 65.8983 50.0704C65.9519 50.1423 65.9877 50.2307 66.0855 50.2616C66.218 50.2768 66.2774 50.3798 66.3475 50.4694C66.7764 51.0452 67.2003 51.619 67.6273 52.1998C67.6923 52.2876 67.7591 52.3703 67.7496 52.4877C67.6316 52.4952 67.6102 52.3835 67.5597 52.3184C67.0772 51.6707 66.5965 51.0179 66.0818 50.3178C66.1042 51.1326 65.9353 51.8583 65.7274 52.5808C65.6566 52.8307 65.4761 53.0509 65.5252 53.3343C65.4791 53.3343 65.4475 53.3109 65.4159 53.2875C65.0248 52.9794 64.5167 53.1054 64.3171 53.5604C64.1642 53.9061 64.3377 54.1959 64.71 54.232C64.8053 54.239 64.9095 54.1917 64.9896 54.2852C64.4622 55.291 63.7821 56.1818 63.0042 56.9956C62.1998 57.834 61.3124 58.5721 60.3623 59.2464C60.2537 59.3208 60.1564 59.411 60.0251 59.4539C59.9455 59.4816 59.9027 59.5346 59.9418 59.63C59.8497 59.676 59.784 59.6053 59.7171 59.5686C58.7119 59.0242 57.6869 58.9619 56.6385 59.438C56.5621 59.4726 56.4954 59.5282 56.4045 59.4941C56.205 59.5344 56.0798 59.6832 55.9271 59.7987C55.8059 59.8914 55.7315 59.875 55.6508 59.7525C55.5183 59.5531 55.3738 59.3548 55.2237 59.1717C55.0994 59.0271 55.1297 58.9464 55.2787 58.841C56.1751 58.1869 57.0685 57.5259 57.9618 56.8648C58.0495 56.7999 58.1487 56.7507 58.1854 56.6378C58.3685 56.4569 58.3835 56.2629 58.2309 56.0559C58.1401 55.9296 58.0373 55.8046 57.9534 55.6752C57.8209 55.4757 57.8305 55.4044 58.0236 55.2581C58.3822 54.978 58.7685 54.7314 59.1012 54.4128C59.1719 54.3472 59.254 54.2974 59.1966 54.1894C59.0932 53.9893 59.2081 53.8827 59.352 53.7755C59.6715 53.5383 59.9765 53.2784 60.3187 53.0728C60.9051 52.7228 61.0757 52.1763 61.1075 51.5547C61.145 50.8258 61.114 50.7853 60.4313 50.5175C60.2596 50.453 60.0881 50.3886 59.9064 50.3665C59.5706 50.3095 59.2456 50.3315 58.9735 50.5807C58.8517 50.6904 58.7084 50.7806 58.5733 50.8797C58.3555 51.0456 58.0796 51.1666 58.0334 51.4891L58.0263 51.4922Z" fill="#FF7B9A"/>
<path d="M46.343 23.4559C46.3114 23.4326 46.2876 23.3891 46.2358 23.4042C45.0626 23.4763 44.1034 22.9779 43.2574 22.2398C41.9867 21.1292 41.1626 19.7657 40.9929 18.0547C40.9589 17.7309 40.9829 17.4059 41.0493 17.091C41.2909 15.926 42.2057 15.2846 43.3827 15.4328C44.2794 15.5448 45.0295 15.9705 45.7078 16.5419C46.8472 17.5111 47.6142 18.7207 47.945 20.1869C48.0697 20.729 48.0491 21.2742 47.9656 21.8189C47.9826 21.9116 48.0572 21.9742 48.1089 22.0512C49.3591 23.7532 50.6231 25.4489 51.8695 27.161C51.8246 27.2651 51.7621 27.2013 51.7173 27.1672C51.6226 27.0971 51.5636 26.9943 51.4935 26.9046C50.4313 25.469 49.376 24.0303 48.3138 22.5947C48.2684 22.5316 48.2261 22.4754 48.1807 22.4122C47.9662 22.1244 47.9404 22.1319 47.7736 22.438C47.4654 23.0134 47.0127 23.3906 46.3462 23.4629L46.343 23.4559Z" fill="#D7355B"/>
<path d="M46.77 47.7838C42.3351 41.77 37.9002 35.7563 33.4653 29.7425C33.3631 29.6005 33.2919 29.5449 33.112 29.6559C32.8866 29.796 32.6561 29.934 32.3481 29.8184C32.126 29.735 31.6007 30.1368 31.511 30.3911C31.2324 31.2253 30.6101 31.7174 29.8286 32.0345C29.4979 32.1638 29.1968 32.045 28.9116 31.8688C28.7249 31.6144 28.5242 31.3662 28.3514 31.1055C28.1962 30.8745 28.1206 30.6157 28.1106 30.3355C28.085 29.7441 27.7879 29.3388 27.2326 29.1303C26.6369 28.9067 26.309 28.4149 26.0246 27.8992C25.8379 27.5526 25.9024 27.1967 26.1575 26.9008C26.6393 26.3387 27.2347 25.9344 27.9832 25.8584C28.2351 25.832 28.4402 25.7765 28.6372 25.6201C28.8272 25.4668 28.9761 25.3153 28.9774 25.0509C28.9807 24.8736 29.1234 24.7544 29.2352 24.6408C29.5635 24.3033 29.9327 24.0099 30.2742 23.6831C30.6549 23.3135 31.464 23.4444 31.7894 23.8662C32.0582 24.209 32.2033 24.6206 32.4146 24.9936C32.501 25.147 32.4902 25.3446 32.4245 25.5042C32.3569 25.6689 32.3813 25.7875 32.4961 25.9113C32.5371 25.9554 32.5712 26.0028 32.5983 26.0533C32.7408 26.3026 32.9189 26.4732 33.244 26.4512C33.4219 26.4374 33.5631 26.5365 33.6943 26.6779C33.9385 26.9481 34.211 27.1887 34.4552 27.4589C34.9321 27.9836 34.546 28.9042 34.0259 29.1236C33.8283 29.2049 33.6528 29.3349 33.4647 29.437C33.3915 29.4786 33.3776 29.531 33.4262 29.6011C33.4489 29.6327 33.4747 29.6712 33.4974 29.7027C35.1506 31.942 36.7988 34.1793 38.4521 36.4185C38.4748 36.4501 38.5026 36.4836 38.5304 36.517C39.4299 37.7417 40.3294 38.9665 41.2307 40.1861C42.7572 42.2568 44.2855 44.3224 45.812 46.3931C45.8858 46.4266 45.9558 46.4701 46.0094 46.5421C46.2598 46.8723 46.5085 47.2075 46.745 47.544C46.779 47.5913 46.8041 47.6468 46.8104 47.7068C46.8142 47.7428 46.7978 47.7712 46.7681 47.7888L46.77 47.7838Z" fill="#FF87AF"/>
<path d="M56.4046 59.4937C57.3988 58.8706 58.8919 58.9128 59.8566 59.5803C59.885 59.5967 59.9154 59.6081 59.9438 59.6245C61.1961 60.5843 61.6753 61.8701 61.2935 63.3164C61.1146 63.9923 60.7439 64.55 60.2066 64.9992C60.0393 65.1379 59.8575 65.254 59.6838 65.3789C59.4213 65.5107 59.1579 65.6134 58.8688 65.6776C58.1361 65.8345 57.4408 65.7693 56.7347 65.4869C56.0318 65.2114 55.5365 64.7202 55.1688 64.1041C54.8301 63.5334 54.6744 62.9047 54.727 62.2276C54.7746 61.5946 54.9485 61.009 55.3059 60.4866C55.4341 60.2986 55.5875 60.12 55.7289 59.9427C56.0028 59.8728 56.1803 59.6457 56.4076 59.5006L56.4046 59.4937Z" fill="#D7355B"/>
<path d="M67.7496 52.4874C67.199 51.745 66.6432 51.0007 66.0926 50.2583C65.3117 49.1933 64.5339 48.1352 63.753 47.0702C63.5549 46.8 63.5606 46.7848 63.8838 46.7219C63.9406 46.7086 63.9942 46.6885 64.0542 46.6822C64.3313 46.6653 64.4412 46.5107 64.4426 46.2463C64.4407 46.1131 64.5102 45.9894 64.5607 45.8702C64.5948 45.7793 64.6643 45.7017 64.7627 45.7156C65.0108 45.7454 65.2278 45.6426 65.4582 45.5966C66.7866 47.3971 68.1201 49.1995 69.4504 50.9949C69.535 51.1073 69.5544 51.1779 69.4212 51.2719C68.8619 51.6724 68.3107 52.0818 67.7546 52.4893L67.7496 52.4874Z" fill="#8D0C34"/>
<path d="M68.9171 56.5255C68.1961 55.6845 68.4708 54.2325 69.3236 53.6024C70.138 52.9981 71.5137 52.9847 72.2826 54.0509C72.9771 55.0086 72.7735 56.257 71.8474 56.9748C70.9232 57.6876 69.5076 57.4383 68.9223 56.5274L68.9171 56.5255Z" fill="#FF87AF"/>
<path d="M51.8599 27.186C51.4184 26.5824 50.9818 25.9808 50.5402 25.3773C49.7234 24.27 48.9066 23.1627 48.0916 22.0503C48.038 21.9784 47.9547 21.924 47.9655 21.8186C49.4888 23.8824 51.0191 25.943 52.5355 28.0098C52.7676 28.3274 53.0313 28.5761 53.3695 28.7953C54.2162 29.3321 54.9701 29.978 55.6217 30.7583C56.3484 31.6301 56.9028 32.5928 57.305 33.6539C57.4248 33.9638 57.5377 34.2769 57.5956 34.5982C57.6542 34.9024 57.7935 35.1448 57.972 35.3904C60.2554 38.4825 62.5388 41.5746 64.8202 44.6717C64.8114 44.6799 64.8008 44.6932 64.7919 44.7014C64.6916 44.6925 64.6291 44.6288 64.5705 44.5549C64.5099 44.4861 64.4581 44.409 64.4045 44.3371C60.2976 38.769 56.1938 33.2079 52.0888 27.6348C51.9897 27.4997 51.8439 27.3816 51.8547 27.184L51.8599 27.186Z" fill="#FFD1E3"/>
<path d="M36.1428 29.452C36.0834 29.4873 36.0242 29.5227 35.9668 29.5529C35.684 29.6772 35.3733 29.6296 35.2169 29.4327C35.0554 29.2338 35.0772 28.9309 35.2761 28.6773C35.3784 28.5429 35.5116 28.4489 35.6725 28.3884C35.9648 28.285 36.2574 28.3488 36.3917 28.5433C36.5374 28.7535 36.5021 29.0628 36.3039 29.2993C36.254 29.3555 36.1959 29.4028 36.148 29.4539L36.1428 29.452Z" fill="#680126"/>
<path d="M37.0104 30.7166C37.0104 30.7166 36.9351 30.7632 36.8777 30.7935C36.581 30.924 36.2611 30.8557 36.1154 30.6455C35.9666 30.4283 36.0108 30.1109 36.2261 29.8749C36.2653 29.832 36.3075 29.7961 36.3549 29.762C36.687 29.5065 37.1181 29.5244 37.3111 29.7927C37.4959 30.0522 37.3783 30.4573 37.0134 30.7235L37.0104 30.7166Z" fill="#680126"/>
<path d="M68.8822 59.1043C68.7919 59.1453 68.7098 59.1951 68.6113 59.2273C68.3418 59.3161 68.08 59.2467 67.9387 59.0554C67.7974 58.8641 67.8109 58.5984 67.9801 58.3624C68.1114 58.1814 68.2798 58.0545 68.495 58.0029C68.7343 57.9487 68.9571 57.969 69.118 58.1849C69.2788 58.4008 69.2244 58.6223 69.1038 58.8362C69.0488 58.9365 68.9707 59.0224 68.8772 59.1025L68.8822 59.1043Z" fill="#680126"/>
<path d="M37.9647 31.9329C37.9073 31.9632 37.8531 32.0004 37.7906 32.0288C37.487 32.1625 37.1752 32.103 37.0213 31.8839C36.8623 31.663 36.9192 31.3273 37.1516 31.092C37.2703 30.9752 37.4087 30.8832 37.5741 30.8416C37.8202 30.7843 38.0461 30.8115 38.2038 31.0205C38.3666 31.2313 38.3205 31.4617 38.1948 31.6737C38.1348 31.7721 38.0596 31.8648 37.9598 31.9311L37.9647 31.9329Z" fill="#680126"/>
<path d="M67.9581 57.8531C67.8527 57.9345 67.7346 57.9881 67.6109 58.0107C67.3755 58.0548 67.1603 58.0144 67.0146 57.8041C66.8721 57.6009 66.9056 57.3888 67.0186 57.1951C67.1411 56.9762 67.3343 56.8298 67.5754 56.7706C67.8165 56.7113 68.0424 56.7386 68.2032 56.9545C68.359 57.1685 68.315 57.3938 68.1874 57.6109C68.1274 57.7093 68.049 57.7951 67.9562 57.8582L67.9581 57.8531Z" fill="#680126"/>
<path d="M64.9914 54.2799C64.542 54.3416 64.2966 54.2437 64.2103 53.9521C64.1208 53.6535 64.326 53.2756 64.672 53.106C65.016 52.9414 65.31 53.0172 65.527 53.3291C65.6183 53.6686 65.4926 53.9267 65.2092 54.114C65.1322 54.1657 65.0603 54.2194 64.9883 54.273L64.9914 54.2799Z" fill="#680126"/>
<path d="M38.9606 33.5914C39.1651 33.4148 39.3804 33.271 39.6695 33.2989C39.9465 33.328 40.129 33.5175 40.1377 33.7857C40.1483 34.095 39.9045 34.4066 39.5775 34.5258C39.2575 34.6418 39.0248 34.5716 38.7983 34.285C38.7176 34.0243 38.7977 33.7952 38.9606 33.5914Z" fill="#680126"/>
<path d="M38.1906 32.2371C38.5189 31.9917 38.9467 32.0026 39.1315 32.2621C39.3214 32.5234 39.207 32.9355 38.8755 33.1739C38.5422 33.4174 38.1252 33.3933 37.9372 33.1269C37.7524 32.8674 37.8642 32.4774 38.1906 32.2371Z" fill="#680126"/>
<path d="M66.1592 55.3578C66.0399 55.4455 65.9457 55.4965 65.839 55.5198C65.5998 55.574 65.3753 55.5588 65.2107 55.353C65.0429 55.1403 65.0802 54.9181 65.2009 54.7042C65.3196 54.4954 65.5038 54.3572 65.7348 54.2942C66.0037 54.2223 66.2486 54.2913 66.3798 54.4788C66.5337 54.6978 66.4794 54.9193 66.3607 55.1282C66.3058 55.2285 66.2224 55.3124 66.1562 55.3509L66.1592 55.3578Z" fill="#680126"/>
<path d="M67.0402 56.6157C66.9486 56.6907 66.8426 56.7431 66.7309 56.7645C66.4866 56.8168 66.2607 56.7896 66.1068 56.5705C65.9611 56.3603 65.9963 56.1431 66.1132 55.9393C66.237 55.7324 66.4182 55.5873 66.6574 55.5331C66.8986 55.4739 67.1264 55.4961 67.2872 55.712C67.448 55.9279 67.3988 56.1513 67.2782 56.3652C67.2232 56.4655 67.1429 56.5563 67.0451 56.6175L67.0402 56.6157Z" fill="#680126"/>
<path d="M47.2848 35.3977C46.983 35.6185 46.6811 35.8392 46.3844 36.0619C46.272 36.1464 46.2059 36.1388 46.1283 36.0233C45.8136 35.5883 45.4938 35.1515 45.167 34.7178C45.0825 34.6054 45.0951 34.541 45.2075 34.4565C45.811 34.015 46.4146 33.5735 47.0081 33.1282C47.1204 33.0436 47.1847 33.0562 47.2641 33.1667C47.577 33.6067 47.8987 34.0385 48.2254 34.4722C48.31 34.5846 48.3043 34.6458 48.1869 34.7285C47.882 34.9423 47.5833 35.17 47.2815 35.3908L47.2848 35.3977Z" fill="#680126"/>
<path d="M45.6166 33.1531C45.3218 33.3708 45.024 33.5815 44.7374 33.808C44.6231 33.8975 44.5512 33.9051 44.4623 33.7738C44.1526 33.3407 43.8357 32.9107 43.5152 32.4909C43.4257 32.3766 43.4183 32.3047 43.5496 32.2158C44.1494 31.7844 44.7408 31.344 45.3323 30.9038C45.4516 30.8161 45.5166 30.8117 45.6074 30.938C45.9171 31.371 46.2287 31.799 46.5542 32.2208C46.6633 32.3596 46.6218 32.4247 46.4975 32.5105C46.1995 32.7211 45.9095 32.9406 45.6147 33.1582L45.6166 33.1531Z" fill="#680126"/>
<path d="M48.9218 37.6656C48.6359 37.8751 48.3448 38.0826 48.0601 38.304C47.9477 38.3885 47.8751 38.4131 47.7811 38.2799C47.4683 37.8399 47.1466 37.4081 46.8198 36.9743C46.7385 36.8689 46.7613 36.8084 46.8579 36.7352C47.4683 36.2905 48.0738 35.8439 48.6811 35.3923C48.7846 35.316 48.8439 35.3267 48.9202 35.4303C49.235 35.8652 49.5548 36.3021 49.8834 36.7307C49.968 36.8431 49.9554 36.9075 49.8449 36.987C49.5311 37.209 49.2324 37.4367 48.9218 37.6656Z" fill="#680126"/>
<path d="M49.4281 38.3109C49.7229 38.0933 50.0209 37.8826 50.3056 37.6612C50.4287 37.5634 50.5038 37.5629 50.6029 37.698C50.9044 38.1222 51.2178 38.5451 51.5332 38.9631C51.6228 39.0773 51.6254 39.1474 51.4991 39.2382C50.8994 39.6697 50.3077 40.1099 49.7162 40.5502C49.6038 40.6347 49.535 40.6492 49.4391 40.521C49.1294 40.088 48.8179 39.6599 48.4924 39.2382C48.3914 39.1082 48.4314 39.0483 48.5489 38.9657C48.8468 38.755 49.1365 38.5355 49.4313 38.3179L49.4281 38.3109Z" fill="#680126"/>
<path d="M52.1404 39.8014C52.4899 40.2666 52.8325 40.7351 53.1838 41.1953C53.2797 41.3235 53.277 41.3916 53.1419 41.4906C52.5491 41.9189 51.9614 42.3491 51.3818 42.7881C51.2518 42.889 51.1773 42.8726 51.0884 42.7413C50.7528 42.2697 50.4054 41.7994 50.0629 41.331C50.7447 40.8037 51.4378 40.2921 52.1423 39.7963L52.1404 39.8014Z" fill="#680126"/>
<path d="M46.4104 39.8446C45.7721 38.9829 45.1476 38.1149 44.5005 37.2613C44.3428 37.0524 44.4627 36.9937 44.5965 36.8827C44.7461 36.7603 44.8338 36.7414 44.9688 36.9188C46.2316 38.6486 47.5032 40.3701 48.7868 42.0904C48.9363 42.2905 48.8216 42.3511 48.6916 42.4521C48.5546 42.5561 48.4629 42.6312 48.3185 42.433C47.694 41.5649 47.0487 40.7063 46.4173 39.8414L46.4104 39.8446Z" fill="#680126"/>
<path d="M44.0898 40.5628C44.4014 40.9908 44.713 41.4188 45.0385 41.8405C45.1394 41.9706 45.1521 42.0445 45.0012 42.1548C44.4658 42.5529 44.4709 42.5548 44.0697 42.0125C43.5241 41.272 42.9854 40.5283 42.431 39.796C42.3124 39.6363 42.3286 39.5617 42.4865 39.4482C42.9985 39.0817 42.9904 39.0729 43.3739 39.5856C43.6143 39.9119 43.8544 40.2383 44.0947 40.5646L44.0898 40.5628Z" fill="#680126"/>
<path d="M54.3683 38.4836C54.535 38.3619 54.7018 38.2402 54.8704 38.1134C54.967 38.0403 55.0357 38.0258 55.1133 38.1413C55.2527 38.3376 55.3922 38.534 55.5404 38.7221C55.6186 38.8206 55.6159 38.8887 55.5073 38.9631C55.167 39.2097 54.825 39.4614 54.4879 39.715C54.3913 39.7882 54.3225 39.8027 54.2449 39.6871C54.1074 39.4858 53.9661 39.2945 53.8178 39.1063C53.7232 38.9902 53.7598 38.9233 53.8684 38.8488C54.0382 38.7341 54.2017 38.6054 54.3683 38.4836Z" fill="#680126"/>
<path d="M51.3671 34.3273C51.5571 34.2201 51.741 33.9148 51.9682 33.954C52.1783 33.9926 52.2665 34.3252 52.4337 34.5089C52.5977 34.6857 52.5547 34.7848 52.3691 34.9109C52.061 35.1178 51.7625 35.3455 51.4689 35.5751C51.3389 35.6761 51.2624 35.6646 51.1703 35.5264C51.041 35.3338 50.903 35.1496 50.7599 34.9633C50.6867 34.8667 50.7024 34.8093 50.7952 34.7462C50.9808 34.6201 51.1581 34.485 51.3671 34.3273Z" fill="#680126"/>
<path d="M48.2866 30.2158C48.4305 30.1086 48.5844 30.0051 48.7252 29.8909C48.8609 29.7748 48.952 29.7629 49.0618 29.9309C49.181 30.1196 49.3227 30.2938 49.4576 30.4712C49.5308 30.5678 49.5202 30.6271 49.4255 30.6953C49.0764 30.9501 48.7291 31.1998 48.3882 31.4635C48.2827 31.5449 48.2192 31.5152 48.146 31.4186C48.0167 31.2261 47.8804 31.0367 47.7353 30.8555C47.6325 30.7305 47.6691 30.6636 47.7916 30.5829C47.9614 30.4681 48.1248 30.3394 48.2915 30.2176L48.2866 30.2158Z" fill="#680126"/>
<path d="M47.8757 29.6986C47.7317 29.8058 47.5697 29.9005 47.4422 30.0254C47.2723 30.1863 47.1751 30.1383 47.0641 29.9584C46.9613 29.7873 46.8339 29.6358 46.7134 29.4811C46.6402 29.3845 46.6258 29.3157 46.7413 29.2382C47.0886 28.9884 47.4376 28.7335 47.7766 28.4749C47.8662 28.4049 47.9261 28.3986 47.9974 28.5002C48.14 28.7035 48.2895 28.9036 48.4409 29.0987C48.5141 29.1953 48.4913 29.2559 48.3985 29.3189C48.2198 29.4419 48.0494 29.5738 47.8808 29.7006L47.8757 29.6986Z" fill="#680126"/>
<path d="M53.3501 37.1164C53.4694 37.0287 53.5886 36.941 53.7079 36.8533C54.0008 36.6407 54.0028 36.6357 54.2217 36.9425C54.3466 37.1161 54.5845 37.2803 54.5605 37.4671C54.5358 37.671 54.2459 37.7522 54.0735 37.8891C53.8816 38.0474 53.6703 38.1812 53.4802 38.3345C53.3748 38.4158 53.3059 38.4303 53.2201 38.3059C53.0877 38.1064 52.9394 37.9183 52.793 37.7251C52.723 37.6355 52.7308 37.5693 52.8306 37.5031C53.0092 37.3801 53.1796 37.2482 53.3482 37.1214L53.3501 37.1164Z" fill="#680126"/>
<path d="M52.9548 36.588C52.7882 36.7098 52.6166 36.8297 52.4582 36.9602C52.349 37.0517 52.2763 37.0302 52.2019 36.9216C52.0726 36.7291 51.9344 36.5447 51.7893 36.3635C51.7111 36.2651 51.7117 36.2019 51.8222 36.1224C52.1744 35.8746 52.5185 35.6178 52.8645 35.3561C52.9592 35.2879 53.0205 35.2937 53.0886 35.3884C53.228 35.5847 53.3674 35.7811 53.5157 35.9692C53.5939 36.0677 53.5914 36.1359 53.4828 36.2103C53.3041 36.3333 53.1336 36.4651 52.96 36.59L52.9548 36.588Z" fill="#680126"/>
<path d="M50.9743 33.7938C50.7496 33.9628 50.569 34.0909 50.3916 34.2259C50.3089 34.2927 50.2495 34.282 50.1896 34.1961C50.0471 33.9928 49.8975 33.7927 49.7461 33.5976C49.6597 33.4903 49.6945 33.4285 49.7961 33.3572C50.1364 33.1106 50.4785 32.8589 50.8156 32.6053C50.9191 32.529 50.9894 32.5266 51.055 32.6433C51.0695 32.6661 51.0857 32.6837 51.1002 32.7064C51.2402 32.9318 51.5489 33.1226 51.5078 33.3548C51.4724 33.5719 51.1276 33.6613 50.9792 33.7956L50.9743 33.7938Z" fill="#680126"/>
<path d="M56.5455 40.0787C56.6319 40.186 56.6426 40.2649 56.5043 40.357C56.1628 40.5916 55.8345 40.837 55.5075 41.0943C55.3844 41.1921 55.3119 41.1707 55.2312 41.0482C55.1019 40.8557 54.9636 40.6713 54.8274 40.4819C54.7624 40.3941 54.777 40.3248 54.8717 40.2566C55.2625 39.9829 55.652 39.6971 56.0396 39.4165L56.5455 40.0787Z" fill="#680126"/>
<path d="M49.9241 32.4492C49.7574 32.571 49.5859 32.6909 49.4274 32.8215C49.322 32.9028 49.248 32.9154 49.1654 32.798C49.026 32.6016 48.8797 32.4085 48.7315 32.2203C48.6583 32.1237 48.6791 32.0682 48.7688 31.9982C49.1179 31.7434 49.467 31.4885 49.8111 31.2318C49.9058 31.1637 49.9637 31.1624 50.035 31.264C50.1744 31.4604 50.3138 31.6567 50.462 31.8448C50.5453 31.9452 50.5308 32.0147 50.4292 32.0859C50.2594 32.2007 50.0959 32.3294 49.9292 32.4512L49.9241 32.4492Z" fill="#680126"/>
<path d="M46.8091 47.7583C46.4779 47.3056 46.1417 46.8511 45.8124 46.3934C46.2415 46.4623 46.6738 46.5382 47.1029 46.6072C47.2234 46.6236 47.3458 46.635 47.4733 46.6483L47.7773 47.0505C47.7773 47.0505 47.7661 47.0808 47.7674 47.0928C47.4997 47.3609 47.1939 47.5917 46.853 47.7632L46.8091 47.7583Z" fill="#FFAABE"/>
<path d="M57.7082 38.9774L58.7963 40.4515C58.3293 40.2992 57.9059 40.169 57.4635 40.1354C57.3689 39.9732 57.5002 39.8382 57.528 39.6873C57.5729 39.445 57.6481 39.2141 57.7101 38.9724L57.7082 38.9774Z" fill="#FFAABE"/>
<path d="M40.7115 35.6487C40.392 35.8858 39.9609 35.868 39.771 35.6066C39.5843 35.3522 39.6861 34.9584 39.9974 34.7124L40.0151 34.696C40.3395 34.4607 40.7704 34.4785 40.9552 34.738C41.1419 34.9924 41.0257 35.4095 40.7063 35.6467L40.7115 35.6487Z" fill="#680126"/>
<path d="M42.54 38.1265C42.2136 38.3668 41.7875 38.3508 41.5996 38.0844C41.4097 37.823 41.531 37.4078 41.8605 37.1744C42.1831 36.9442 42.597 36.9614 42.7856 37.2107C42.9805 37.474 42.8682 37.8811 42.5419 38.1214L42.54 38.1265Z" fill="#680126"/>
<path d="M40.929 35.9433C41.0729 35.8361 41.2339 35.7756 41.4131 35.7737C41.8145 35.7632 42.0612 36.1034 41.926 36.4789C41.8085 36.7919 41.581 36.983 41.2547 37.039C41.0263 37.0799 40.8181 37.0363 40.6825 36.8299C40.5532 36.6374 40.576 36.4386 40.6739 36.2392C40.7364 36.1187 40.8255 36.0196 40.9309 35.9383L40.929 35.9433Z" fill="#680126"/>
<path d="M54.7303 51.2046C54.2479 51.5534 53.7686 51.9091 53.2863 52.2579C52.085 53.1259 50.8868 54.0008 49.671 54.846C49.2101 55.1683 48.7523 55.4975 48.2997 55.8286C48.1488 55.939 48.0725 55.9276 47.9672 55.7787C47.3945 54.9876 46.8078 54.2029 46.2281 53.4151C46.1745 53.3431 46.1141 53.2743 46.0605 53.2024L45.2493 52.0799C45.2121 51.8874 45.37 51.82 45.4824 51.7354C46.1863 51.2106 46.8951 50.6877 47.6021 50.1698C48.4007 49.5769 49.2026 48.991 50.0012 48.398C50.1859 48.2639 50.2391 48.0861 50.1609 47.8648C50.1609 47.8648 50.1498 47.803 50.153 47.7639C50.5336 47.4863 50.9142 47.2087 51.2917 46.9242C51.4217 46.8233 51.5007 46.8126 51.611 46.9635C51.8659 47.3126 51.8746 47.3044 52.2168 47.0527C52.4087 46.9098 52.5755 46.9359 52.7172 47.1312C53.0957 47.6419 53.0907 47.64 53.6254 47.2591C53.7586 47.1651 53.8623 46.9506 54.0314 46.991C54.1734 47.0271 54.2654 47.2114 54.3985 47.3017C55.0011 47.7065 55.259 48.3389 55.5219 48.9733C55.5799 49.1103 55.6399 49.2422 55.7029 49.3811C55.3242 49.4232 55.1069 49.7103 54.8367 49.9083C54.7559 49.9702 54.814 50.0611 54.8696 50.128C54.9768 50.2719 55.0781 50.4309 55.1942 50.5667C55.3103 50.7024 55.3135 50.8015 55.1493 50.9012C55.001 50.9895 54.8704 51.1075 54.7284 51.2097L54.7303 51.2046Z" fill="#FFD1E3"/>
<path d="M50.1531 47.7639C50.3427 48.0463 50.2995 48.2893 50.0234 48.4928C48.5001 49.62 46.9735 50.7402 45.4502 51.8673C45.3713 51.9241 45.2791 51.9702 45.2494 52.08C44.8666 51.4582 44.41 50.8951 43.9956 50.296C43.7981 50.0087 43.8131 49.9683 44.0991 49.7588C44.9905 49.1029 45.8839 48.4419 46.7753 47.7859C46.7892 47.7796 46.8049 47.7682 46.8156 47.7549C47.1628 47.5512 47.4772 47.3121 47.779 47.0453C48.1142 46.7968 48.4507 46.5603 48.7777 46.3029C48.9235 46.1906 49.015 46.2077 49.1203 46.3567C49.4609 46.8301 49.8106 47.2955 50.155 47.7589L50.1531 47.7639Z" fill="#EA4164"/>
<path d="M51.8598 27.1857C52.4124 27.923 52.965 28.6604 53.5106 29.4009C57.1823 34.3793 60.852 39.3628 64.5237 44.3412C64.6113 44.4605 64.7042 44.5818 64.7937 44.6961C64.605 44.8153 64.4995 44.9888 64.4812 45.2065C64.4659 45.3851 64.3749 45.4431 64.212 45.4626C64.0322 45.4814 63.8632 45.441 63.6953 45.4126C63.5496 45.3866 63.4681 45.4194 63.3948 45.5532C63.0689 46.145 63.0639 46.1431 62.6677 45.6027C61.4611 43.9689 60.2562 42.33 59.0445 40.6943C58.9877 40.6154 58.9242 40.5397 58.8623 40.4589C58.3022 39.6957 57.742 38.9324 57.18 38.1742C53.6074 33.3309 50.0366 28.4825 46.4639 23.6391C46.4185 23.576 46.3782 23.5148 46.3378 23.4536C46.5626 23.2845 46.8611 23.2872 47.0934 23.0979C47.3611 22.8759 47.5897 22.6507 47.7382 22.3321C47.9201 21.9396 47.9352 21.9453 48.1888 22.2824C49.345 23.8512 50.5011 25.4199 51.6592 26.9836C51.716 27.0626 51.7511 27.1679 51.8647 27.1875L51.8598 27.1857Z" fill="#8D0C34"/>
<path d="M58.0262 51.4919C57.9171 51.2608 58.053 51.1448 58.226 51.037C58.4078 50.9209 58.5914 50.7998 58.7455 50.6503C59.2291 50.1753 59.7693 50.1937 60.346 50.4218C60.5631 50.5033 60.7677 50.6032 60.981 50.6948C61.075 50.7358 61.1524 50.8052 61.1568 50.9163C61.1976 51.5133 61.1892 52.1035 60.8873 52.6467C60.8286 52.7572 60.7401 52.8391 60.6365 52.9154C60.2016 53.2302 59.768 53.557 59.3331 53.8717C59.2207 53.9563 59.1379 54.0231 59.2622 54.1677C59.3638 54.2807 59.3101 54.3469 59.1939 54.4416C58.8013 54.7664 58.3838 55.0647 57.9748 55.3719C57.8693 55.4533 57.9181 55.5234 57.9749 55.6023C58.1099 55.7797 58.2428 55.9621 58.3759 56.1446C58.5904 56.4325 58.545 56.5536 58.1834 56.6425C57.7626 56.0756 57.3539 55.5074 56.9262 54.9436C56.814 54.7978 56.8106 54.6987 56.976 54.611C57.1326 54.5316 57.1278 54.4376 57.0237 54.3006C56.6755 53.8473 56.3448 53.3776 56.0016 52.9262C55.8925 52.7873 55.8837 52.7034 56.0416 52.5898C56.4008 52.3388 56.7537 52.0739 57.0997 51.8121C57.212 51.7276 57.3296 51.6911 57.4621 51.6602C57.6534 51.6111 57.8551 51.5947 58.0262 51.4919Z" fill="#FFD1E3"/>
<path d="M61.7791 49.4739C61.9123 49.3799 62.0543 49.3237 62.2152 49.3093C62.662 49.2697 62.9351 49.6314 62.7658 50.0517C62.6584 50.3224 62.4559 50.494 62.17 50.5652C61.9409 50.6232 61.725 50.5997 61.5635 50.4009C61.3938 50.1932 61.4312 49.971 61.5417 49.7533C61.6004 49.6429 61.6824 49.547 61.784 49.4757L61.7791 49.4739Z" fill="#680126"/>
<path d="M63.3514 51.6826C63.3098 51.7015 63.2239 51.7614 63.1323 51.7904C62.866 51.8862 62.6042 51.8167 62.4598 51.6185C62.3216 51.4342 62.3262 51.1767 62.4834 50.942C62.6243 50.7357 62.8205 50.5962 63.066 50.5559C63.2926 50.52 63.4957 50.5618 63.6402 50.76C63.7764 50.9494 63.7467 51.1513 63.6539 51.3526C63.5964 51.475 63.5042 51.5672 63.3514 51.6826Z" fill="#680126"/>
<path d="M64.3611 52.845C64.1749 52.9882 64.0288 53.0543 63.8698 53.0637C63.6678 53.08 63.4856 53.0289 63.3676 52.8521C63.2446 52.6735 63.2385 52.4753 63.3395 52.2829C63.4665 52.0368 63.654 51.8595 63.9411 51.8003C64.1854 51.748 64.4075 51.7853 64.5633 51.9994C64.6964 52.1818 64.6762 52.4507 64.5126 52.6715C64.4532 52.7529 64.3825 52.8185 64.3679 52.8418L64.3611 52.845Z" fill="#680126"/>
<path d="M30.5327 28.1809C30.0498 28.5929 29.5327 28.7731 28.9092 28.6542C28.3652 28.5536 27.9421 27.8245 27.9536 27.4257C27.9651 26.9808 28.318 26.7619 28.6532 26.5594C29.1367 26.2687 29.677 26.149 30.2292 26.0741C30.447 26.0464 30.6611 26.075 30.8687 26.1356C31.1811 26.2241 31.3653 26.5467 31.3392 26.9228C31.2955 27.4997 31.0118 27.9173 30.5358 28.1878L30.5327 28.1809Z" fill="#FFD1E3"/>
<path d="M31.6935 28.8469C31.6959 28.963 31.7016 29.0861 31.7022 29.2073C31.6978 29.5359 31.5339 29.7066 31.2103 29.7195C30.8867 29.7324 30.7263 29.5877 30.7285 29.2852C30.7129 28.7437 30.7127 28.7436 31.2504 28.7842C31.3968 28.7931 31.5453 28.751 31.6967 28.8539L31.6935 28.8469Z" fill="#FFD1E3"/>
<path d="M58.3563 62.6403C57.8822 62.9979 57.4098 63.2122 56.8419 63.1142C56.1824 62.999 55.8893 62.4916 55.7709 61.9172C55.723 61.6919 55.8498 61.4918 56.0189 61.348C56.7267 60.7209 57.5655 60.4657 58.4983 60.5279C58.9306 60.5577 59.1407 60.8267 59.1569 61.259C59.1788 61.9065 58.8102 62.3211 58.3563 62.6403Z" fill="#FFD1E3"/>
<path d="M59.4741 64.1426C59.339 64.1495 59.1868 64.1557 59.0416 64.1588C58.716 64.1671 58.5538 64.0063 58.5548 63.6765C58.5558 63.3466 58.7212 63.1918 59.0514 63.2121C59.3817 63.2324 59.5413 63.396 59.5298 63.7027C59.5292 63.8119 59.5304 63.916 59.5297 64.0252C59.5316 64.0663 59.5333 64.1072 59.4809 64.1394L59.4741 64.1426Z" fill="#FFD1E3"/>
<path d="M35.986 29.3181C35.9513 29.3339 35.888 29.3792 35.8173 29.3988C35.652 29.4404 35.484 29.4579 35.3635 29.3033C35.2368 29.1347 35.3026 28.9751 35.4055 28.8237C35.4453 28.7638 35.5052 28.7114 35.5614 28.6691C35.8038 28.4837 36.1024 28.4864 36.2324 28.6619C36.3573 28.8355 36.2593 29.127 35.986 29.3181Z" fill="#FFAABE"/>
<path d="M36.8896 30.5619C36.8896 30.5619 36.8145 30.6086 36.7558 30.6269C36.5848 30.6836 36.405 30.7025 36.2813 30.5409C36.1463 30.3635 36.2259 30.1975 36.3358 30.0429C36.3737 29.988 36.4247 29.9438 36.479 29.9066C36.7176 29.7313 37.025 29.7257 37.1499 29.8993C37.2748 30.073 37.1786 30.3594 36.8946 30.5638L36.8896 30.5619Z" fill="#FFAABE"/>
<path d="M68.7638 58.9446C68.6672 59.0178 68.56 59.0582 68.4452 59.0727C68.3082 59.0846 68.1794 59.0593 68.0917 58.94C68.0059 58.8156 68.0244 58.6901 68.0838 58.5626C68.1633 58.3966 68.292 58.2837 68.4599 58.22C68.6398 58.1551 68.8235 58.1261 68.9535 58.3016C69.0834 58.4771 69.0088 58.645 68.899 58.7996C68.8611 58.8545 68.8068 58.8917 68.7607 58.9377L68.7638 58.9446Z" fill="#FFAABE"/>
<path d="M37.8038 31.8096C37.8038 31.8096 37.7288 31.8562 37.6701 31.8745C37.499 31.9312 37.3211 31.9451 37.1974 31.7835C37.0757 31.6168 37.1362 31.4552 37.2392 31.3038C37.2771 31.2489 37.3232 31.2029 37.3744 31.1587C37.6136 30.9663 37.938 30.9614 38.0641 31.147C38.1871 31.3257 38.0879 31.6052 37.8038 31.8096Z" fill="#FFAABE"/>
<path d="M67.8197 57.7149C67.8197 57.7149 67.7634 57.7571 67.7167 57.7742C67.521 57.8505 67.3217 57.8908 67.1792 57.6875C67.048 57.5 67.1433 57.3227 67.2702 57.1688C67.3024 57.129 67.3378 57.0962 67.3782 57.0653C67.6187 56.8849 67.9192 56.8826 68.0491 57.0581C68.1822 57.2405 68.0918 57.5118 67.8216 57.7099L67.8197 57.7149Z" fill="#FFAABE"/>
<path d="M65.0873 53.9933C65.0456 54.0122 64.9826 54.0577 64.9151 54.0841C64.7421 54.1459 64.5678 54.1496 64.4441 53.9879C64.3237 53.8333 64.3844 53.6718 64.4785 53.5286C64.5688 53.3954 64.697 53.2996 64.8472 53.2523C65.0302 53.1943 65.2164 53.1893 65.3248 53.3913C65.427 53.5794 65.3664 53.741 65.2212 53.8823C65.1859 53.9151 65.1454 53.946 65.0854 53.9983L65.0873 53.9933Z" fill="#FF7B9A"/>
<path d="M39.6572 34.2679C39.6572 34.2679 39.5921 34.3184 39.5403 34.3335C39.3554 34.3965 39.159 34.4437 39.0228 34.2544C38.8834 34.058 38.9737 33.8788 39.1145 33.7186C39.1467 33.6789 39.1821 33.6461 39.2225 33.6152C39.4454 33.4512 39.7546 33.4405 39.8782 33.6022C40.0119 33.7676 39.9224 34.068 39.6572 34.2679Z" fill="#FFD1E3"/>
<path d="M38.7379 33.0357C38.7379 33.0357 38.6679 33.0843 38.6142 33.1045C38.4293 33.1675 38.2317 33.2028 38.0955 33.0134C37.9675 32.8329 38.0522 32.6689 38.1672 32.5162C38.2013 32.4714 38.2453 32.4303 38.2926 32.3962C38.5281 32.2139 38.8355 32.2084 38.9674 32.3789C39.0973 32.5544 39.0081 32.8377 38.7379 33.0357Z" fill="#FFAABE"/>
<path d="M65.9844 55.2399C65.9844 55.2399 65.9074 55.2916 65.8468 55.315C65.6669 55.3799 65.4801 55.4019 65.3502 55.2264C65.2253 55.0528 65.3015 54.8798 65.4164 54.7271C65.4524 54.6773 65.5087 54.6351 65.5598 54.5909C65.7985 54.4156 66.0819 54.4125 66.2087 54.5811C66.3456 54.7534 66.2565 55.0368 65.9825 55.2449L65.9844 55.2399Z" fill="#FFAABE"/>
<path d="M66.9671 56.4269C66.8232 56.5342 66.7189 56.5814 66.6009 56.5889C66.3011 56.6204 66.1302 56.4007 66.2363 56.118C66.3178 55.9009 66.4865 55.7742 66.7056 55.7124C66.8659 55.669 67.0224 55.6816 67.1297 55.8256C67.235 55.9746 67.195 56.1266 67.1028 56.2648C67.0523 56.338 66.9886 56.4004 66.969 56.4219L66.9671 56.4269Z" fill="#FFAABE"/>
<path d="M47.7767 47.0503C47.4945 47.3418 47.1782 47.5859 46.8134 47.76L47.7767 47.0503Z" fill="#ABABA9"/>
<path d="M40.5892 35.4989C40.3543 35.6642 40.0638 35.6703 39.937 35.5017C39.8052 35.3313 39.8932 35.036 40.1319 34.8607C40.3655 34.6834 40.681 34.6867 40.8059 34.8603C40.9308 35.0339 40.8328 35.3255 40.5892 35.4989Z" fill="#FFD1E3"/>
<path d="M42.4561 37.9508C42.3349 38.0435 42.2346 38.0807 42.1248 38.0971C41.979 38.1173 41.8413 38.1001 41.7492 37.9618C41.6634 37.8375 41.6887 37.7088 41.7462 37.5863C41.8258 37.4204 41.9528 37.3126 42.1207 37.2489C42.3024 37.1789 42.4873 37.1619 42.6173 37.3374C42.7472 37.5129 42.6657 37.6839 42.5508 37.8366C42.5129 37.8915 42.4637 37.9306 42.4441 37.9521L42.4561 37.9508Z" fill="#FFD1E3"/>
<path d="M41.4997 36.7393C41.4997 36.7393 41.4595 36.7703 41.4387 36.7798C41.212 36.9078 40.9651 36.89 40.8478 36.7422C40.7324 36.5895 40.7825 36.3491 40.9719 36.1668C40.9896 36.1504 41.0072 36.1339 41.0299 36.1194C41.2692 35.927 41.5935 35.9221 41.7216 36.1027C41.8446 36.2813 41.7485 36.5678 41.5049 36.7413L41.4997 36.7393Z" fill="#FFD1E3"/>
<path d="M61.9046 49.6304C62.1433 49.455 62.4249 49.4571 62.5568 49.6276C62.6835 49.7961 62.6013 50.0763 62.3728 50.2554C62.1442 50.4346 61.8299 50.4432 61.6999 50.2677C61.57 50.0922 61.661 49.8038 61.9065 49.6253L61.9046 49.6304Z" fill="#FF7B9A"/>
<path d="M62.7505 50.9213C62.8932 50.8021 63.0024 50.7567 63.1173 50.7422C63.2561 50.7253 63.3831 50.7556 63.4707 50.8749C63.5635 50.9962 63.5381 51.1248 63.4787 51.2523C63.3846 51.4416 63.2349 51.564 63.0317 51.6144C62.8714 51.6579 62.7129 51.6502 62.6076 51.5012C62.5054 51.3592 62.5416 51.2173 62.6268 51.0822C62.6723 51.0071 62.7431 50.9416 62.7557 50.9233L62.7505 50.9213Z" fill="#FF7B9A"/>
<path d="M64.1974 52.743C64.073 52.8288 63.9466 52.8735 63.8084 52.8734C63.5421 52.8771 63.3996 52.6738 63.4843 52.4176C63.5538 52.2018 63.7255 52.082 63.9243 52.0126C64.0834 51.9572 64.2595 51.9484 64.3762 52.1132C64.498 52.2798 64.4474 52.4452 64.3394 52.5947C64.2946 52.6528 64.2397 52.707 64.1955 52.748L64.1974 52.743Z" fill="#FF7B9A"/>
<path d="M28.9407 27.8193C28.5414 27.2719 28.6727 26.8604 29.3152 26.6524C29.5848 26.5635 29.86 26.5056 30.1408 26.5247C30.4829 26.5494 30.7158 26.7578 30.5648 27.1446C30.4233 27.5062 30.2528 27.8223 29.9119 28.0399C29.5464 28.2771 29.167 28.198 28.9355 27.8173L28.9407 27.8193Z" fill="#FF87AF"/>
<path d="M57.8409 62.4175C57.5864 62.6042 57.3104 62.7252 57.0177 62.5231C56.7148 62.3172 56.5313 62.0237 56.5403 61.6469C56.5473 61.4595 56.6635 61.3188 56.8169 61.2324C57.2108 61.0117 57.6324 60.9165 58.0836 60.988C58.372 61.033 58.4819 61.2009 58.4098 61.4849C58.3175 61.8534 58.1583 62.1853 57.8357 62.4155L57.8409 62.4175Z" fill="#D7355B"/>
<path d="M52.9314 68.2404C53.6954 69.7344 55.5266 70.3257 57.018 69.5499L74.1298 60.6748C75.6068 59.9122 76.1877 58.1005 75.4316 56.6196L52.889 12.3644C52.1251 10.8703 50.2936 10.279 48.8022 11.0547L31.6907 19.9299C30.2136 20.6926 29.6327 22.5042 30.3888 23.9851L52.9314 68.2404Z" fill="#C8F1E6"/>
<path d="M72.5867 61.549L74.1289 60.6803C75.6059 59.9177 76.1868 58.1061 75.4307 56.6251L52.8881 12.3699C52.1241 10.8759 50.2926 10.2845 48.8013 11.0603L47.1195 12L72.5854 61.5543L72.5867 61.549Z" fill="#A0E1D0"/>
<path d="M33.2475 19.0483L31.7053 19.9171C30.2283 20.6797 29.6474 22.4913 30.4035 23.9723L52.9461 68.2275C53.7101 69.7215 55.5413 70.3128 57.0327 69.5371L58.7147 68.5974L33.2488 19.0431L33.2475 19.0483Z" fill="#A0E1D0"/>
<path d="M51.9157 24.4878C51.9157 24.4878 50.1241 28.7719 51.9064 33.428C51.9064 33.428 45.3551 26.1774 42.6374 27.5777L45.8931 50.7994C45.8931 50.7994 47.2583 54.9858 51.6672 52.7202C56.0761 50.4546 55.8334 43.1629 53.6403 37.5389C53.6403 37.5389 58.7973 46.1391 63.0466 45.7559L51.921 24.4891L51.9157 24.4878Z" fill="#E7FBF4"/>
<path d="M71.0104 54.1533L50.8073 14.8469L47.853 16.3653L68.0562 55.6718L71.0104 54.1533Z" fill="#63BBA7"/>
<path d="M47.7751 16.561L48.1885 15.6078L47.89 15.5118L47.7389 15.2245L48.0951 15.0404L48.374 15.1259L48.4686 14.8327L49.1492 14.4843L49.2308 14.2212L49.4572 14.2938L50.2082 13.9072L50.5501 14.5694L50.8427 14.4195L50.9701 14.6676L51.3247 14.7385L51.1765 15.0685L51.3042 15.3167L51.0117 15.4666L51.3521 16.1339L50.5959 16.5192L50.5247 16.7404L50.2669 16.66L49.5863 17.0084L49.2881 16.9126L49.1973 17.1901L48.8407 17.3741L48.6909 17.0816L48.7866 16.7831L47.7751 16.561Z" fill="#4B9F89"/>
<path d="M66.155 56.9828L65.5213 55.7487L64.9872 55.5723L65.2288 55.0432L64.9764 54.5587L65.4817 54.3114L66.0856 52.7443L66.5465 52.9249L67.838 52.2608L68.0197 51.7503L69.6098 52.1487L70.067 51.9172L70.322 52.4135L70.7839 52.522L70.6219 52.9986L71.3081 54.3345L71.9986 55.6771L72.475 55.817L72.2983 56.2621L72.5535 56.7584L72.1016 56.9911L71.503 58.5151L70.978 58.3687L69.6812 59.0315L69.5635 59.5078L67.9394 59.0899L67.4458 59.3568L67.1947 58.8671L66.6215 58.7588L66.7926 58.2234L66.155 56.9828Z" fill="#4B9F89"/>
<path d="M69.6396 55.2885L69.4901 56.1625L68.5494 56.0356L68.7052 55.091L69.6396 55.2885Z" fill="#F5EFDA"/>
<path d="M70.3681 56.702L70.2186 57.576L69.2715 57.4531L69.4284 56.5032L70.3681 56.702Z" fill="#F5EFDA"/>
<path d="M69.8452 53.0845L68.6177 53.1978C68.6177 53.1978 68.1778 54.8887 66.1043 55.6373C66.1043 55.6373 68.609 55.7728 69.8452 53.0845Z" fill="#F5EFDA"/>
<path d="M34.5728 25.9356C34.2388 25.2865 34.4823 24.819 34.4823 24.819C33.6912 23.4794 34.2989 22.863 34.2989 22.863L33.9872 22.2583L37.1803 20.6199L37.4657 21.1737C38.7516 21.297 38.9762 22.5466 38.9762 22.5466C39.4329 22.6539 39.67 23.3124 39.67 23.3124C39.67 23.3124 40.0665 23.888 39.8872 24.3214C39.8872 24.3214 40.7739 25.2292 40.1257 26.3465L40.4112 26.9003L37.2181 28.5387L36.9064 27.934C36.9064 27.934 36.0553 28.0736 35.4236 26.6512C35.4236 26.6512 34.903 26.5781 34.5703 25.9238L34.5728 25.9356Z" fill="#4B9F89"/>
<path d="M37.9034 24.2364L37.7529 25.1157L36.8122 24.9888L36.969 24.0389L37.9034 24.2364Z" fill="#F5EFDA"/>
<path d="M38.632 25.6496L38.4815 26.5289L37.5355 26.4007L37.6977 25.4521L38.632 25.6496Z" fill="#F5EFDA"/>
<path d="M38.1094 22.0323L36.8816 22.1456C36.8816 22.1456 36.4417 23.8365 34.3683 24.5851C34.3683 24.5851 36.8731 24.7207 38.1094 22.0323Z" fill="#F5EFDA"/>
<path d="M52.4829 63.3073L31.9766 23.4109L31.2764 23.7708L51.7827 63.6672L52.4829 63.3073Z" fill="#4B9F89"/>
<path d="M52.2288 44.9608L53.3545 44.3836L53.3683 44.1259L53.7822 43.9116L54.033 44.2235L55.2605 43.5936C55.2605 43.5936 55.4283 43.2518 55.604 43.4174C55.7797 43.583 56.0438 43.5039 56.2212 43.3255C56.3985 43.1472 56.6815 42.9227 56.9093 43.0123C57.1371 43.1019 57.4976 42.9021 57.4976 42.9021L57.5279 42.9596C57.5279 42.9596 57.1504 43.1385 57.0922 43.3741C57.034 43.6096 56.6876 43.7073 56.4379 43.7512C56.1895 43.7898 55.9691 43.9631 55.9998 44.1984C56.0305 44.4337 55.6563 44.3746 55.6563 44.3746L54.4289 45.0045L54.5345 45.386L54.1206 45.6004L53.9056 45.4584L52.7799 46.0357L52.2329 44.9674L52.2288 44.9608Z" fill="#63BBA7"/>
<path d="M45.6753 50.4902L51.9544 47.2648L53.4743 46.8682L52.5463 44.2839L50.9798 44.8467L44.5207 48.1721L45.6753 50.4902Z" fill="#4B9F89"/>
<path d="M52.8411 45.1122L53.7578 44.6388L53.6645 44.4546C53.6645 44.4546 55.3245 43.6928 55.2974 42.4086C55.2703 41.1244 55.6334 40.9586 55.6334 40.9586C55.6334 40.9586 55.0741 41.0648 54.0735 40.551C53.0729 40.0372 51.8622 40.6435 51.8622 40.6435L51.5776 40.3565L50.6112 40.8509L52.8424 45.1069L52.8411 45.1122Z" fill="#4B9F89"/>
<path d="M42.5997 27.5518L35.7356 31.0771L44.5205 48.172L50.9796 44.8466L52.546 44.2838L50.3621 40.0395L49.9333 38.6727L49.3744 38.9568L47.253 35.6055L42.5997 27.5518Z" fill="#63BBA7"/>
<path d="M40.9938 41.3131L40.3112 39.9836C40.3112 39.9836 45.9543 37.1064 46.7378 36.6779C47.5213 36.2494 46.9001 36.2681 47.4471 35.92C47.9889 35.5706 48.3501 36.0876 48.3501 36.0876L49.5529 35.4682L50.28 35.5146L53.4417 33.8462L54.5088 32.9212L54.7258 33.347L56.5915 32.2027L56.9492 32.441L57.6623 32.0729L58.0795 31.5983L58.6843 31.8477L58.8749 31.7282C59.2712 31.2706 59.6043 31.564 59.6043 31.564L60.5882 31.2461L59.7595 31.8579C59.7595 31.8579 59.8 32.3011 59.1972 32.3577L58.988 32.4393L58.842 33.0753L58.2144 33.1424L57.5016 33.5106L57.4896 33.9409L55.4741 34.7927L55.6911 35.2184L54.3199 35.5518L51.1203 37.1497L50.735 37.7654L49.5321 38.3847C49.5321 38.3847 49.7417 38.9752 49.1434 39.2162C48.5398 39.4559 48.9178 38.9605 48.1107 39.3499C47.3087 39.7405 41.684 42.6555 41.684 42.6555L41.0017 41.3261L40.9938 41.3131Z" fill="#4B9F89"/>
<path d="M61.3639 60.1172L58.2629 54.0841L57.7642 54.3404L60.8652 60.3736L61.3639 60.1172Z" fill="#4B9F89"/>
<path d="M58.3647 59.1779L56.7206 55.9791L55.958 56.3711L57.6022 59.5698L58.3647 59.1779Z" fill="#4B9F89"/>
<path d="M55.3631 61.4736C55.8107 63.0751 57.4821 64.0025 59.0781 63.5388L77.4225 58.2382C79.0024 57.7799 79.9191 56.1353 79.477 54.55L66.1583 7.18471C65.7108 5.58322 64.0391 4.65576 62.443 5.11949L44.0987 10.42C42.5188 10.8784 41.602 12.523 42.0442 14.1083L55.3631 61.4736Z" fill="#F9A919"/>
<path d="M68.4397 15.3321L55.4767 19.0257C55.4767 19.0257 55.9674 21.1018 53.5679 21.7812C51.1737 22.466 50.985 20.3037 50.985 20.3037L44.304 22.2071L47.9005 34.8196L72.0415 27.9391L68.4449 15.3267L68.4397 15.3321Z" fill="#FFCB82"/>
<path d="M75.8429 53.8057L77.1315 58.3244L58.8519 63.6034L57.5634 59.0847L75.8429 53.8057Z" fill="#FFBC5C"/>
<path d="M58.2318 57.1869C58.2318 57.1869 58.3612 55.8766 59.3803 55.2996C60.3994 54.7226 62.0009 54.6472 62.8637 55.8119C63.7318 56.9766 64.228 57.1222 64.228 57.1222C64.228 57.1222 63.8775 57.505 63.7589 58.9555C63.6348 60.4007 62.2384 61.1825 61.0683 61.2311C59.8982 61.2796 59.0946 60.2335 59.0946 60.2335L58.2266 57.1869H58.2318Z" fill="#D28428"/>
<path d="M69.0756 45.906C71.7339 45.1457 73.2762 42.3741 72.5213 39.7157C72.3973 39.2844 72.2247 38.8853 72.0037 38.5241C72.8341 37.3324 73.1414 35.7902 72.7101 34.2858C72.2949 32.8353 71.2811 31.7137 70.014 31.1205C69.9816 30.8833 69.9331 30.646 69.8684 30.4088C69.1081 27.7504 66.3365 26.2082 63.6781 26.9631C63.3815 27.0494 63.1011 27.1573 62.8369 27.2867C61.6128 26.2891 59.9359 25.8847 58.2967 26.3484C57.0241 26.7097 56.005 27.5347 55.3741 28.5862C52.7643 29.3789 51.2653 32.1181 52.0148 34.7495C52.6295 36.901 54.5543 38.3192 56.6735 38.3839C56.6843 38.7883 56.749 39.1981 56.8623 39.6025C57.6226 42.2609 60.3942 43.8031 63.0525 43.0481C63.0633 43.0481 63.0796 43.0427 63.0904 43.0373C64.061 45.3344 66.6113 46.6016 69.0756 45.9006V45.906Z" fill="#FFBC5C"/>
<path d="M57.1424 53.3634L65.0096 51.1202C65.0096 51.1202 67.3122 50.2628 68.5093 46.8118C69.7063 43.3608 71.1298 42.552 71.1298 42.552L72.6019 42.1314L72.4834 41.7216L71.0866 42.1206C71.0866 42.1206 69.2534 41.9157 67.1396 40.4598C65.0259 39.0039 62.8853 37.9955 59.7092 38.9014L54.9479 45.6687L57.1424 53.3634Z" fill="#D28428"/>
<path d="M56.3877 50.716L62.6536 48.9311L62.4808 47.7826L64.8481 46.262L67.3933 45.5394C67.3933 45.5394 67.9379 45.2536 68.2614 44.6389C68.585 44.0242 69.1457 43.059 70.1163 42.5899C70.1163 42.5899 69.0216 42.6923 68.1427 42.2879C67.2691 41.8835 67.1344 41.2364 65.3441 41.7487L63.5269 42.2664L60.5019 42.0291L56.075 49.6106L56.393 50.716H56.3877Z" fill="#F9A919"/>
<path d="M58.2694 34.7931L61.5966 33.8441L62.4055 33.3318L63.2035 33.1054L63.3491 33.623L64.9128 33.1754L65.4089 32.7549L65.8349 32.6308L66.2122 32.9867L67.2961 32.6794L67.7058 32.4098L68.2774 32.5823L68.9622 32.3882C68.9622 32.3882 69.8249 31.8651 70.1215 32.2426L71.1191 31.9568L70.1162 32.4098C70.1162 32.4098 69.6848 32.9112 69.1294 32.7657L68.2506 33.0137L68.3098 33.224L68.369 33.4343L69.2482 33.1862C69.6418 32.771 70.2726 32.9706 70.2726 32.9706L71.3619 32.825L70.3643 33.1107C70.3157 33.5853 69.3019 33.596 69.3019 33.596L68.6173 33.7902L68.2234 34.2431L67.7329 34.2269L66.649 34.5343L66.5142 35.0358L66.0881 35.1598L65.4465 35.0627L63.8828 35.5103L64.0284 36.0279L63.2304 36.2544L62.2759 36.2436L58.949 37.1927L58.2642 34.7931H58.2694Z" fill="#D28428"/>
<path d="M50.6881 30.727L55.6056 29.325L55.3739 28.5916L56.2581 29.1416L57.0993 28.899L62.4862 47.7826L56.0748 49.6105L50.6881 30.727Z" fill="#B66D1C"/>
<path d="M72.1924 48.6075L70.2943 49.1575C69.4046 49.4164 68.8869 50.3438 69.1403 51.2335L71.5831 59.9258L72.5373 59.6508L76.727 58.4429L74.2898 49.7776C74.0363 48.8771 73.0981 48.3541 72.1976 48.6129L72.1924 48.6075Z" fill="#D28428"/>
<path d="M59.0944 59.8614L46.7311 16.4884L44.7294 17.059L57.0927 60.4319L59.0944 59.8614Z" fill="#B66D1C"/>
<path d="M46.8705 18.9936C47.124 19.8941 48.0621 20.4172 48.9626 20.1583L50.8607 19.6083C51.7504 19.3495 52.2682 18.4221 52.0147 17.5323L49.5719 8.84007L47.4474 9.45479L44.4332 10.3283L46.8705 18.9936Z" fill="#D28428"/>
<path d="M73.4756 52.5923C73.4756 52.5923 72.4295 53.881 71.3511 54.2423L71.3887 54.3825C71.3887 54.3825 72.6883 54.1237 73.1628 53.5898C73.1628 53.5898 73.2167 54.4472 74.3868 54.0266L74.3329 53.8379C74.3329 53.8379 73.8746 54.0374 73.7668 53.5791C73.6589 53.1207 74.0796 52.6085 74.0796 52.6085L73.4703 52.5923H73.4756Z" fill="#F9A919"/>
<path d="M73.438 54.9706L73.2061 55.5799L72.5481 55.3534L72.7964 54.6956L73.438 54.9706Z" fill="#F9A919"/>
<path d="M73.7559 56.0866L73.5239 56.6959L72.8662 56.4695L73.1142 55.8116L73.7559 56.0866Z" fill="#F9A919"/>
<path d="M47.1885 13.9247L46.6493 14.0811L46.1693 12.4041C46.3796 12.3664 46.5899 12.361 46.8002 12.4041C47.0105 12.4419 47.3018 12.5551 47.6793 12.7331C47.9759 12.8733 48.1752 12.9595 48.2722 12.9811C48.4178 13.0189 48.5474 13.0189 48.6714 12.9811C48.8062 12.9434 48.8977 12.884 48.9463 12.8086C48.9948 12.7277 49.011 12.6414 48.9786 12.5443C48.9193 12.334 48.7252 12.2639 48.407 12.3394L48.3317 11.8487C48.6499 11.7894 48.9033 11.811 49.0866 11.9134C49.2699 12.0159 49.3993 12.1831 49.4694 12.4203C49.5449 12.6791 49.5125 12.9002 49.3831 13.0836C49.2536 13.2669 49.0757 13.3855 48.8546 13.4502C48.7306 13.488 48.6067 13.5042 48.4773 13.5042C48.3533 13.5042 48.2184 13.4826 48.0782 13.4502C47.938 13.4125 47.7548 13.337 47.5229 13.2291C47.3072 13.1267 47.167 13.062 47.0969 13.035C47.0322 13.0081 46.9674 12.9919 46.9081 12.9811L47.1777 13.9301L47.1885 13.9247Z" fill="#F9A919"/>
<path d="M50.0193 14.3399C50.0894 14.5825 50.03 14.809 49.8413 15.0247C49.6526 15.2404 49.275 15.4291 48.6981 15.5909C48.1211 15.7527 47.7007 15.7958 47.4311 15.7095C47.1561 15.6232 46.9888 15.4615 46.9187 15.2242C46.8486 14.987 46.9079 14.7551 47.0912 14.5394C47.2745 14.3237 47.6576 14.135 48.2399 13.9678C48.8223 13.8007 49.2319 13.7683 49.5069 13.8492C49.7819 13.9355 49.9492 14.0972 50.0193 14.3345V14.3399ZM49.534 14.4801C49.5071 14.3884 49.4261 14.3291 49.2805 14.3075C49.1403 14.286 48.8385 14.3453 48.3747 14.4747C47.911 14.6041 47.625 14.7173 47.5172 14.809C47.4094 14.9007 47.3718 14.9923 47.3987 15.0894C47.4257 15.1865 47.5118 15.2404 47.652 15.262C47.7922 15.2835 48.0943 15.2242 48.558 15.0948C49.0217 14.9654 49.3074 14.8521 49.4153 14.7605C49.5231 14.6688 49.5662 14.5772 49.5393 14.4801H49.534Z" fill="#F9A919"/>
<path d="M50.5694 16.2757C50.6395 16.5184 50.5802 16.7448 50.3915 16.9605C50.2027 17.1762 49.8252 17.3649 49.2482 17.5267C48.6713 17.6885 48.2509 17.7316 47.9813 17.6453C47.7063 17.559 47.539 17.3973 47.4689 17.16C47.3988 16.9228 47.458 16.6909 47.6414 16.4752C47.8247 16.2595 48.2077 16.0708 48.7901 15.9036C49.3725 15.7365 49.7821 15.7041 50.0571 15.785C50.3321 15.8713 50.4993 16.033 50.5694 16.2703V16.2757ZM50.0842 16.4159C50.0572 16.3242 49.9762 16.2649 49.8306 16.2433C49.6904 16.2218 49.3886 16.2811 48.9249 16.4105C48.4612 16.5399 48.1752 16.6532 48.0674 16.7448C47.9595 16.8365 47.9219 16.9282 47.9489 17.0252C47.9759 17.1223 48.062 17.1762 48.2022 17.1978C48.3424 17.2193 48.6444 17.16 49.1082 17.0306C49.5719 16.9012 49.8576 16.788 49.9654 16.6963C50.0733 16.6046 50.1164 16.513 50.0895 16.4159H50.0842Z" fill="#F9A919"/>
<path d="M60.3857 26.1606L58.4716 19.4453L57.9167 19.6035L59.8309 26.3188L60.3857 26.1606Z" fill="#B66D1C"/>
<path d="M58.0193 25.9887L57.0038 22.4261L56.1533 22.6685L57.1688 26.2311L58.0193 25.9887Z" fill="#B66D1C"/>
<path d="M62.6588 12.1132C63.9036 12.1132 64.9129 11.104 64.9129 9.85921C64.9129 8.61439 63.9036 7.60527 62.6588 7.60527C61.414 7.60527 60.4048 8.61439 60.4048 9.85921C60.4048 11.104 61.414 12.1132 62.6588 12.1132Z" fill="#D28428"/>
<path d="M71.9727 41.7344C72.9116 42.5475 75.245 42.3668 76.4156 40.9644C77.9751 39.0946 78.9925 38.2814 76.3999 36.0737C75.1428 35.0052 73.7953 35.7673 71.9923 37.5665C71.1084 38.4464 70.7235 40.6541 71.9727 41.7344Z" fill="#FFD3CA"/>
<path d="M75.4414 37.7588C76.5334 38.7173 76.4115 39.829 75.8302 40.4928C75.2488 41.1567 74.4279 41.1174 73.3359 40.1589C72.2438 39.2004 72.0277 38.4933 72.6091 37.8334C73.1905 37.1695 74.3492 36.8042 75.4373 37.7588H75.4414Z" fill="#FF8685"/>
<path d="M75.2724 37.9747C76.3645 38.9332 76.2192 39.8799 75.6378 40.5437C75.0564 41.2076 74.259 41.3333 73.1669 40.3788C72.0749 39.4203 72.0671 38.5718 72.6485 37.9118C73.2299 37.2479 74.1805 37.024 75.2686 37.9786L75.2724 37.9747Z" fill="#FFD3CA"/>
<path d="M73.3398 50.4473C73.9447 51.3468 76.0345 51.7515 77.4251 50.8637C79.2753 49.6852 80.3753 49.2491 78.6901 46.8018C77.873 45.6155 76.4942 45.9298 74.4515 46.9943C73.4498 47.5168 72.5385 49.2531 73.3438 50.4473H73.3398Z" fill="#FFD3CA"/>
<path d="M77.4092 47.9722C78.1124 49.0249 77.751 49.8852 77.0714 50.2977C76.3919 50.7102 75.6494 50.5177 74.9462 49.4649C74.243 48.4122 74.3884 47.8229 75.068 47.4104C75.7476 46.998 76.7062 46.9194 77.4132 47.9722H77.4092Z" fill="#FF8685"/>
<path d="M77.205 48.1134C77.9082 49.1662 77.6607 49.8104 76.9812 50.2229C76.3016 50.6353 75.4451 50.6589 74.742 49.6061C74.0388 48.5534 74.3846 47.9366 75.0642 47.5242C75.7438 47.1117 76.5059 47.0606 77.209 48.1134H77.205Z" fill="#FFD3CA"/>
<path d="M71.847 39.3263C71.7685 39.4245 72.6562 39.507 73.2179 39.9705C73.7796 40.4341 73.9604 41.585 74.0429 41.4908C74.1214 41.3925 73.8621 40.2651 73.3004 39.8016C72.7386 39.3381 71.9256 39.232 71.847 39.3302V39.3263Z" fill="#FF8685"/>
<path d="M74.0938 48.4006C74.0349 48.4438 74.6321 48.7855 74.9895 49.2844C75.347 49.7833 75.4137 50.6436 75.4687 50.6004C75.5276 50.5572 75.4058 49.693 75.0522 49.1901C74.6948 48.6913 74.1527 48.3534 74.0938 48.3966V48.4006Z" fill="#FF8685"/>
<path d="M69.1364 27.5574C70.0517 28.3941 72.3931 28.2763 73.599 26.9053C75.2096 25.0787 76.2466 24.293 73.709 22.0146C72.4833 20.9108 70.0832 21.335 68.9519 23.1499C68.2919 24.2066 67.9187 26.4418 69.1364 27.5574Z" fill="#FFD3CA"/>
<path d="M61.2798 114.493L21.1292 115C21.1292 115 25.5132 72.516 30.8792 80.675C36.2452 88.834 55.466 88.3547 60.9852 90.9395C66.5004 93.5243 61.2838 114.493 61.2838 114.493H61.2798Z" fill="#FFAC00"/>
<path d="M72.7073 23.6762C73.7718 24.6621 73.9251 25.8603 73.328 26.5084C72.7309 27.1566 71.6073 27.0073 70.5427 26.0213C69.4782 25.0353 69.0658 24.1043 69.6629 23.4562C70.26 22.808 71.6426 22.6902 72.7111 23.6762H72.7073Z" fill="#FF8685"/>
<path d="M72.5342 23.8882C73.5988 24.8742 73.7991 26.0213 73.1981 26.6694C72.601 27.3176 71.4304 27.2194 70.3658 26.2334C69.3013 25.2474 69.1715 24.1357 69.7726 23.4876C70.3697 22.8394 71.4697 22.9022 72.5342 23.8882Z" fill="#FFD3CA"/>
<path d="M32.9612 58.496C42.4008 95.1112 37.2784 66.706 39.5529 66.1168C41.8274 65.5275 48.2185 72.4334 44.6556 54.226C42.8132 44.8139 38.6651 47.4419 34.6111 48.7421C32.376 49.4571 30.0111 47.049 32.9612 58.496Z" fill="#FFD3CA"/>
<path d="M30.8242 33.1038C29.2175 42.4766 31.8809 37.7077 33.7861 37.7666C35.6913 37.8216 37.4 43.6511 37.3332 33.3277C37.3057 29.2187 35.9467 25.8483 34.0376 25.7894C32.1324 25.7344 31.5156 29.0498 30.8242 33.1038Z" fill="#FFD3CA"/>
<path d="M30.0778 38.8506C28.7776 52.5837 31.4173 43.1756 33.3892 43.3288C35.3651 43.4859 36.9286 48.9697 37.2271 39.4123C37.345 35.6058 36.0566 32.4122 34.0807 32.255C32.1048 32.0979 30.4353 35.0676 30.0778 38.8466V38.8506Z" fill="#FFD3CA"/>
<path d="M32.1874 26.4141C31.9242 27.0819 31.7394 27.5965 31.547 28.331C31.0795 30.1066 30.5572 32.0079 32.0578 31.9018C32.9377 31.839 33.7901 30.8176 34.2576 29.0421C34.4501 28.3075 34.5719 28.06 34.6426 27.0583C34.7133 26.0566 32.4584 25.7463 32.1913 26.4141H32.1874Z" fill="#FFD3CA"/>
<path d="M32.2029 26.4886C31.9319 27.1564 31.7434 27.6671 31.551 28.4017C31.0835 30.1773 30.5611 32.0746 32.1795 32.0039C33.1302 31.9607 34.0336 30.9511 34.4972 29.1755C34.6896 28.441 34.8152 28.1935 34.8702 27.1879C34.9252 26.1822 32.474 25.8208 32.2029 26.4886Z" fill="#FF8685"/>
<path d="M32.1796 26.2296C31.9164 26.8974 31.7316 27.412 31.5392 28.1466C31.0717 29.9222 30.5493 31.8234 32.0499 31.7174C32.9299 31.6545 33.7823 30.6332 34.2498 28.8576C34.4423 28.123 34.564 27.8755 34.6348 26.8738C34.7055 25.8721 32.4506 25.5618 32.1834 26.2296H32.1796Z" fill="#FFD3CA"/>
<path d="M69.2465 24.996C69.168 25.0942 70.1422 25.2435 70.7825 25.7738C71.4268 26.3042 71.7055 27.5376 71.788 27.4394C71.8705 27.3412 71.5052 26.1274 70.861 25.5971C70.2168 25.0668 69.3251 24.8939 69.2465 24.9921V24.996Z" fill="#FF8685"/>
</g>
<defs>
<clipPath id="clip0_1_11134">
<rect width="100" height="100" rx="50" fill="white"/>
</clipPath>
</defs>
</svg>
